<svg width="911" height="589" viewBox="0 0 911 589" fill="none" xmlns="http://www.w3.org/2000/svg">
<g filter="url(#filter0_d_1858_2)">
<rect x="18" y="18" width="871" height="549" rx="10" fill="#0247FF"/>
</g>
<path d="M74.9689 81V59.85H89.2189V62.88H78.6889V68.73H88.5289V71.79H78.6889V77.94H89.2189V81H74.9689ZM98.2142 81.3C96.8942 81.3 95.7342 80.99 94.7342 80.37C93.7342 79.73 92.9542 78.82 92.3942 77.64C91.8342 76.46 91.5542 75.05 91.5542 73.41C91.5542 71.77 91.8342 70.37 92.3942 69.21C92.9542 68.03 93.7342 67.13 94.7342 66.51C95.7342 65.87 96.8942 65.55 98.2142 65.55C99.4942 65.55 100.614 65.87 101.574 66.51C102.554 67.13 103.204 67.97 103.524 69.03H103.194L103.524 65.85H107.124C107.064 66.47 107.004 67.1 106.944 67.74C106.904 68.38 106.884 69.01 106.884 69.63V81H103.164L103.134 77.88H103.494C103.174 78.92 102.524 79.75 101.544 80.37C100.564 80.99 99.4542 81.3 98.2142 81.3ZM99.2642 78.42C100.444 78.42 101.394 78.01 102.114 77.19C102.834 76.35 103.194 75.09 103.194 73.41C103.194 71.73 102.834 70.48 102.114 69.66C101.394 68.84 100.444 68.43 99.2642 68.43C98.0842 68.43 97.1342 68.84 96.4142 69.66C95.6942 70.48 95.3342 71.73 95.3342 73.41C95.3342 75.09 95.6842 76.35 96.3842 77.19C97.1042 78.01 98.0642 78.42 99.2642 78.42ZM110.938 81V69.72C110.938 69.08 110.918 68.43 110.878 67.77C110.858 67.11 110.808 66.47 110.728 65.85H114.358L114.778 69.99H114.178C114.378 68.99 114.708 68.16 115.168 67.5C115.648 66.84 116.228 66.35 116.908 66.03C117.588 65.71 118.328 65.55 119.128 65.55C119.488 65.55 119.778 65.57 119.998 65.61C120.218 65.63 120.438 65.68 120.658 65.76L120.628 69.06C120.248 68.9 119.918 68.8 119.638 68.76C119.378 68.72 119.048 68.7 118.648 68.7C117.788 68.7 117.058 68.88 116.458 69.24C115.878 69.6 115.438 70.1 115.138 70.74C114.858 71.38 114.718 72.11 114.718 72.93V81H110.938ZM122.745 81V69.63C122.745 69.01 122.725 68.38 122.685 67.74C122.645 67.1 122.585 66.47 122.505 65.85H126.135L126.435 68.85H126.075C126.555 67.79 127.265 66.98 128.205 66.42C129.145 65.84 130.235 65.55 131.475 65.55C133.255 65.55 134.595 66.05 135.495 67.05C136.395 68.05 136.845 69.61 136.845 71.73V81H133.095V71.91C133.095 70.69 132.855 69.82 132.375 69.3C131.915 68.76 131.215 68.49 130.275 68.49C129.115 68.49 128.195 68.85 127.515 69.57C126.835 70.29 126.495 71.25 126.495 72.45V81H122.745ZM140.821 81V65.85H144.571V81H140.821ZM140.611 63V59.34H144.781V63H140.611ZM148.644 81V69.63C148.644 69.01 148.624 68.38 148.584 67.74C148.544 67.1 148.484 66.47 148.404 65.85H152.034L152.334 68.85H151.974C152.454 67.79 153.164 66.98 154.104 66.42C155.044 65.84 156.134 65.55 157.374 65.55C159.154 65.55 160.494 66.05 161.394 67.05C162.294 68.05 162.744 69.61 162.744 71.73V81H158.994V71.91C158.994 70.69 158.754 69.82 158.274 69.3C157.814 68.76 157.114 68.49 156.174 68.49C155.014 68.49 154.094 68.85 153.414 69.57C152.734 70.29 152.394 71.25 152.394 72.45V81H148.644ZM173.74 87.72C172.34 87.72 171.07 87.57 169.93 87.27C168.81 86.97 167.81 86.51 166.93 85.89L167.74 83.19C168.32 83.57 168.92 83.88 169.54 84.12C170.16 84.36 170.8 84.54 171.46 84.66C172.12 84.78 172.79 84.84 173.47 84.84C174.87 84.84 175.91 84.49 176.59 83.79C177.29 83.11 177.64 82.13 177.64 80.85V77.22H177.94C177.62 78.26 176.97 79.09 175.99 79.71C175.03 80.33 173.92 80.64 172.66 80.64C171.3 80.64 170.11 80.34 169.09 79.74C168.09 79.12 167.31 78.24 166.75 77.1C166.19 75.96 165.91 74.62 165.91 73.08C165.91 71.54 166.19 70.21 166.75 69.09C167.31 67.95 168.09 67.08 169.09 66.48C170.11 65.86 171.3 65.55 172.66 65.55C173.94 65.55 175.05 65.86 175.99 66.48C176.95 67.08 177.59 67.9 177.91 68.94L177.64 68.76L177.94 65.85H181.57C181.49 66.47 181.43 67.1 181.39 67.74C181.35 68.38 181.33 69.01 181.33 69.63V80.4C181.33 82.78 180.68 84.59 179.38 85.83C178.1 87.09 176.22 87.72 173.74 87.72ZM173.68 77.76C174.88 77.76 175.83 77.36 176.53 76.56C177.25 75.74 177.61 74.58 177.61 73.08C177.61 71.58 177.25 70.43 176.53 69.63C175.83 68.83 174.88 68.43 173.68 68.43C172.46 68.43 171.49 68.83 170.77 69.63C170.05 70.43 169.69 71.58 169.69 73.08C169.69 74.58 170.05 75.74 170.77 76.56C171.49 77.36 172.46 77.76 173.68 77.76ZM190.782 81.3C189.482 81.3 188.282 81.15 187.182 80.85C186.102 80.53 185.192 80.09 184.452 79.53L185.502 77.01C186.262 77.53 187.102 77.93 188.022 78.21C188.942 78.49 189.872 78.63 190.812 78.63C191.812 78.63 192.552 78.46 193.032 78.12C193.532 77.78 193.782 77.32 193.782 76.74C193.782 76.28 193.622 75.92 193.302 75.66C193.002 75.38 192.512 75.17 191.832 75.03L188.832 74.46C187.552 74.18 186.572 73.7 185.892 73.02C185.232 72.34 184.902 71.45 184.902 70.35C184.902 69.41 185.152 68.58 185.652 67.86C186.172 67.14 186.902 66.58 187.842 66.18C188.802 65.76 189.922 65.55 191.202 65.55C192.322 65.55 193.372 65.7 194.352 66C195.352 66.3 196.192 66.75 196.872 67.35L195.792 69.78C195.172 69.28 194.462 68.89 193.662 68.61C192.862 68.33 192.082 68.19 191.322 68.19C190.282 68.19 189.522 68.38 189.042 68.76C188.562 69.12 188.322 69.59 188.322 70.17C188.322 70.61 188.462 70.98 188.742 71.28C189.042 71.56 189.502 71.77 190.122 71.91L193.122 72.48C194.462 72.74 195.472 73.2 196.152 73.86C196.852 74.5 197.202 75.38 197.202 76.5C197.202 77.5 196.932 78.36 196.392 79.08C195.852 79.8 195.102 80.35 194.142 80.73C193.182 81.11 192.062 81.3 190.782 81.3Z" fill="white"/>
<g filter="url(#filter1_d_1858_2)">
<path d="M121 305.854L148.49 281.049L177.354 289.317L206.219 330.659L233.709 314.122L262.573 326.524L290.063 305.854L317.553 344.439L347.792 360.976L375.281 334.793L401.397 271.402L430.261 259L460.5 334.793L487.99 321.012L515.48 338.927L542.97 305.854L574.583 372L602.073 351.329L630.937 369.244L657.053 326.524L685.917 347.195L714.781 326.524L742.271 334.793L769.761 326.524L800 231" stroke="white"/>
</g>
<path d="M148 163V471" stroke="white" stroke-opacity="0.5"/>
<path d="M206 163V471" stroke="white" stroke-opacity="0.5"/>
<path d="M262 163V471" stroke="white" stroke-opacity="0.5"/>
<path d="M316 163V471" stroke="white" stroke-opacity="0.5"/>
<path d="M374 163V471" stroke="white" stroke-opacity="0.5"/>
<path d="M431 163V471" stroke="white" stroke-opacity="0.5"/>
<path d="M487 163V471" stroke="white" stroke-opacity="0.5"/>
<path d="M541 163V471" stroke="white" stroke-opacity="0.5"/>
<path d="M601 163V471" stroke="white" stroke-opacity="0.5"/>
<path d="M658 163V471" stroke="white" stroke-opacity="0.5"/>
<path d="M714 163V471" stroke="white" stroke-opacity="0.5"/>
<path d="M769 163V471" stroke="white" stroke-opacity="0.5"/>
<rect x="773" y="163" width="54" height="308" fill="url(#paint0_linear_1858_2)" fill-opacity="0.3"/>
<path d="M84 457.1C83.1733 457.1 82.5367 456.787 82.09 456.16C81.6433 455.527 81.42 454.627 81.42 453.46C81.42 452.28 81.6433 451.383 82.09 450.77C82.5367 450.157 83.1733 449.85 84 449.85C84.8333 449.85 85.47 450.157 85.91 450.77C86.3567 451.383 86.58 452.277 86.58 453.45C86.58 454.623 86.3567 455.527 85.91 456.16C85.47 456.787 84.8333 457.1 84 457.1ZM84 456.04C84.4533 456.04 84.79 455.833 85.01 455.42C85.23 455 85.34 454.343 85.34 453.45C85.34 452.557 85.23 451.91 85.01 451.51C84.79 451.103 84.4533 450.9 84 450.9C83.5533 450.9 83.2167 451.103 82.99 451.51C82.77 451.91 82.66 452.557 82.66 453.45C82.66 454.343 82.77 455 82.99 455.42C83.2167 455.833 83.5533 456.04 84 456.04ZM90.5202 457V449.95H91.8102V453.07H91.8302L94.9002 449.95H96.4602L92.7802 453.62L92.7902 453.06L96.7002 457H95.0902L91.8302 453.74H91.8102V457H90.5202Z" fill="white"/>
<path d="M82.11 427V425.93H83.73V421.03H84.35L82.27 422.27V421.05L84.1 419.95H85.02V425.93H86.54V427H82.11ZM89.9961 427.1C89.1694 427.1 88.5328 426.787 88.0861 426.16C87.6394 425.527 87.4161 424.627 87.4161 423.46C87.4161 422.28 87.6394 421.383 88.0861 420.77C88.5328 420.157 89.1694 419.85 89.9961 419.85C90.8294 419.85 91.4661 420.157 91.9061 420.77C92.3528 421.383 92.5761 422.277 92.5761 423.45C92.5761 424.623 92.3528 425.527 91.9061 426.16C91.4661 426.787 90.8294 427.1 89.9961 427.1ZM89.9961 426.04C90.4494 426.04 90.7861 425.833 91.0061 425.42C91.2261 425 91.3361 424.343 91.3361 423.45C91.3361 422.557 91.2261 421.91 91.0061 421.51C90.7861 421.103 90.4494 420.9 89.9961 420.9C89.5494 420.9 89.2128 421.103 88.9861 421.51C88.7661 421.91 88.6561 422.557 88.6561 423.45C88.6561 424.343 88.7661 425 88.9861 425.42C89.2128 425.833 89.5494 426.04 89.9961 426.04ZM96.5163 427V419.95H97.8063V423.07H97.8263L100.896 419.95H102.456L98.7763 423.62L98.7863 423.06L102.696 427H101.086L97.8263 423.74H97.8063V427H96.5163Z" fill="white"/>
<path d="M81.78 397V396.05L84.12 393.61C84.4133 393.303 84.63 393.02 84.77 392.76C84.91 392.5 84.98 392.233 84.98 391.96C84.98 391.62 84.8733 391.363 84.66 391.19C84.4467 391.017 84.1367 390.93 83.73 390.93C83.4033 390.93 83.09 390.99 82.79 391.11C82.49 391.223 82.1967 391.403 81.91 391.65L81.49 390.69C81.7767 390.437 82.13 390.233 82.55 390.08C82.9767 389.927 83.4233 389.85 83.89 389.85C84.65 389.85 85.2333 390.02 85.64 390.36C86.0467 390.7 86.25 391.187 86.25 391.82C86.25 392.26 86.1467 392.68 85.94 393.08C85.7333 393.473 85.4133 393.887 84.98 394.32L83.03 396.27V395.93H86.53V397H81.78ZM89.9961 397.1C89.1694 397.1 88.5328 396.787 88.0861 396.16C87.6394 395.527 87.4161 394.627 87.4161 393.46C87.4161 392.28 87.6394 391.383 88.0861 390.77C88.5328 390.157 89.1694 389.85 89.9961 389.85C90.8294 389.85 91.4661 390.157 91.9061 390.77C92.3528 391.383 92.5761 392.277 92.5761 393.45C92.5761 394.623 92.3528 395.527 91.9061 396.16C91.4661 396.787 90.8294 397.1 89.9961 397.1ZM89.9961 396.04C90.4494 396.04 90.7861 395.833 91.0061 395.42C91.2261 395 91.3361 394.343 91.3361 393.45C91.3361 392.557 91.2261 391.91 91.0061 391.51C90.7861 391.103 90.4494 390.9 89.9961 390.9C89.5494 390.9 89.2128 391.103 88.9861 391.51C88.7661 391.91 88.6561 392.557 88.6561 393.45C88.6561 394.343 88.7661 395 88.9861 395.42C89.2128 395.833 89.5494 396.04 89.9961 396.04ZM96.5163 397V389.95H97.8063V393.07H97.8263L100.896 389.95H102.456L98.7763 393.62L98.7863 393.06L102.696 397H101.086L97.8263 393.74H97.8063V397H96.5163Z" fill="white"/>
<path d="M83.89 367.1C83.4033 367.1 82.9367 367.03 82.49 366.89C82.0433 366.743 81.6767 366.543 81.39 366.29L81.81 365.32C82.1233 365.56 82.4467 365.737 82.78 365.85C83.12 365.963 83.4767 366.02 83.85 366.02C84.3033 366.02 84.6467 365.93 84.88 365.75C85.1133 365.57 85.23 365.307 85.23 364.96C85.23 364.627 85.1133 364.377 84.88 364.21C84.6533 364.037 84.32 363.95 83.88 363.95H82.74V362.92H83.77C84.15 362.92 84.4533 362.827 84.68 362.64C84.9067 362.453 85.02 362.197 85.02 361.87C85.02 361.563 84.9133 361.33 84.7 361.17C84.4933 361.01 84.1933 360.93 83.8 360.93C83.0933 360.93 82.47 361.17 81.93 361.65L81.51 360.69C81.7967 360.423 82.15 360.217 82.57 360.07C82.9967 359.923 83.4433 359.85 83.91 359.85C84.6433 359.85 85.2167 360.017 85.63 360.35C86.05 360.677 86.26 361.133 86.26 361.72C86.26 362.14 86.14 362.503 85.9 362.81C85.6667 363.11 85.3433 363.31 84.93 363.41V363.29C85.4167 363.37 85.7933 363.57 86.06 363.89C86.3333 364.203 86.47 364.597 86.47 365.07C86.47 365.697 86.24 366.193 85.78 366.56C85.32 366.92 84.69 367.1 83.89 367.1ZM89.9961 367.1C89.1694 367.1 88.5328 366.787 88.0861 366.16C87.6394 365.527 87.4161 364.627 87.4161 363.46C87.4161 362.28 87.6394 361.383 88.0861 360.77C88.5328 360.157 89.1694 359.85 89.9961 359.85C90.8294 359.85 91.4661 360.157 91.9061 360.77C92.3528 361.383 92.5761 362.277 92.5761 363.45C92.5761 364.623 92.3528 365.527 91.9061 366.16C91.4661 366.787 90.8294 367.1 89.9961 367.1ZM89.9961 366.04C90.4494 366.04 90.7861 365.833 91.0061 365.42C91.2261 365 91.3361 364.343 91.3361 363.45C91.3361 362.557 91.2261 361.91 91.0061 361.51C90.7861 361.103 90.4494 360.9 89.9961 360.9C89.5494 360.9 89.2128 361.103 88.9861 361.51C88.7661 361.91 88.6561 362.557 88.6561 363.45C88.6561 364.343 88.7661 365 88.9861 365.42C89.2128 365.833 89.5494 366.04 89.9961 366.04ZM96.5163 367V359.95H97.8063V363.07H97.8263L100.896 359.95H102.456L98.7763 363.62L98.7863 363.06L102.696 367H101.086L97.8263 363.74H97.8063V367H96.5163Z" fill="white"/>
<path d="M84.56 337V335.62H81.41V334.72L84.76 329.95H85.8V334.64H86.81V335.62H85.8V337H84.56ZM84.56 334.64V331.47H84.8L82.37 334.94V334.64H84.56ZM89.9961 337.1C89.1694 337.1 88.5328 336.787 88.0861 336.16C87.6394 335.527 87.4161 334.627 87.4161 333.46C87.4161 332.28 87.6394 331.383 88.0861 330.77C88.5328 330.157 89.1694 329.85 89.9961 329.85C90.8294 329.85 91.4661 330.157 91.9061 330.77C92.3528 331.383 92.5761 332.277 92.5761 333.45C92.5761 334.623 92.3528 335.527 91.9061 336.16C91.4661 336.787 90.8294 337.1 89.9961 337.1ZM89.9961 336.04C90.4494 336.04 90.7861 335.833 91.0061 335.42C91.2261 335 91.3361 334.343 91.3361 333.45C91.3361 332.557 91.2261 331.91 91.0061 331.51C90.7861 331.103 90.4494 330.9 89.9961 330.9C89.5494 330.9 89.2128 331.103 88.9861 331.51C88.7661 331.91 88.6561 332.557 88.6561 333.45C88.6561 334.343 88.7661 335 88.9861 335.42C89.2128 335.833 89.5494 336.04 89.9961 336.04ZM96.5163 337V329.95H97.8063V333.07H97.8263L100.896 329.95H102.456L98.7763 333.62L98.7863 333.06L102.696 337H101.086L97.8263 333.74H97.8063V337H96.5163Z" fill="white"/>
<path d="M84.05 307.1C83.7433 307.1 83.4367 307.067 83.13 307C82.83 306.933 82.5467 306.84 82.28 306.72C82.02 306.6 81.7967 306.457 81.61 306.29L82.03 305.32C82.3433 305.553 82.6633 305.73 82.99 305.85C83.3233 305.963 83.67 306.02 84.03 306.02C84.4633 306.02 84.8 305.913 85.04 305.7C85.2867 305.48 85.41 305.187 85.41 304.82C85.41 304.447 85.2933 304.147 85.06 303.92C84.8267 303.687 84.5067 303.57 84.1 303.57C83.8133 303.57 83.55 303.627 83.31 303.74C83.0767 303.847 82.8667 304.013 82.68 304.24H81.83V299.95H86.21V301.01H83.05V303.25H82.74C82.9133 303.017 83.1433 302.837 83.43 302.71C83.7233 302.583 84.05 302.52 84.41 302.52C84.8633 302.52 85.2567 302.613 85.59 302.8C85.9233 302.987 86.1833 303.25 86.37 303.59C86.5567 303.923 86.65 304.317 86.65 304.77C86.65 305.23 86.5433 305.637 86.33 305.99C86.1233 306.337 85.8233 306.61 85.43 306.81C85.0433 307.003 84.5833 307.1 84.05 307.1ZM89.9961 307.1C89.1694 307.1 88.5328 306.787 88.0861 306.16C87.6394 305.527 87.4161 304.627 87.4161 303.46C87.4161 302.28 87.6394 301.383 88.0861 300.77C88.5328 300.157 89.1694 299.85 89.9961 299.85C90.8294 299.85 91.4661 300.157 91.9061 300.77C92.3528 301.383 92.5761 302.277 92.5761 303.45C92.5761 304.623 92.3528 305.527 91.9061 306.16C91.4661 306.787 90.8294 307.1 89.9961 307.1ZM89.9961 306.04C90.4494 306.04 90.7861 305.833 91.0061 305.42C91.2261 305 91.3361 304.343 91.3361 303.45C91.3361 302.557 91.2261 301.91 91.0061 301.51C90.7861 301.103 90.4494 300.9 89.9961 300.9C89.5494 300.9 89.2128 301.103 88.9861 301.51C88.7661 301.91 88.6561 302.557 88.6561 303.45C88.6561 304.343 88.7661 305 88.9861 305.42C89.2128 305.833 89.5494 306.04 89.9961 306.04ZM96.5163 307V299.95H97.8063V303.07H97.8263L100.896 299.95H102.456L98.7763 303.62L98.7863 303.06L102.696 307H101.086L97.8263 303.74H97.8063V307H96.5163Z" fill="white"/>
<path d="M84.25 277.1C83.3633 277.1 82.6767 276.793 82.19 276.18C81.71 275.567 81.47 274.707 81.47 273.6C81.47 272.8 81.5933 272.123 81.84 271.57C82.0867 271.01 82.4367 270.583 82.89 270.29C83.35 269.997 83.9 269.85 84.54 269.85C84.92 269.85 85.2967 269.92 85.67 270.06C86.0433 270.193 86.3633 270.387 86.63 270.64L86.2 271.6C85.9533 271.373 85.6867 271.207 85.4 271.1C85.1133 270.987 84.8233 270.93 84.53 270.93C83.93 270.93 83.4733 271.133 83.16 271.54C82.8467 271.947 82.69 272.553 82.69 273.36V274.11H82.57C82.6233 273.77 82.7367 273.48 82.91 273.24C83.0833 272.993 83.3067 272.807 83.58 272.68C83.8533 272.547 84.1567 272.48 84.49 272.48C84.9033 272.48 85.27 272.577 85.59 272.77C85.91 272.963 86.16 273.23 86.34 273.57C86.5267 273.91 86.62 274.3 86.62 274.74C86.62 275.193 86.5167 275.6 86.31 275.96C86.11 276.313 85.8333 276.593 85.48 276.8C85.1267 277 84.7167 277.1 84.25 277.1ZM84.18 276.08C84.4267 276.08 84.6433 276.027 84.83 275.92C85.0167 275.813 85.16 275.663 85.26 275.47C85.3667 275.27 85.42 275.043 85.42 274.79C85.42 274.53 85.3667 274.303 85.26 274.11C85.16 273.917 85.0167 273.767 84.83 273.66C84.6433 273.547 84.4267 273.49 84.18 273.49C83.9333 273.49 83.7167 273.547 83.53 273.66C83.3433 273.767 83.1967 273.917 83.09 274.11C82.9833 274.303 82.93 274.53 82.93 274.79C82.93 275.043 82.9833 275.27 83.09 275.47C83.1967 275.663 83.3433 275.813 83.53 275.92C83.7167 276.027 83.9333 276.08 84.18 276.08ZM89.9961 277.1C89.1694 277.1 88.5328 276.787 88.0861 276.16C87.6394 275.527 87.4161 274.627 87.4161 273.46C87.4161 272.28 87.6394 271.383 88.0861 270.77C88.5328 270.157 89.1694 269.85 89.9961 269.85C90.8294 269.85 91.4661 270.157 91.9061 270.77C92.3528 271.383 92.5761 272.277 92.5761 273.45C92.5761 274.623 92.3528 275.527 91.9061 276.16C91.4661 276.787 90.8294 277.1 89.9961 277.1ZM89.9961 276.04C90.4494 276.04 90.7861 275.833 91.0061 275.42C91.2261 275 91.3361 274.343 91.3361 273.45C91.3361 272.557 91.2261 271.91 91.0061 271.51C90.7861 271.103 90.4494 270.9 89.9961 270.9C89.5494 270.9 89.2128 271.103 88.9861 271.51C88.7661 271.91 88.6561 272.557 88.6561 273.45C88.6561 274.343 88.7661 275 88.9861 275.42C89.2128 275.833 89.5494 276.04 89.9961 276.04ZM96.5163 277V269.95H97.8063V273.07H97.8263L100.896 269.95H102.456L98.7763 273.62L98.7863 273.06L102.696 277H101.086L97.8263 273.74H97.8063V277H96.5163Z" fill="white"/>
<path d="M81.86 247L85.28 240.58V241.03H81.54V239.95H86.47V240.91L83.27 247H81.86ZM89.9961 247.1C89.1694 247.1 88.5328 246.787 88.0861 246.16C87.6394 245.527 87.4161 244.627 87.4161 243.46C87.4161 242.28 87.6394 241.383 88.0861 240.77C88.5328 240.157 89.1694 239.85 89.9961 239.85C90.8294 239.85 91.4661 240.157 91.9061 240.77C92.3528 241.383 92.5761 242.277 92.5761 243.45C92.5761 244.623 92.3528 245.527 91.9061 246.16C91.4661 246.787 90.8294 247.1 89.9961 247.1ZM89.9961 246.04C90.4494 246.04 90.7861 245.833 91.0061 245.42C91.2261 245 91.3361 244.343 91.3361 243.45C91.3361 242.557 91.2261 241.91 91.0061 241.51C90.7861 241.103 90.4494 240.9 89.9961 240.9C89.5494 240.9 89.2128 241.103 88.9861 241.51C88.7661 241.91 88.6561 242.557 88.6561 243.45C88.6561 244.343 88.7661 245 88.9861 245.42C89.2128 245.833 89.5494 246.04 89.9961 246.04ZM96.5163 247V239.95H97.8063V243.07H97.8263L100.896 239.95H102.456L98.7763 243.62L98.7863 243.06L102.696 247H101.086L97.8263 243.74H97.8063V247H96.5163Z" fill="white"/>
<path d="M84 217.1C83.1733 217.1 82.5267 216.923 82.06 216.57C81.6 216.217 81.37 215.727 81.37 215.1C81.37 214.607 81.52 214.197 81.82 213.87C82.12 213.543 82.51 213.35 82.99 213.29V213.5C82.5567 213.407 82.2067 213.203 81.94 212.89C81.68 212.577 81.55 212.197 81.55 211.75C81.55 211.157 81.7667 210.693 82.2 210.36C82.64 210.02 83.24 209.85 84 209.85C84.7667 209.85 85.3667 210.02 85.8 210.36C86.24 210.693 86.46 211.157 86.46 211.75C86.46 212.197 86.3333 212.58 86.08 212.9C85.8333 213.22 85.4967 213.417 85.07 213.49V213.29C85.5433 213.357 85.9233 213.553 86.21 213.88C86.4967 214.2 86.64 214.607 86.64 215.1C86.64 215.727 86.4067 216.217 85.94 216.57C85.48 216.923 84.8333 217.1 84 217.1ZM84 216.1C84.4867 216.1 84.85 216.01 85.09 215.83C85.33 215.643 85.45 215.37 85.45 215.01C85.45 214.65 85.33 214.38 85.09 214.2C84.85 214.02 84.4867 213.93 84 213.93C83.52 213.93 83.1567 214.02 82.91 214.2C82.67 214.38 82.55 214.65 82.55 215.01C82.55 215.37 82.67 215.643 82.91 215.83C83.1567 216.01 83.52 216.1 84 216.1ZM84 212.93C84.4133 212.93 84.7267 212.837 84.94 212.65C85.16 212.463 85.27 212.207 85.27 211.88C85.27 211.56 85.16 211.31 84.94 211.13C84.7267 210.943 84.4133 210.85 84 210.85C83.5933 210.85 83.28 210.943 83.06 211.13C82.8467 211.31 82.74 211.56 82.74 211.88C82.74 212.207 82.8467 212.463 83.06 212.65C83.28 212.837 83.5933 212.93 84 212.93ZM89.9961 217.1C89.1694 217.1 88.5328 216.787 88.0861 216.16C87.6394 215.527 87.4161 214.627 87.4161 213.46C87.4161 212.28 87.6394 211.383 88.0861 210.77C88.5328 210.157 89.1694 209.85 89.9961 209.85C90.8294 209.85 91.4661 210.157 91.9061 210.77C92.3528 211.383 92.5761 212.277 92.5761 213.45C92.5761 214.623 92.3528 215.527 91.9061 216.16C91.4661 216.787 90.8294 217.1 89.9961 217.1ZM89.9961 216.04C90.4494 216.04 90.7861 215.833 91.0061 215.42C91.2261 215 91.3361 214.343 91.3361 213.45C91.3361 212.557 91.2261 211.91 91.0061 211.51C90.7861 211.103 90.4494 210.9 89.9961 210.9C89.5494 210.9 89.2128 211.103 88.9861 211.51C88.7661 211.91 88.6561 212.557 88.6561 213.45C88.6561 214.343 88.7661 215 88.9861 215.42C89.2128 215.833 89.5494 216.04 89.9961 216.04ZM96.5163 217V209.95H97.8063V213.07H97.8263L100.896 209.95H102.456L98.7763 213.62L98.7863 213.06L102.696 217H101.086L97.8263 213.74H97.8063V217H96.5163Z" fill="white"/>
<path d="M83.47 187.1C83.09 187.1 82.7133 187.03 82.34 186.89C81.9667 186.743 81.6467 186.547 81.38 186.3L81.81 185.34C82.0567 185.567 82.3233 185.737 82.61 185.85C82.8967 185.963 83.1867 186.02 83.48 186.02C84.0733 186.02 84.5267 185.817 84.84 185.41C85.16 185.003 85.32 184.397 85.32 183.59V182.84H85.44C85.3933 183.173 85.28 183.463 85.1 183.71C84.92 183.957 84.6933 184.147 84.42 184.28C84.1533 184.407 83.8533 184.47 83.52 184.47C83.1133 184.47 82.7467 184.373 82.42 184.18C82.1 183.987 81.8467 183.72 81.66 183.38C81.48 183.033 81.39 182.643 81.39 182.21C81.39 181.75 81.49 181.343 81.69 180.99C81.8967 180.637 82.1767 180.36 82.53 180.16C82.8833 179.953 83.29 179.85 83.75 179.85C84.6433 179.85 85.33 180.157 85.81 180.77C86.2967 181.377 86.54 182.237 86.54 183.35C86.54 184.143 86.4167 184.82 86.17 185.38C85.93 185.94 85.58 186.367 85.12 186.66C84.66 186.953 84.11 187.1 83.47 187.1ZM83.83 183.45C84.0767 183.45 84.2933 183.397 84.48 183.29C84.6667 183.183 84.8133 183.033 84.92 182.84C85.0267 182.64 85.08 182.413 85.08 182.16C85.08 181.9 85.0267 181.673 84.92 181.48C84.8133 181.287 84.6667 181.137 84.48 181.03C84.2933 180.917 84.0767 180.86 83.83 180.86C83.5833 180.86 83.3667 180.917 83.18 181.03C82.9933 181.137 82.8467 181.287 82.74 181.48C82.64 181.673 82.59 181.9 82.59 182.16C82.59 182.413 82.64 182.64 82.74 182.84C82.8467 183.033 82.9933 183.183 83.18 183.29C83.3667 183.397 83.5833 183.45 83.83 183.45ZM89.9961 187.1C89.1694 187.1 88.5328 186.787 88.0861 186.16C87.6394 185.527 87.4161 184.627 87.4161 183.46C87.4161 182.28 87.6394 181.383 88.0861 180.77C88.5328 180.157 89.1694 179.85 89.9961 179.85C90.8294 179.85 91.4661 180.157 91.9061 180.77C92.3528 181.383 92.5761 182.277 92.5761 183.45C92.5761 184.623 92.3528 185.527 91.9061 186.16C91.4661 186.787 90.8294 187.1 89.9961 187.1ZM89.9961 186.04C90.4494 186.04 90.7861 185.833 91.0061 185.42C91.2261 185 91.3361 184.343 91.3361 183.45C91.3361 182.557 91.2261 181.91 91.0061 181.51C90.7861 181.103 90.4494 180.9 89.9961 180.9C89.5494 180.9 89.2128 181.103 88.9861 181.51C88.7661 181.91 88.6561 182.557 88.6561 183.45C88.6561 184.343 88.7661 185 88.9861 185.42C89.2128 185.833 89.5494 186.04 89.9961 186.04ZM96.5163 187V179.95H97.8063V183.07H97.8263L100.896 179.95H102.456L98.7763 183.62L98.7863 183.06L102.696 187H101.086L97.8263 183.74H97.8063V187H96.5163Z" fill="white"/>
<path d="M139.9 499.87C139.787 499.87 139.65 499.863 139.49 499.85C139.337 499.837 139.18 499.813 139.02 499.78V498.76C139.147 498.787 139.267 498.807 139.38 498.82C139.5 498.833 139.6 498.84 139.68 498.84C139.987 498.84 140.207 498.75 140.34 498.57C140.48 498.39 140.55 498.103 140.55 497.71V490.95H141.84V497.71C141.84 498.19 141.773 498.59 141.64 498.91C141.507 499.23 141.297 499.47 141.01 499.63C140.73 499.79 140.36 499.87 139.9 499.87ZM145.253 498.1C144.813 498.1 144.426 497.997 144.093 497.79C143.76 497.577 143.5 497.273 143.313 496.88C143.126 496.487 143.033 496.017 143.033 495.47C143.033 494.923 143.126 494.457 143.313 494.07C143.5 493.677 143.76 493.377 144.093 493.17C144.426 492.957 144.813 492.85 145.253 492.85C145.68 492.85 146.053 492.957 146.373 493.17C146.7 493.377 146.916 493.657 147.023 494.01H146.913L147.023 492.95H148.223C148.203 493.157 148.183 493.367 148.163 493.58C148.15 493.793 148.143 494.003 148.143 494.21V498H146.903L146.893 496.96H147.013C146.906 497.307 146.69 497.583 146.363 497.79C146.036 497.997 145.666 498.1 145.253 498.1ZM145.603 497.14C145.996 497.14 146.313 497.003 146.553 496.73C146.793 496.45 146.913 496.03 146.913 495.47C146.913 494.91 146.793 494.493 146.553 494.22C146.313 493.947 145.996 493.81 145.603 493.81C145.21 493.81 144.893 493.947 144.653 494.22C144.413 494.493 144.293 494.91 144.293 495.47C144.293 496.03 144.41 496.45 144.643 496.73C144.883 497.003 145.203 497.14 145.603 497.14ZM149.504 498V494.21C149.504 494.003 149.498 493.793 149.484 493.58C149.471 493.367 149.451 493.157 149.424 492.95H150.634L150.734 493.95H150.614C150.774 493.597 151.011 493.327 151.324 493.14C151.638 492.947 152.001 492.85 152.414 492.85C153.008 492.85 153.454 493.017 153.754 493.35C154.054 493.683 154.204 494.203 154.204 494.91V498H152.954V494.97C152.954 494.563 152.874 494.273 152.714 494.1C152.561 493.92 152.328 493.83 152.014 493.83C151.628 493.83 151.321 493.95 151.094 494.19C150.868 494.43 150.754 494.75 150.754 495.15V498H149.504Z" fill="white"/>
<path d="M197.78 498V490.95H202.43V491.96H199.07V493.96H202.2V494.97H199.07V498H197.78ZM205.667 498.1C204.82 498.1 204.157 497.867 203.677 497.4C203.197 496.933 202.957 496.293 202.957 495.48C202.957 494.953 203.06 494.493 203.267 494.1C203.474 493.707 203.76 493.4 204.127 493.18C204.5 492.96 204.934 492.85 205.427 492.85C205.914 492.85 206.32 492.953 206.647 493.16C206.974 493.367 207.22 493.657 207.387 494.03C207.56 494.403 207.647 494.84 207.647 495.34V495.67H203.967V495.01H206.757L206.587 495.15C206.587 494.683 206.487 494.327 206.287 494.08C206.094 493.833 205.81 493.71 205.437 493.71C205.024 493.71 204.704 493.857 204.477 494.15C204.257 494.443 204.147 494.853 204.147 495.38V495.51C204.147 496.057 204.28 496.467 204.547 496.74C204.82 497.007 205.204 497.14 205.697 497.14C205.984 497.14 206.25 497.103 206.497 497.03C206.75 496.95 206.99 496.823 207.217 496.65L207.587 497.49C207.347 497.683 207.06 497.833 206.727 497.94C206.394 498.047 206.04 498.1 205.667 498.1ZM211.595 498.1C211.169 498.1 210.795 497.997 210.475 497.79C210.155 497.577 209.942 497.29 209.835 496.93H209.945V498H208.705V490.64H209.955V493.98H209.835C209.949 493.633 210.165 493.36 210.485 493.16C210.805 492.953 211.175 492.85 211.595 492.85C212.042 492.85 212.432 492.957 212.765 493.17C213.099 493.383 213.359 493.687 213.545 494.08C213.732 494.467 213.825 494.933 213.825 495.48C213.825 496.027 213.732 496.497 213.545 496.89C213.359 497.277 213.095 497.577 212.755 497.79C212.422 497.997 212.035 498.1 211.595 498.1ZM211.245 497.14C211.639 497.14 211.955 497.003 212.195 496.73C212.442 496.457 212.565 496.04 212.565 495.48C212.565 494.92 212.442 494.503 212.195 494.23C211.955 493.95 211.639 493.81 211.245 493.81C210.852 493.81 210.535 493.947 210.295 494.22C210.055 494.493 209.935 494.91 209.935 495.47C209.935 496.03 210.055 496.45 210.295 496.73C210.535 497.003 210.852 497.14 211.245 497.14Z" fill="white"/>
<path d="M252.79 498V490.95H253.92L256.51 496.78H256.2L258.79 490.95H259.91V498H258.74V492.77H259.1L256.73 498H255.96L253.59 492.77H253.96V498H252.79ZM263.331 498.1C262.891 498.1 262.505 497.997 262.171 497.79C261.838 497.577 261.578 497.273 261.391 496.88C261.205 496.487 261.111 496.017 261.111 495.47C261.111 494.923 261.205 494.457 261.391 494.07C261.578 493.677 261.838 493.377 262.171 493.17C262.505 492.957 262.891 492.85 263.331 492.85C263.758 492.85 264.131 492.957 264.451 493.17C264.778 493.377 264.995 493.657 265.101 494.01H264.991L265.101 492.95H266.301C266.281 493.157 266.261 493.367 266.241 493.58C266.228 493.793 266.221 494.003 266.221 494.21V498H264.981L264.971 496.96H265.091C264.985 497.307 264.768 497.583 264.441 497.79C264.115 497.997 263.745 498.1 263.331 498.1ZM263.681 497.14C264.075 497.14 264.391 497.003 264.631 496.73C264.871 496.45 264.991 496.03 264.991 495.47C264.991 494.91 264.871 494.493 264.631 494.22C264.391 493.947 264.075 493.81 263.681 493.81C263.288 493.81 262.971 493.947 262.731 494.22C262.491 494.493 262.371 494.91 262.371 495.47C262.371 496.03 262.488 496.45 262.721 496.73C262.961 497.003 263.281 497.14 263.681 497.14ZM267.572 498V494.24C267.572 494.027 267.566 493.81 267.552 493.59C267.546 493.37 267.529 493.157 267.502 492.95H268.712L268.852 494.33H268.652C268.719 493.997 268.829 493.72 268.982 493.5C269.142 493.28 269.336 493.117 269.562 493.01C269.789 492.903 270.036 492.85 270.302 492.85C270.422 492.85 270.519 492.857 270.592 492.87C270.666 492.877 270.739 492.893 270.812 492.92L270.802 494.02C270.676 493.967 270.566 493.933 270.472 493.92C270.386 493.907 270.276 493.9 270.142 493.9C269.856 493.9 269.612 493.96 269.412 494.08C269.219 494.2 269.072 494.367 268.972 494.58C268.879 494.793 268.832 495.037 268.832 495.31V498H267.572Z" fill="white"/>
<path d="M306 498L309.19 490.95H310.27L313.5 498H312.19L311.33 496.02L311.85 496.37H307.62L308.16 496.02L307.3 498H306ZM309.72 492.33L308.31 495.67L308.05 495.36H311.41L311.2 495.67L309.76 492.33H309.72ZM314.18 500.16V494.21C314.18 494.003 314.173 493.793 314.16 493.58C314.147 493.367 314.127 493.157 314.1 492.95H315.31L315.42 494.01H315.31C315.41 493.657 315.62 493.377 315.94 493.17C316.267 492.957 316.643 492.85 317.07 492.85C317.517 492.85 317.907 492.957 318.24 493.17C318.573 493.377 318.833 493.677 319.02 494.07C319.207 494.457 319.3 494.923 319.3 495.47C319.3 496.017 319.207 496.487 319.02 496.88C318.833 497.273 318.573 497.577 318.24 497.79C317.907 497.997 317.517 498.1 317.07 498.1C316.65 498.1 316.28 497.997 315.96 497.79C315.64 497.583 315.427 497.307 315.32 496.96H315.43V500.16H314.18ZM316.72 497.14C317.12 497.14 317.44 497.003 317.68 496.73C317.92 496.45 318.04 496.03 318.04 495.47C318.04 494.91 317.92 494.493 317.68 494.22C317.44 493.947 317.12 493.81 316.72 493.81C316.327 493.81 316.01 493.947 315.77 494.22C315.53 494.493 315.41 494.91 315.41 495.47C315.41 496.03 315.53 496.45 315.77 496.73C316.01 497.003 316.327 497.14 316.72 497.14ZM320.371 498V494.24C320.371 494.027 320.365 493.81 320.351 493.59C320.345 493.37 320.328 493.157 320.301 492.95H321.511L321.651 494.33H321.451C321.518 493.997 321.628 493.72 321.781 493.5C321.941 493.28 322.135 493.117 322.361 493.01C322.588 492.903 322.835 492.85 323.101 492.85C323.221 492.85 323.318 492.857 323.391 492.87C323.465 492.877 323.538 492.893 323.611 492.92L323.601 494.02C323.475 493.967 323.365 493.933 323.271 493.92C323.185 493.907 323.075 493.9 322.941 493.9C322.655 493.9 322.411 493.96 322.211 494.08C322.018 494.2 321.871 494.367 321.771 494.58C321.678 494.793 321.631 495.037 321.631 495.31V498H320.371Z" fill="white"/>
<path d="M363.79 498V490.95H364.92L367.51 496.78H367.2L369.79 490.95H370.91V498H369.74V492.77H370.1L367.73 498H366.96L364.59 492.77H364.96V498H363.79ZM374.331 498.1C373.891 498.1 373.505 497.997 373.171 497.79C372.838 497.577 372.578 497.273 372.391 496.88C372.205 496.487 372.111 496.017 372.111 495.47C372.111 494.923 372.205 494.457 372.391 494.07C372.578 493.677 372.838 493.377 373.171 493.17C373.505 492.957 373.891 492.85 374.331 492.85C374.758 492.85 375.131 492.957 375.451 493.17C375.778 493.377 375.995 493.657 376.101 494.01H375.991L376.101 492.95H377.301C377.281 493.157 377.261 493.367 377.241 493.58C377.228 493.793 377.221 494.003 377.221 494.21V498H375.981L375.971 496.96H376.091C375.985 497.307 375.768 497.583 375.441 497.79C375.115 497.997 374.745 498.1 374.331 498.1ZM374.681 497.14C375.075 497.14 375.391 497.003 375.631 496.73C375.871 496.45 375.991 496.03 375.991 495.47C375.991 494.91 375.871 494.493 375.631 494.22C375.391 493.947 375.075 493.81 374.681 493.81C374.288 493.81 373.971 493.947 373.731 494.22C373.491 494.493 373.371 494.91 373.371 495.47C373.371 496.03 373.488 496.45 373.721 496.73C373.961 497.003 374.281 497.14 374.681 497.14ZM378.434 500.27L378.144 499.28C378.457 499.213 378.72 499.137 378.934 499.05C379.147 498.963 379.324 498.85 379.464 498.71C379.604 498.57 379.72 498.39 379.814 498.17L380.064 497.58L380.034 498.07L377.834 492.95H379.164L380.744 496.89H380.454L382.044 492.95H383.304L381.004 498.28C380.85 498.64 380.684 498.937 380.504 499.17C380.324 499.41 380.13 499.6 379.924 499.74C379.717 499.887 379.49 500 379.244 500.08C378.997 500.16 378.727 500.223 378.434 500.27Z" fill="white"/>
<path d="M423.9 499.87C423.787 499.87 423.65 499.863 423.49 499.85C423.337 499.837 423.18 499.813 423.02 499.78V498.76C423.147 498.787 423.267 498.807 423.38 498.82C423.5 498.833 423.6 498.84 423.68 498.84C423.987 498.84 424.207 498.75 424.34 498.57C424.48 498.39 424.55 498.103 424.55 497.71V490.95H425.84V497.71C425.84 498.19 425.773 498.59 425.64 498.91C425.507 499.23 425.297 499.47 425.01 499.63C424.73 499.79 424.36 499.87 423.9 499.87ZM429.123 498.1C428.503 498.1 428.04 497.93 427.733 497.59C427.426 497.25 427.273 496.73 427.273 496.03V492.95H428.523V496.02C428.523 496.393 428.6 496.67 428.753 496.85C428.906 497.023 429.14 497.11 429.453 497.11C429.806 497.11 430.093 496.99 430.313 496.75C430.54 496.51 430.653 496.193 430.653 495.8V492.95H431.903V498H430.683V496.97H430.823C430.676 497.33 430.453 497.61 430.153 497.81C429.86 498.003 429.516 498.1 429.123 498.1ZM433.26 498V494.21C433.26 494.003 433.253 493.793 433.24 493.58C433.227 493.367 433.207 493.157 433.18 492.95H434.39L434.49 493.95H434.37C434.53 493.597 434.767 493.327 435.08 493.14C435.393 492.947 435.757 492.85 436.17 492.85C436.763 492.85 437.21 493.017 437.51 493.35C437.81 493.683 437.96 494.203 437.96 494.91V498H436.71V494.97C436.71 494.563 436.63 494.273 436.47 494.1C436.317 493.92 436.083 493.83 435.77 493.83C435.383 493.83 435.077 493.95 434.85 494.19C434.623 494.43 434.51 494.75 434.51 495.15V498H433.26Z" fill="white"/>
<path d="M480.9 499.87C480.787 499.87 480.65 499.863 480.49 499.85C480.337 499.837 480.18 499.813 480.02 499.78V498.76C480.147 498.787 480.267 498.807 480.38 498.82C480.5 498.833 480.6 498.84 480.68 498.84C480.987 498.84 481.207 498.75 481.34 498.57C481.48 498.39 481.55 498.103 481.55 497.71V490.95H482.84V497.71C482.84 498.19 482.773 498.59 482.64 498.91C482.507 499.23 482.297 499.47 482.01 499.63C481.73 499.79 481.36 499.87 480.9 499.87ZM486.123 498.1C485.503 498.1 485.04 497.93 484.733 497.59C484.426 497.25 484.273 496.73 484.273 496.03V492.95H485.523V496.02C485.523 496.393 485.6 496.67 485.753 496.85C485.906 497.023 486.14 497.11 486.453 497.11C486.806 497.11 487.093 496.99 487.313 496.75C487.54 496.51 487.653 496.193 487.653 495.8V492.95H488.903V498H487.683V496.97H487.823C487.676 497.33 487.453 497.61 487.153 497.81C486.86 498.003 486.516 498.1 486.123 498.1ZM490.26 498V490.64H491.51V498H490.26Z" fill="white"/>
<path d="M531 498L534.19 490.95H535.27L538.5 498H537.19L536.33 496.02L536.85 496.37H532.62L533.16 496.02L532.3 498H531ZM534.72 492.33L533.31 495.67L533.05 495.36H536.41L536.2 495.67L534.76 492.33H534.72ZM541 498.1C540.38 498.1 539.917 497.93 539.61 497.59C539.303 497.25 539.15 496.73 539.15 496.03V492.95H540.4V496.02C540.4 496.393 540.477 496.67 540.63 496.85C540.783 497.023 541.017 497.11 541.33 497.11C541.683 497.11 541.97 496.99 542.19 496.75C542.417 496.51 542.53 496.193 542.53 495.8V492.95H543.78V498H542.56V496.97H542.7C542.553 497.33 542.33 497.61 542.03 497.81C541.737 498.003 541.393 498.1 541 498.1ZM547.477 500.24C547.01 500.24 546.587 500.19 546.207 500.09C545.834 499.99 545.5 499.837 545.207 499.63L545.477 498.73C545.67 498.857 545.87 498.96 546.077 499.04C546.284 499.12 546.497 499.18 546.717 499.22C546.937 499.26 547.16 499.28 547.387 499.28C547.854 499.28 548.2 499.163 548.427 498.93C548.66 498.703 548.777 498.377 548.777 497.95V496.74H548.877C548.77 497.087 548.554 497.363 548.227 497.57C547.907 497.777 547.537 497.88 547.117 497.88C546.664 497.88 546.267 497.78 545.927 497.58C545.594 497.373 545.334 497.08 545.147 496.7C544.96 496.32 544.867 495.873 544.867 495.36C544.867 494.847 544.96 494.403 545.147 494.03C545.334 493.65 545.594 493.36 545.927 493.16C546.267 492.953 546.664 492.85 547.117 492.85C547.544 492.85 547.914 492.953 548.227 493.16C548.547 493.36 548.76 493.633 548.867 493.98L548.777 493.92L548.877 492.95H550.087C550.06 493.157 550.04 493.367 550.027 493.58C550.014 493.793 550.007 494.003 550.007 494.21V497.8C550.007 498.593 549.79 499.197 549.357 499.61C548.93 500.03 548.304 500.24 547.477 500.24ZM547.457 496.92C547.857 496.92 548.174 496.787 548.407 496.52C548.647 496.247 548.767 495.86 548.767 495.36C548.767 494.86 548.647 494.477 548.407 494.21C548.174 493.943 547.857 493.81 547.457 493.81C547.05 493.81 546.727 493.943 546.487 494.21C546.247 494.477 546.127 494.86 546.127 495.36C546.127 495.86 546.247 496.247 546.487 496.52C546.727 496.787 547.05 496.92 547.457 496.92Z" fill="white"/>
<path d="M594.24 498.1C593.673 498.1 593.15 498.03 592.67 497.89C592.197 497.743 591.79 497.543 591.45 497.29L591.85 496.28C592.077 496.44 592.313 496.577 592.56 496.69C592.807 496.797 593.07 496.88 593.35 496.94C593.63 496.993 593.927 497.02 594.24 497.02C594.767 497.02 595.147 496.933 595.38 496.76C595.613 496.587 595.73 496.36 595.73 496.08C595.73 495.833 595.65 495.647 595.49 495.52C595.33 495.387 595.043 495.277 594.63 495.19L593.5 494.96C592.853 494.827 592.37 494.603 592.05 494.29C591.73 493.977 591.57 493.557 591.57 493.03C591.57 492.59 591.687 492.207 591.92 491.88C592.153 491.553 592.48 491.3 592.9 491.12C593.32 490.94 593.81 490.85 594.37 490.85C594.87 490.85 595.333 490.923 595.76 491.07C596.187 491.21 596.543 491.413 596.83 491.68L596.43 492.64C596.143 492.4 595.83 492.223 595.49 492.11C595.15 491.99 594.77 491.93 594.35 491.93C593.877 491.93 593.507 492.023 593.24 492.21C592.98 492.39 592.85 492.64 592.85 492.96C592.85 493.207 592.93 493.403 593.09 493.55C593.257 493.697 593.537 493.81 593.93 493.89L595.05 494.11C595.717 494.243 596.21 494.463 596.53 494.77C596.85 495.07 597.01 495.477 597.01 495.99C597.01 496.41 596.897 496.78 596.67 497.1C596.443 497.413 596.123 497.66 595.71 497.84C595.297 498.013 594.807 498.1 594.24 498.1ZM600.565 498.1C599.719 498.1 599.055 497.867 598.575 497.4C598.095 496.933 597.855 496.293 597.855 495.48C597.855 494.953 597.959 494.493 598.165 494.1C598.372 493.707 598.659 493.4 599.025 493.18C599.399 492.96 599.832 492.85 600.325 492.85C600.812 492.85 601.219 492.953 601.545 493.16C601.872 493.367 602.119 493.657 602.285 494.03C602.459 494.403 602.545 494.84 602.545 495.34V495.67H598.865V495.01H601.655L601.485 495.15C601.485 494.683 601.385 494.327 601.185 494.08C600.992 493.833 600.709 493.71 600.335 493.71C599.922 493.71 599.602 493.857 599.375 494.15C599.155 494.443 599.045 494.853 599.045 495.38V495.51C599.045 496.057 599.179 496.467 599.445 496.74C599.719 497.007 600.102 497.14 600.595 497.14C600.882 497.14 601.149 497.103 601.395 497.03C601.649 496.95 601.889 496.823 602.115 496.65L602.485 497.49C602.245 497.683 601.959 497.833 601.625 497.94C601.292 498.047 600.939 498.1 600.565 498.1ZM603.604 500.16V494.21C603.604 494.003 603.597 493.793 603.584 493.58C603.57 493.367 603.55 493.157 603.524 492.95H604.734L604.844 494.01H604.734C604.834 493.657 605.044 493.377 605.364 493.17C605.69 492.957 606.067 492.85 606.494 492.85C606.94 492.85 607.33 492.957 607.664 493.17C607.997 493.377 608.257 493.677 608.444 494.07C608.63 494.457 608.724 494.923 608.724 495.47C608.724 496.017 608.63 496.487 608.444 496.88C608.257 497.273 607.997 497.577 607.664 497.79C607.33 497.997 606.94 498.1 606.494 498.1C606.074 498.1 605.704 497.997 605.384 497.79C605.064 497.583 604.85 497.307 604.744 496.96H604.854V500.16H603.604ZM606.144 497.14C606.544 497.14 606.864 497.003 607.104 496.73C607.344 496.45 607.464 496.03 607.464 495.47C607.464 494.91 607.344 494.493 607.104 494.22C606.864 493.947 606.544 493.81 606.144 493.81C605.75 493.81 605.434 493.947 605.194 494.22C604.954 494.493 604.834 494.91 604.834 495.47C604.834 496.03 604.954 496.45 605.194 496.73C605.434 497.003 605.75 497.14 606.144 497.14Z" fill="white"/>
<path d="M648.55 494.47C648.55 493.73 648.683 493.09 648.95 492.55C649.223 492.01 649.613 491.593 650.12 491.3C650.627 491 651.23 490.85 651.93 490.85C652.623 490.85 653.223 491 653.73 491.3C654.237 491.593 654.627 492.01 654.9 492.55C655.18 493.09 655.32 493.727 655.32 494.46C655.32 495.2 655.18 495.843 654.9 496.39C654.627 496.93 654.237 497.35 653.73 497.65C653.223 497.95 652.623 498.1 651.93 498.1C651.23 498.1 650.627 497.95 650.12 497.65C649.62 497.35 649.233 496.93 648.96 496.39C648.687 495.843 648.55 495.203 648.55 494.47ZM649.9 494.47C649.9 495.263 650.07 495.883 650.41 496.33C650.75 496.777 651.257 497 651.93 497C652.583 497 653.087 496.777 653.44 496.33C653.793 495.883 653.97 495.263 653.97 494.47C653.97 493.67 653.793 493.05 653.44 492.61C653.093 492.17 652.59 491.95 651.93 491.95C651.257 491.95 650.75 492.17 650.41 492.61C650.07 493.05 649.9 493.67 649.9 494.47ZM658.871 498.1C658.351 498.1 657.894 497.993 657.501 497.78C657.114 497.567 656.814 497.263 656.601 496.87C656.388 496.47 656.281 495.997 656.281 495.45C656.281 494.903 656.388 494.437 656.601 494.05C656.821 493.663 657.124 493.367 657.511 493.16C657.898 492.953 658.351 492.85 658.871 492.85C659.204 492.85 659.528 492.903 659.841 493.01C660.161 493.11 660.421 493.257 660.621 493.45L660.241 494.32C660.061 494.153 659.858 494.03 659.631 493.95C659.411 493.863 659.194 493.82 658.981 493.82C658.534 493.82 658.184 493.96 657.931 494.24C657.684 494.52 657.561 494.927 657.561 495.46C657.561 495.993 657.684 496.403 657.931 496.69C658.184 496.977 658.534 497.12 658.981 497.12C659.188 497.12 659.401 497.08 659.621 497C659.848 496.92 660.054 496.797 660.241 496.63L660.621 497.49C660.414 497.683 660.151 497.833 659.831 497.94C659.518 498.047 659.198 498.1 658.871 498.1ZM663.77 498.1C663.17 498.1 662.716 497.943 662.41 497.63C662.103 497.317 661.95 496.847 661.95 496.22V493.89H660.98V492.95H661.95V491.66L663.2 491.34V492.95H664.55V493.89H663.2V496.14C663.2 496.487 663.266 496.73 663.4 496.87C663.533 497.01 663.716 497.08 663.95 497.08C664.076 497.08 664.183 497.07 664.27 497.05C664.363 497.03 664.453 497.003 664.54 496.97V497.96C664.426 498.007 664.3 498.04 664.16 498.06C664.026 498.087 663.896 498.1 663.77 498.1Z" fill="white"/>
<path d="M704.78 498V490.95H705.75L709.84 496.24H709.58V490.95H710.78V498H709.81L705.73 492.71H705.98V498H704.78ZM714.509 498.1C713.989 498.1 713.539 497.993 713.159 497.78C712.779 497.567 712.482 497.263 712.269 496.87C712.062 496.477 711.959 496.01 711.959 495.47C711.959 494.93 712.062 494.467 712.269 494.08C712.482 493.687 712.779 493.383 713.159 493.17C713.539 492.957 713.989 492.85 714.509 492.85C715.029 492.85 715.479 492.957 715.859 493.17C716.245 493.383 716.542 493.687 716.749 494.08C716.962 494.467 717.069 494.93 717.069 495.47C717.069 496.01 716.962 496.477 716.749 496.87C716.542 497.263 716.245 497.567 715.859 497.78C715.479 497.993 715.029 498.1 714.509 498.1ZM714.509 497.14C714.902 497.14 715.215 497.003 715.449 496.73C715.682 496.45 715.799 496.03 715.799 495.47C715.799 494.91 715.682 494.493 715.449 494.22C715.215 493.947 714.902 493.81 714.509 493.81C714.115 493.81 713.802 493.947 713.569 494.22C713.335 494.493 713.219 494.91 713.219 495.47C713.219 496.03 713.335 496.45 713.569 496.73C713.802 497.003 714.115 497.14 714.509 497.14ZM719.529 498L717.349 492.95H718.679L720.259 496.9H719.949L721.569 492.95H722.819L720.629 498H719.529Z" fill="white"/>
<path d="M759.78 498V490.95H762.34C763.147 490.95 763.827 491.09 764.38 491.37C764.94 491.643 765.363 492.043 765.65 492.57C765.937 493.09 766.08 493.723 766.08 494.47C766.08 495.21 765.937 495.843 765.65 496.37C765.363 496.897 764.94 497.3 764.38 497.58C763.827 497.86 763.147 498 762.34 498H759.78ZM761.07 496.93H762.26C763.113 496.93 763.747 496.727 764.16 496.32C764.573 495.913 764.78 495.297 764.78 494.47C764.78 493.637 764.573 493.02 764.16 492.62C763.747 492.213 763.113 492.01 762.26 492.01H761.07V496.93ZM769.737 498.1C768.891 498.1 768.227 497.867 767.747 497.4C767.267 496.933 767.027 496.293 767.027 495.48C767.027 494.953 767.131 494.493 767.337 494.1C767.544 493.707 767.831 493.4 768.197 493.18C768.571 492.96 769.004 492.85 769.497 492.85C769.984 492.85 770.391 492.953 770.717 493.16C771.044 493.367 771.291 493.657 771.457 494.03C771.631 494.403 771.717 494.84 771.717 495.34V495.67H768.037V495.01H770.827L770.657 495.15C770.657 494.683 770.557 494.327 770.357 494.08C770.164 493.833 769.881 493.71 769.507 493.71C769.094 493.71 768.774 493.857 768.547 494.15C768.327 494.443 768.217 494.853 768.217 495.38V495.51C768.217 496.057 768.351 496.467 768.617 496.74C768.891 497.007 769.274 497.14 769.767 497.14C770.054 497.14 770.321 497.103 770.567 497.03C770.821 496.95 771.061 496.823 771.287 496.65L771.657 497.49C771.417 497.683 771.131 497.833 770.797 497.94C770.464 498.047 770.111 498.1 769.737 498.1ZM775.096 498.1C774.576 498.1 774.119 497.993 773.726 497.78C773.339 497.567 773.039 497.263 772.826 496.87C772.612 496.47 772.506 495.997 772.506 495.45C772.506 494.903 772.612 494.437 772.826 494.05C773.046 493.663 773.349 493.367 773.736 493.16C774.122 492.953 774.576 492.85 775.096 492.85C775.429 492.85 775.752 492.903 776.066 493.01C776.386 493.11 776.646 493.257 776.846 493.45L776.466 494.32C776.286 494.153 776.082 494.03 775.856 493.95C775.636 493.863 775.419 493.82 775.206 493.82C774.759 493.82 774.409 493.96 774.156 494.24C773.909 494.52 773.786 494.927 773.786 495.46C773.786 495.993 773.909 496.403 774.156 496.69C774.409 496.977 774.759 497.12 775.206 497.12C775.412 497.12 775.626 497.08 775.846 497C776.072 496.92 776.279 496.797 776.466 496.63L776.846 497.49C776.639 497.683 776.376 497.833 776.056 497.94C775.742 498.047 775.422 498.1 775.096 498.1Z" fill="white"/>
<g filter="url(#filter2_d_1858_2)">
<circle cx="800.5" cy="230.5" r="12.5" fill="white"/>
<circle cx="800.5" cy="230.5" r="12" stroke="#05B7FD"/>
</g>
<path d="M793 217.1C792.173 217.1 791.527 216.923 791.06 216.57C790.6 216.217 790.37 215.727 790.37 215.1C790.37 214.607 790.52 214.197 790.82 213.87C791.12 213.543 791.51 213.35 791.99 213.29V213.5C791.557 213.407 791.207 213.203 790.94 212.89C790.68 212.577 790.55 212.197 790.55 211.75C790.55 211.157 790.767 210.693 791.2 210.36C791.64 210.02 792.24 209.85 793 209.85C793.767 209.85 794.367 210.02 794.8 210.36C795.24 210.693 795.46 211.157 795.46 211.75C795.46 212.197 795.333 212.58 795.08 212.9C794.833 213.22 794.497 213.417 794.07 213.49V213.29C794.543 213.357 794.923 213.553 795.21 213.88C795.497 214.2 795.64 214.607 795.64 215.1C795.64 215.727 795.407 216.217 794.94 216.57C794.48 216.923 793.833 217.1 793 217.1ZM793 216.1C793.487 216.1 793.85 216.01 794.09 215.83C794.33 215.643 794.45 215.37 794.45 215.01C794.45 214.65 794.33 214.38 794.09 214.2C793.85 214.02 793.487 213.93 793 213.93C792.52 213.93 792.157 214.02 791.91 214.2C791.67 214.38 791.55 214.65 791.55 215.01C791.55 215.37 791.67 215.643 791.91 215.83C792.157 216.01 792.52 216.1 793 216.1ZM793 212.93C793.413 212.93 793.727 212.837 793.94 212.65C794.16 212.463 794.27 212.207 794.27 211.88C794.27 211.56 794.16 211.31 793.94 211.13C793.727 210.943 793.413 210.85 793 210.85C792.593 210.85 792.28 210.943 792.06 211.13C791.847 211.31 791.74 211.56 791.74 211.88C791.74 212.207 791.847 212.463 792.06 212.65C792.28 212.837 792.593 212.93 793 212.93ZM798.996 217.1C798.169 217.1 797.533 216.787 797.086 216.16C796.639 215.527 796.416 214.627 796.416 213.46C796.416 212.28 796.639 211.383 797.086 210.77C797.533 210.157 798.169 209.85 798.996 209.85C799.829 209.85 800.466 210.157 800.906 210.77C801.353 211.383 801.576 212.277 801.576 213.45C801.576 214.623 801.353 215.527 800.906 216.16C800.466 216.787 799.829 217.1 798.996 217.1ZM798.996 216.04C799.449 216.04 799.786 215.833 800.006 215.42C800.226 215 800.336 214.343 800.336 213.45C800.336 212.557 800.226 211.91 800.006 211.51C799.786 211.103 799.449 210.9 798.996 210.9C798.549 210.9 798.213 211.103 797.986 211.51C797.766 211.91 797.656 212.557 797.656 213.45C797.656 214.343 797.766 215 797.986 215.42C798.213 215.833 798.549 216.04 798.996 216.04ZM805.516 217V209.95H806.806V213.07H806.826L809.896 209.95H811.456L807.776 213.62L807.786 213.06L811.696 217H810.086L806.826 213.74H806.806V217H805.516Z" fill="white"/>
<defs>
<filter id="filter0_d_1858_2" x="0" y="0" width="911" height="589" filterUnits="userSpaceOnUse" color-interpolation-filters="sRGB">
<feFlood flood-opacity="0" result="BackgroundImageFix"/>
<feColorMatrix in="SourceAlpha" type="matrix" values="0 0 0 0 0 0 0 0 0 0 0 0 0 0 0 0 0 0 127 0" result="hardAlpha"/>
<feOffset dx="2" dy="2"/>
<feGaussianBlur stdDeviation="10"/>
<feComposite in2="hardAlpha" operator="out"/>
<feColorMatrix type="matrix" values="0 0 0 0 0 0 0 0 0 0 0 0 0 0 0 0 0 0 0.25 0"/>
<feBlend mode="normal" in2="BackgroundImageFix" result="effect1_dropShadow_1858_2"/>
<feBlend mode="normal" in="SourceGraphic" in2="effect1_dropShadow_1858_2" result="shape"/>
</filter>
<filter id="filter1_d_1858_2" x="118.665" y="228.849" width="687.812" height="149.918" filterUnits="userSpaceOnUse" color-interpolation-filters="sRGB">
<feFlood flood-opacity="0" result="BackgroundImageFix"/>
<feColorMatrix in="SourceAlpha" type="matrix" values="0 0 0 0 0 0 0 0 0 0 0 0 0 0 0 0 0 0 127 0" result="hardAlpha"/>
<feOffset dx="2" dy="2"/>
<feGaussianBlur stdDeviation="2"/>
<feComposite in2="hardAlpha" operator="out"/>
<feColorMatrix type="matrix" values="0 0 0 0 0 0 0 0 0 0 0 0 0 0 0 0 0 0 0.25 0"/>
<feBlend mode="normal" in2="BackgroundImageFix" result="effect1_dropShadow_1858_2"/>
<feBlend mode="normal" in="SourceGraphic" in2="effect1_dropShadow_1858_2" result="shape"/>
</filter>
<filter id="filter2_d_1858_2" x="782" y="212" width="45" height="45" filterUnits="userSpaceOnUse" color-interpolation-filters="sRGB">
<feFlood flood-opacity="0" result="BackgroundImageFix"/>
<feColorMatrix in="SourceAlpha" type="matrix" values="0 0 0 0 0 0 0 0 0 0 0 0 0 0 0 0 0 0 127 0" result="hardAlpha"/>
<feOffset dx="4" dy="4"/>
<feGaussianBlur stdDeviation="5"/>
<feComposite in2="hardAlpha" operator="out"/>
<feColorMatrix type="matrix" values="0 0 0 0 0 0 0 0 0 0 0 0 0 0 0 0 0 0 0.25 0"/>
<feBlend mode="normal" in2="BackgroundImageFix" result="effect1_dropShadow_1858_2"/>
<feBlend mode="normal" in="SourceGraphic" in2="effect1_dropShadow_1858_2" result="shape"/>
</filter>
<linearGradient id="paint0_linear_1858_2" x1="800" y1="163" x2="800" y2="471" gradientUnits="userSpaceOnUse">
<stop stop-color="white"/>
<stop offset="1" stop-color="white" stop-opacity="0"/>
</linearGradient>
</defs>
</svg>
