<svg width="222" height="64" viewBox="0 0 222 64" fill="none" xmlns="http://www.w3.org/2000/svg">
<rect width="221.301" height="64" rx="10" fill="#3360E9"/>
<g clip-path="url(#clip0_1673_469)">
<path d="M35.3437 19.2078C35.3437 19.2078 29.8168 17.0198 26.3877 21.5618C24.7447 23.7351 24.1652 26.5688 24.8217 29.2143C25.2178 30.8083 26.0906 32.5351 27.9464 33.6531C29.087 34.3393 30.1652 35.1253 31.1078 36.0661C33.8254 38.7855 38.1274 44.1171 37.0601 49.7993C37.0601 49.7993 36.1506 45.379 24.664 37.6896C23.2043 36.7118 21.8987 35.5053 20.8681 34.0774C18.8803 31.3248 17.0172 26.8381 20.2886 21.7279C20.2886 21.7279 26.329 12.6696 35.3437 19.2078Z" fill="white"/>
<path d="M38.1089 20.1821C38.1089 20.1821 44.8277 13.2381 50.8388 16.8651C53.0429 18.1971 54.3926 20.5769 54.6163 23.1561C54.8694 26.0562 54.4146 30.41 50.549 33.9632C50.549 33.9632 39.9536 43.955 40.5148 51.7957C40.5148 51.7957 42.7263 46.6743 47.0062 42.7927C47.2483 42.5751 47.4977 42.3684 47.7507 42.1618C49.6432 40.6269 59.263 32.5501 61.2948 25.6614C61.3535 25.4695 61.4048 25.274 61.4672 25.0821C61.9366 23.573 64.2875 14.393 53.3474 11.2862C50.3033 10.4228 47.0246 10.6774 44.2519 12.2087C41.9084 13.5001 39.4989 15.8652 38.1089 20.1821Z" fill="white"/>
<path d="M77.6006 46.8441C74.2668 56.7178 58.1408 51.1574 58.1408 51.1574C49.9036 47.8957 40.5625 53.2089 40.5625 53.2089C40.5625 53.2089 42.6346 45.1764 58.0601 46.7814C59.9012 46.9733 61.713 47.3459 63.4954 47.833C66.246 48.5857 72.2937 49.6963 77.6006 46.8441Z" fill="white"/>
<path d="M39.5758 37.2696C34.9438 37.2696 31.1736 33.4765 31.1736 28.8164C31.1736 24.1563 34.9438 20.3633 39.5758 20.3633C44.2079 20.3633 47.9817 24.1526 47.9817 28.8127C47.9817 33.4729 44.2115 37.2696 39.5758 37.2696ZM39.5758 21.8539C35.7616 21.8539 32.6589 24.9754 32.6589 28.8127C32.6589 32.65 35.7616 35.7716 39.5758 35.7716C43.39 35.7716 46.4927 32.65 46.4927 28.8127C46.4927 24.9754 43.39 21.8539 39.5758 21.8539Z" fill="white"/>
<path d="M39.5759 33.6133C36.9463 33.6133 34.8044 31.4622 34.8044 28.813C34.8044 26.1675 36.9426 24.0127 39.5759 24.0127C42.2055 24.0127 44.3473 26.1638 44.3473 28.813C44.3473 31.4622 42.2091 33.6133 39.5759 33.6133ZM39.5759 25.5107C37.7641 25.5107 36.2898 26.994 36.2898 28.8167C36.2898 30.6394 37.7641 32.1227 39.5759 32.1227C41.3876 32.1227 42.8619 30.6394 42.8619 28.8167C42.8619 26.9903 41.3876 25.5107 39.5759 25.5107Z" fill="white"/>
<path d="M39.8619 29.9708L38.1638 28.4322C37.8594 28.1555 37.8338 27.6832 38.1088 27.3769C38.3839 27.0707 38.8533 27.0449 39.1577 27.3216L40.181 28.2477C40.3423 28.3953 40.5844 28.4064 40.7604 28.2809L49.9328 21.6911C50.2666 21.4512 50.7287 21.5287 50.9671 21.8645C51.2055 22.2003 51.1284 22.6652 50.7947 22.905L40.8888 30.0262C40.577 30.2549 40.1479 30.2291 39.8619 29.9708Z" fill="white"/>
<path d="M39.5758 45.2019C39.165 45.2019 38.8313 44.8662 38.8313 44.4529V32.8672H40.3166V44.4566C40.3203 44.8662 39.9866 45.2019 39.5758 45.2019Z" fill="white"/>
<path d="M67.57 29.7055C67.5003 29.5542 67.4673 29.3993 67.4673 29.2443C67.4673 29.0893 67.5003 28.9417 67.5663 28.8052C67.6323 28.6687 67.724 28.5432 67.8414 28.4289C67.9587 28.3182 68.0981 28.2333 68.2595 28.1743C68.4208 28.1152 68.5712 28.0857 68.7179 28.0857C68.9636 28.0857 69.1873 28.1484 69.3891 28.2702C69.5908 28.392 69.7448 28.5691 69.8548 28.8015L73.9551 37.8745L78.0444 28.8015C78.1434 28.5765 78.2974 28.403 78.5028 28.2739C78.7082 28.1484 78.9356 28.082 79.1776 28.082C79.3243 28.082 79.4747 28.1115 79.636 28.1706C79.7974 28.2296 79.9331 28.3108 80.0505 28.4215C80.1642 28.5285 80.2522 28.6539 80.3145 28.7905C80.3769 28.927 80.4062 29.0746 80.4136 29.2295C80.4172 29.3845 80.3842 29.5395 80.3145 29.6907L75.0884 41.2506C74.982 41.4831 74.8243 41.6602 74.6116 41.7893C74.4025 41.9148 74.1751 41.9812 73.9294 41.9812C73.8597 41.9812 73.8084 41.9775 73.768 41.9701C73.7607 41.9701 73.7534 41.9701 73.746 41.9664C73.7387 41.9628 73.7277 41.9628 73.713 41.9628L73.5993 41.9295C73.4233 41.8853 73.2656 41.8078 73.1299 41.6971C72.9905 41.5864 72.8805 41.4388 72.7962 41.258L67.57 29.7055Z" fill="white"/>
<path d="M89.1679 39.3217H82.614L81.7558 41.2772C81.6495 41.5097 81.4954 41.6831 81.2901 41.8049C81.0884 41.9229 80.8646 41.9857 80.6189 41.9857C80.4502 41.9857 80.2705 41.9488 80.0798 41.8787C79.9111 41.8122 79.7754 41.7237 79.669 41.613C79.5627 41.4986 79.482 41.3769 79.4343 41.2366C79.383 41.1001 79.3646 40.9488 79.3756 40.7902C79.3866 40.6315 79.427 40.4766 79.4967 40.3216L84.7338 28.7949C84.8402 28.5625 84.9942 28.3853 85.1923 28.2636C85.3903 28.1418 85.6214 28.0791 85.8818 28.0791C86.1275 28.0791 86.3475 28.1418 86.5456 28.2636C86.7436 28.3853 86.8977 28.5588 87.004 28.7838L92.2742 40.3216C92.4136 40.6241 92.4319 40.9267 92.3366 41.2219C92.2412 41.5208 92.0322 41.7384 91.7131 41.875C91.5517 41.9488 91.3757 41.982 91.185 41.982C90.9393 41.982 90.7155 41.9192 90.5102 41.7975C90.3048 41.6757 90.1471 41.4986 90.0407 41.2772L89.1679 39.3217ZM83.6116 36.9639H88.1373L85.8928 31.8463L83.6116 36.9639Z" fill="white"/>
<path d="M97.2805 40.8195C97.2805 40.9781 97.2475 41.1294 97.1815 41.277C97.1155 41.4209 97.0275 41.5464 96.9138 41.646C96.8001 41.7493 96.668 41.8305 96.5177 41.8895C96.3673 41.9522 96.2059 41.9817 96.0299 41.9817C95.8612 41.9817 95.6998 41.9522 95.5495 41.8895C95.3991 41.8268 95.2634 41.7456 95.1534 41.646C95.0433 41.5464 94.9553 41.4209 94.8893 41.277C94.8233 41.1331 94.7903 40.9818 94.7903 40.8195V29.2375C94.7903 29.0714 94.8233 28.9165 94.8893 28.7762C94.9553 28.636 95.0433 28.5106 95.1534 28.4073C95.2634 28.304 95.3954 28.2228 95.5495 28.1637C95.7035 28.1047 95.8612 28.0752 96.0299 28.0752C96.2059 28.0752 96.3673 28.1047 96.5177 28.1637C96.668 28.2228 96.8001 28.304 96.9138 28.4073C97.0275 28.5143 97.1191 28.636 97.1815 28.7762C97.2475 28.9165 97.2805 29.0714 97.2805 29.2375V40.8195Z" fill="white"/>
<path d="M101.784 28.544C101.784 28.4075 101.832 28.2931 101.927 28.2082C102.023 28.1197 102.14 28.0791 102.276 28.0791H106.504C107.223 28.0791 107.898 28.2009 108.532 28.4444C109.167 28.6879 109.717 29.0237 110.186 29.448C110.656 29.876 111.03 30.3815 111.305 30.9645C111.58 31.5474 111.716 32.1784 111.716 32.861C111.716 33.3886 111.631 33.883 111.463 34.3369C111.294 34.7944 111.059 35.204 110.759 35.5692C110.458 35.9345 110.098 36.2518 109.68 36.5212C109.262 36.7905 108.807 37.0008 108.312 37.1521L111.499 41.1628C111.613 41.2699 111.664 41.3953 111.65 41.5392C111.635 41.6794 111.569 41.7901 111.455 41.8713C111.364 41.9377 111.265 41.9709 111.158 41.9709C111.019 41.9709 110.902 41.9229 110.803 41.8307L107.238 37.3772C107.109 37.392 106.981 37.403 106.853 37.4104C106.724 37.4178 106.6 37.4215 106.468 37.4215H102.767V41.5281C102.767 41.6573 102.719 41.768 102.624 41.8602C102.529 41.9524 102.411 41.9967 102.276 41.9967C102.14 41.9967 102.023 41.9524 101.927 41.8602C101.832 41.768 101.784 41.661 101.784 41.5281V28.544ZM102.767 29.02V36.4732H106.479C107.098 36.4732 107.667 36.381 108.184 36.1965C108.701 36.012 109.149 35.7574 109.526 35.429C109.9 35.1043 110.194 34.7206 110.403 34.2778C110.612 33.8351 110.718 33.3628 110.718 32.8536C110.718 32.3407 110.616 31.8537 110.41 31.3925C110.205 30.9313 109.915 30.5254 109.545 30.1712C109.174 29.817 108.73 29.5365 108.217 29.3299C107.7 29.1233 107.139 29.02 106.526 29.02H102.767Z" fill="white"/>
<path d="M116.311 41.5134C116.311 41.6425 116.263 41.7532 116.168 41.8454C116.073 41.9377 115.955 41.982 115.82 41.982C115.684 41.982 115.567 41.9377 115.471 41.8454C115.376 41.7532 115.328 41.6462 115.328 41.5134V28.544C115.328 28.4075 115.376 28.2931 115.471 28.2082C115.567 28.1197 115.684 28.0791 115.82 28.0791C115.955 28.0791 116.073 28.1234 116.168 28.2082C116.263 28.2968 116.311 28.4075 116.311 28.544V41.5134Z" fill="white"/>
<path d="M129.635 28.0752C129.764 28.0752 129.881 28.1195 129.98 28.2043C130.079 28.2929 130.13 28.4036 130.13 28.5401C130.13 28.684 130.083 28.8021 129.987 28.8869C129.892 28.9755 129.775 29.0161 129.639 29.0161H121.721V35.1668H127.897C128.051 35.1668 128.172 35.2148 128.264 35.3144C128.355 35.4104 128.403 35.5247 128.403 35.6576C128.403 35.7793 128.355 35.8863 128.264 35.9786C128.172 36.0708 128.051 36.1151 127.897 36.1151H121.721V41.5132C121.721 41.6497 121.673 41.7641 121.578 41.8489C121.482 41.9375 121.365 41.9781 121.229 41.9781C121.083 41.9781 120.965 41.9338 120.873 41.8415C120.782 41.7493 120.738 41.6423 120.738 41.5095V28.5327C120.738 28.4294 120.774 28.3298 120.851 28.2265C120.929 28.1269 121.053 28.0752 121.229 28.0752H129.635Z" fill="white"/>
<path d="M138.551 34.617L143.913 28.2411C144.012 28.1378 144.133 28.0898 144.279 28.0898C144.4 28.0898 144.496 28.1194 144.565 28.1784C144.672 28.2522 144.741 28.3518 144.771 28.4773C144.8 28.6027 144.76 28.7392 144.646 28.8831L139.053 35.4435V41.5167C139.053 41.6459 139.002 41.7566 138.903 41.8488C138.804 41.9411 138.686 41.9853 138.547 41.9853C138.419 41.9853 138.301 41.9411 138.202 41.8488C138.103 41.7566 138.052 41.6496 138.052 41.5167V35.4398L132.404 28.8794C132.312 28.7761 132.268 28.6618 132.279 28.5326C132.287 28.4035 132.349 28.2891 132.463 28.1968C132.547 28.1231 132.65 28.0898 132.771 28.0898C132.84 28.0898 132.91 28.1046 132.976 28.1341C133.046 28.1636 133.101 28.2079 133.148 28.2633L138.551 34.617Z" fill="white"/>
<path d="M147.694 39.96H148.746V41.9819H147.694V39.96Z" fill="white"/>
<path d="M152.861 28.544C152.861 28.4075 152.909 28.2931 153.004 28.2082C153.1 28.1197 153.217 28.0791 153.353 28.0791H157.636C158.315 28.0791 158.968 28.164 159.595 28.33C160.222 28.496 160.809 28.7322 161.355 29.0347C161.902 29.3373 162.4 29.7063 162.852 30.1306C163.303 30.5549 163.688 31.0309 164.011 31.5474C164.333 32.064 164.579 32.6211 164.755 33.2152C164.931 33.8092 165.019 34.4254 165.019 35.0637C165.019 36.0194 164.825 36.9197 164.436 37.7572C164.047 38.5948 163.519 39.3291 162.848 39.9563C162.177 40.5836 161.399 41.078 160.504 41.4396C159.61 41.8012 158.656 41.982 157.64 41.982H153.356C153.217 41.982 153.103 41.9377 153.008 41.8454C152.913 41.7532 152.865 41.6462 152.865 41.5134V28.544H152.861ZM153.844 29.02V41.0374H157.625C158.564 41.0374 159.43 40.8677 160.215 40.5319C161.003 40.1961 161.678 39.746 162.243 39.1888C162.808 38.6317 163.248 37.9934 163.559 37.2776C163.871 36.5618 164.029 35.8238 164.029 35.0711C164.029 34.5656 163.959 34.0638 163.816 33.5731C163.677 33.0824 163.471 32.6101 163.204 32.1599C162.936 31.7098 162.613 31.2965 162.235 30.9091C161.858 30.5254 161.432 30.1933 160.959 29.9166C160.486 29.6362 159.969 29.4185 159.411 29.2598C158.854 29.1012 158.264 29.02 157.636 29.02H153.844Z" fill="white"/>
<path d="M176.143 38.4947H168.133L166.688 41.7011C166.651 41.797 166.589 41.8672 166.505 41.9114C166.42 41.9594 166.329 41.9815 166.23 41.9815C166.16 41.9815 166.09 41.9705 166.024 41.9483C165.896 41.8893 165.808 41.8007 165.76 41.6827C165.712 41.5646 165.723 41.4428 165.782 41.3174L171.672 28.3554C171.771 28.1672 171.929 28.0713 172.142 28.0713C172.354 28.0713 172.505 28.1672 172.589 28.3554L178.49 41.3285C178.545 41.4502 178.552 41.572 178.512 41.6864C178.475 41.8007 178.395 41.8893 178.27 41.9483C178.208 41.9778 178.138 41.9926 178.054 41.9926C177.841 41.9926 177.683 41.9004 177.584 41.7085L176.143 38.4947ZM168.533 37.5502H175.728L172.142 29.5767L168.533 37.5502Z" fill="white"/>
<path d="M184.277 29.0198V41.5021C184.277 41.6312 184.229 41.7456 184.134 41.8378C184.039 41.9301 183.918 41.9781 183.775 41.9781C183.632 41.9781 183.511 41.9301 183.419 41.8378C183.327 41.7456 183.283 41.6312 183.283 41.5021V29.0198H178.607C178.471 29.0198 178.35 28.9718 178.251 28.8796C178.152 28.7873 178.101 28.6729 178.101 28.5438C178.101 28.4146 178.149 28.304 178.251 28.2117C178.35 28.1195 178.468 28.0752 178.607 28.0752H188.953C189.107 28.0752 189.228 28.1232 189.32 28.2154C189.412 28.3113 189.456 28.422 189.456 28.5512C189.456 28.6877 189.412 28.8021 189.32 28.8869C189.228 28.9755 189.107 29.0161 188.953 29.0161H184.277V29.0198Z" fill="white"/>
<path d="M192.514 41.9817C192.368 41.967 192.258 41.9116 192.177 41.8194C192.096 41.7272 192.056 41.6128 192.056 41.4836V28.5438C192.056 28.3999 192.107 28.2855 192.21 28.2006C192.313 28.1158 192.434 28.0752 192.569 28.0752H201.529C201.668 28.0752 201.782 28.1195 201.877 28.2043C201.973 28.2892 202.021 28.4036 202.021 28.5401C202.021 28.6692 201.973 28.7836 201.877 28.8759C201.782 28.9681 201.665 29.0161 201.529 29.0161H193.042V34.4104H199.446C199.593 34.4031 199.71 34.4473 199.802 34.547C199.893 34.6429 199.941 34.7573 199.941 34.8901C199.941 35.0192 199.893 35.1299 199.802 35.2148C199.71 35.2997 199.593 35.3439 199.446 35.3439H193.042V41.0372H201.533C201.672 41.0372 201.786 41.0815 201.881 41.1737C201.977 41.2659 202.024 41.3729 202.024 41.5058C202.024 41.6423 201.977 41.7604 201.881 41.8526C201.786 41.9485 201.668 41.9891 201.533 41.9817H192.514Z" fill="white"/>
<path d="M82.933 49.2983L82.3242 45.3613H82.8927L83.1494 47.1398L83.3071 48.3943H83.3218L83.4575 47.1398L83.6702 45.3613H84.2277L83.6702 49.2983H82.933Z" fill="white"/>
<path d="M84.8953 49.2988V48.749H85.394V49.2988H84.8953Z" fill="white"/>
<path d="M86.2668 49.2983L86.8243 45.3613H87.6128L88.207 49.2983H87.6495L87.5578 48.5972H86.927L86.8426 49.2983H86.2668ZM86.982 48.1139H87.4918L87.2314 46.1362H87.2241L86.982 48.1139Z" fill="white"/>
<path d="M89.0542 49.2988V48.749H89.553V49.2988H89.0542Z" fill="white"/>
<path d="M90.6677 49.2983V45.3613H91.2655V49.2983H90.6677Z" fill="white"/>
<path d="M92.3547 49.2988V48.749H92.8535V49.2988H92.3547Z" fill="white"/>
<path d="M95.4318 49.298V45.8777H94.9734V45.3574H96.4661V45.8777H96.026V49.298H95.4318Z" fill="white"/>
<path d="M97.2546 49.2983V45.3613H98.5676V45.8779H97.8524V47.0217H98.5346V47.5272H97.8524V48.7817H98.5969V49.2983H97.2546Z" fill="white"/>
<path d="M100.291 49.3426C100.101 49.3426 99.9429 49.2984 99.8182 49.2098C99.6935 49.1213 99.5981 48.9921 99.5358 48.8224C99.4734 48.6527 99.4404 48.4497 99.4404 48.2062V46.4905C99.4404 46.3097 99.4551 46.1474 99.4844 46.0035C99.5138 45.8596 99.5615 45.7341 99.6275 45.6308C99.6935 45.5275 99.7815 45.45 99.8952 45.3946C100.005 45.3393 100.145 45.3135 100.306 45.3135C100.453 45.3135 100.581 45.3393 100.684 45.3873C100.79 45.4352 100.874 45.5053 100.94 45.5976C101.006 45.6898 101.054 45.7968 101.083 45.926C101.113 46.0551 101.127 46.199 101.127 46.3614V46.9037H100.552V46.4019C100.552 46.2064 100.537 46.0662 100.504 45.9739C100.471 45.8817 100.405 45.8374 100.31 45.8374C100.203 45.8374 100.13 45.8854 100.093 45.985C100.057 46.0846 100.038 46.2211 100.038 46.4019V48.2394C100.038 48.3759 100.046 48.4903 100.06 48.5752C100.075 48.6637 100.101 48.7265 100.137 48.7671C100.174 48.8076 100.225 48.8298 100.291 48.8298C100.39 48.8298 100.46 48.7818 100.497 48.6859C100.533 48.5899 100.552 48.4387 100.552 48.232V47.6675H101.135V48.2247C101.135 48.4719 101.105 48.6822 101.047 48.8482C100.988 49.0143 100.896 49.1397 100.772 49.2209C100.654 49.3021 100.493 49.3426 100.291 49.3426Z" fill="white"/>
<path d="M102.099 49.2983V45.3613H102.697V46.9553H103.233V45.3613H103.83V49.2983H103.233V47.4682H102.697V49.2983H102.099Z" fill="white"/>
<path d="M104.868 49.2983V45.3613H105.334L106.163 47.7227L106.119 46.649V45.3613H106.654V49.2983H106.233L105.382 46.852L105.415 47.8851V49.2983H104.868Z" fill="white"/>
<path d="M108.521 49.3426C108.32 49.3426 108.151 49.2984 108.023 49.2135C107.894 49.1286 107.799 48.9995 107.74 48.8298C107.678 48.6601 107.648 48.4497 107.648 48.1988V46.3983C107.648 46.1695 107.678 45.9776 107.736 45.8153C107.795 45.6529 107.89 45.5312 108.019 45.4426C108.147 45.3541 108.316 45.3135 108.525 45.3135C108.683 45.3135 108.815 45.3393 108.921 45.3873C109.027 45.4352 109.115 45.509 109.185 45.6013C109.251 45.6935 109.299 45.8079 109.332 45.9407C109.361 46.0736 109.379 46.2248 109.379 46.3946V48.1951C109.379 48.446 109.35 48.6564 109.291 48.8261C109.233 48.9958 109.141 49.125 109.013 49.2098C108.892 49.3021 108.727 49.3426 108.521 49.3426ZM108.521 48.8261C108.595 48.8261 108.65 48.804 108.69 48.7597C108.727 48.7154 108.752 48.6453 108.763 48.5567C108.774 48.4645 108.782 48.3501 108.782 48.2099V46.3761C108.782 46.2064 108.767 46.0736 108.734 45.9776C108.701 45.8817 108.635 45.8374 108.529 45.8374C108.419 45.8374 108.345 45.8817 108.309 45.9739C108.268 46.0625 108.25 46.199 108.25 46.3724V48.2099C108.25 48.3538 108.257 48.4719 108.268 48.5641C108.279 48.6564 108.309 48.7228 108.345 48.7671C108.386 48.804 108.444 48.8261 108.521 48.8261Z" fill="white"/>
<path d="M110.377 49.2983V45.3613H110.975V48.7891H111.73V49.2983H110.377Z" fill="white"/>
<path d="M113.282 49.3426C113.08 49.3426 112.911 49.2984 112.783 49.2135C112.654 49.1286 112.559 48.9995 112.5 48.8298C112.438 48.6601 112.409 48.4497 112.409 48.1988V46.3983C112.409 46.1695 112.438 45.9776 112.497 45.8153C112.555 45.6529 112.651 45.5312 112.779 45.4426C112.907 45.3541 113.076 45.3135 113.285 45.3135C113.443 45.3135 113.575 45.3393 113.681 45.3873C113.788 45.4352 113.876 45.509 113.945 45.6013C114.011 45.6935 114.059 45.8079 114.092 45.9407C114.121 46.0736 114.14 46.2248 114.14 46.3946V48.1951C114.14 48.446 114.11 48.6564 114.052 48.8261C113.993 48.9958 113.901 49.125 113.773 49.2098C113.652 49.3021 113.487 49.3426 113.282 49.3426ZM113.282 48.8261C113.355 48.8261 113.41 48.804 113.45 48.7597C113.487 48.7154 113.513 48.6453 113.524 48.5567C113.535 48.4645 113.542 48.3501 113.542 48.2099V46.3761C113.542 46.2064 113.527 46.0736 113.494 45.9776C113.461 45.8817 113.395 45.8374 113.289 45.8374C113.179 45.8374 113.106 45.8817 113.069 45.9739C113.028 46.0625 113.01 46.199 113.01 46.3724V48.2099C113.01 48.3538 113.017 48.4719 113.028 48.5641C113.04 48.6564 113.069 48.7228 113.106 48.7671C113.146 48.804 113.205 48.8261 113.282 48.8261Z" fill="white"/>
<path d="M115.874 49.3392C115.64 49.3392 115.449 49.2469 115.306 49.0588C115.163 48.8706 115.09 48.568 115.09 48.1474V46.4354C115.09 46.2583 115.108 46.1033 115.141 45.9631C115.174 45.8229 115.225 45.7085 115.295 45.6089C115.365 45.5129 115.456 45.4391 115.57 45.3912C115.684 45.3395 115.819 45.3174 115.977 45.3174C116.15 45.3174 116.289 45.3432 116.399 45.3949C116.509 45.4465 116.59 45.5203 116.648 45.6199C116.707 45.7159 116.747 45.8376 116.769 45.9778C116.791 46.1181 116.802 46.2804 116.802 46.4575V46.7379H116.245V46.3247C116.245 46.1476 116.227 46.0221 116.19 45.9483C116.153 45.8745 116.083 45.8376 115.984 45.8376C115.874 45.8376 115.797 45.8819 115.753 45.9668C115.709 46.0553 115.687 46.2103 115.687 46.4317V48.14C115.687 48.3872 115.706 48.5643 115.742 48.6713C115.779 48.7783 115.856 48.83 115.97 48.83C116.083 48.83 116.161 48.7747 116.208 48.664C116.256 48.5533 116.278 48.3725 116.278 48.1142V47.5829H115.977V47.1475H116.799V49.2986H116.531L116.439 48.9112C116.406 49.0477 116.337 49.151 116.23 49.2248C116.124 49.2986 116.006 49.3392 115.874 49.3392Z" fill="white"/>
<path d="M118.218 49.2983V47.7264L117.562 45.3613H118.13L118.519 46.8335H118.526L118.871 45.3613H119.439L118.816 47.7264V49.2983H118.218Z" fill="white"/>
<path d="M121.497 49.2983V45.3613H122.839V45.8816H122.091V46.9295H122.784V47.4534H122.091V49.2983H121.497Z" fill="white"/>
<path d="M124.534 49.3426C124.332 49.3426 124.163 49.2984 124.035 49.2135C123.906 49.1286 123.811 48.9995 123.752 48.8298C123.69 48.6601 123.661 48.4497 123.661 48.1988V46.3983C123.661 46.1695 123.69 45.9776 123.749 45.8153C123.807 45.6529 123.903 45.5312 124.031 45.4426C124.159 45.3541 124.328 45.3135 124.537 45.3135C124.695 45.3135 124.827 45.3393 124.933 45.3873C125.04 45.4352 125.128 45.509 125.197 45.6013C125.263 45.6935 125.311 45.8079 125.344 45.9407C125.373 46.0736 125.392 46.2248 125.392 46.3946V48.1951C125.392 48.446 125.362 48.6564 125.304 48.8261C125.245 48.9958 125.153 49.125 125.025 49.2098C124.9 49.3021 124.735 49.3426 124.534 49.3426ZM124.534 48.8261C124.607 48.8261 124.662 48.804 124.702 48.7597C124.739 48.7154 124.765 48.6453 124.776 48.5567C124.787 48.4645 124.794 48.3501 124.794 48.2099V46.3761C124.794 46.2064 124.779 46.0736 124.746 45.9776C124.713 45.8817 124.647 45.8374 124.541 45.8374C124.431 45.8374 124.357 45.8817 124.321 45.9739C124.28 46.0625 124.262 46.199 124.262 46.3724V48.2099C124.262 48.3538 124.269 48.4719 124.28 48.5641C124.291 48.6564 124.321 48.7228 124.357 48.7671C124.398 48.804 124.456 48.8261 124.534 48.8261Z" fill="white"/>
<path d="M126.389 49.2983V45.3613H127.376C127.581 45.3613 127.731 45.4019 127.834 45.4831C127.937 45.5643 128.003 45.6823 128.032 45.8373C128.065 45.9923 128.08 46.1804 128.08 46.4055C128.08 46.638 128.058 46.8188 128.01 46.9516C127.963 47.0844 127.867 47.173 127.724 47.2173C127.794 47.2283 127.849 47.2578 127.896 47.3021C127.944 47.3464 127.981 47.4091 128.007 47.494C128.036 47.5788 128.054 47.6859 128.069 47.8187C128.084 47.9515 128.087 48.1139 128.087 48.302C128.087 48.3168 128.087 48.3574 128.087 48.4275C128.087 48.4976 128.087 48.5788 128.087 48.671C128.087 48.7633 128.087 48.8555 128.091 48.9477C128.091 49.04 128.095 49.1175 128.098 49.1839C128.102 49.2503 128.106 49.2872 128.109 49.3019H127.511C127.508 49.2946 127.504 49.2577 127.5 49.1876C127.497 49.1175 127.497 49.0289 127.493 48.9219C127.489 48.8149 127.489 48.7005 127.489 48.5751C127.489 48.4496 127.489 48.3279 127.489 48.2098C127.489 48.0917 127.489 47.9847 127.489 47.8925C127.489 47.7744 127.482 47.6859 127.464 47.6268C127.445 47.5678 127.416 47.5235 127.372 47.5014C127.328 47.4792 127.262 47.4645 127.178 47.4571L126.987 47.446V49.3056H126.389V49.2983ZM126.987 46.9737H127.225C127.299 46.9737 127.354 46.959 127.39 46.9258C127.427 46.8926 127.453 46.8335 127.467 46.745C127.482 46.6564 127.489 46.531 127.489 46.3649V46.3391C127.489 46.1989 127.482 46.0919 127.471 46.0181C127.456 45.9443 127.431 45.8926 127.387 45.8631C127.343 45.8336 127.28 45.8189 127.189 45.8189H126.987V46.9737Z" fill="white"/>
<path d="M130.086 49.2983L130.644 45.3613H131.432L132.026 49.2983H131.469L131.377 48.5972H130.746L130.662 49.2983H130.086ZM130.805 48.1139H131.315L131.054 46.1362H131.047L130.805 48.1139Z" fill="white"/>
<path d="M134.821 49.3429C134.656 49.3429 134.52 49.317 134.414 49.2654C134.304 49.2137 134.219 49.1399 134.157 49.0403C134.095 48.9407 134.051 48.8189 134.021 48.6787C133.996 48.5348 133.981 48.3725 133.981 48.1917V47.8412H134.546V48.236C134.546 48.4463 134.564 48.6012 134.601 48.6935C134.637 48.7857 134.707 48.8337 134.813 48.8337C134.883 48.8337 134.938 48.8189 134.975 48.782C135.012 48.7488 135.037 48.6935 135.048 48.6197C135.059 48.5459 135.067 48.45 135.067 48.3282C135.067 48.1806 135.037 48.0441 134.975 47.9223C134.913 47.8006 134.821 47.6714 134.696 47.5423L134.406 47.2434C134.326 47.1586 134.252 47.07 134.19 46.9778C134.128 46.8855 134.073 46.7785 134.036 46.6641C133.999 46.5497 133.977 46.4206 133.977 46.2767C133.977 46.0701 134.003 45.893 134.054 45.7528C134.106 45.6089 134.19 45.5019 134.311 45.4281C134.432 45.3543 134.597 45.3174 134.806 45.3174C134.964 45.3174 135.092 45.3432 135.195 45.3912C135.298 45.4391 135.375 45.5092 135.433 45.6052C135.492 45.6974 135.532 45.8118 135.554 45.9446C135.576 46.0775 135.591 46.2324 135.591 46.4022V46.6457H135.041V46.3653C135.041 46.2472 135.034 46.1476 135.023 46.0664C135.012 45.9889 134.986 45.9262 134.953 45.8893C134.92 45.8487 134.868 45.8303 134.802 45.8303C134.74 45.8303 134.689 45.845 134.652 45.8708C134.615 45.9004 134.586 45.9409 134.568 46C134.549 46.059 134.542 46.1328 134.542 46.2214C134.542 46.3025 134.553 46.3726 134.571 46.4354C134.593 46.4944 134.623 46.5534 134.667 46.6088C134.711 46.6641 134.762 46.7269 134.828 46.7933L135.151 47.1438C135.305 47.3098 135.426 47.4832 135.51 47.664C135.595 47.8448 135.639 48.0441 135.639 48.2692C135.639 48.5053 135.613 48.7045 135.562 48.8632C135.51 49.0219 135.426 49.1436 135.309 49.2285C135.188 49.3023 135.026 49.3429 134.821 49.3429Z" fill="white"/>
<path d="M136.277 49.2983L136.834 45.3613H137.623L138.217 49.2983H137.66L137.568 48.5972H136.937L136.853 49.2983H136.277ZM136.992 48.1139H137.502L137.241 46.1362H137.234L136.992 48.1139Z" fill="white"/>
<path d="M139.024 49.2983V45.3613H140.366V45.8816H139.618V46.9295H140.311V47.4534H139.618V49.2983H139.024Z" fill="white"/>
<path d="M141.239 49.2983V45.3613H142.552V45.8779H141.837V47.0217H142.519V47.5272H141.837V48.7817H142.581V49.2983H141.239Z" fill="white"/>
<path d="M143.476 49.2983V45.3613H144.463C144.668 45.3613 144.818 45.4019 144.921 45.4831C145.024 45.5643 145.09 45.6823 145.119 45.8373C145.152 45.9923 145.167 46.1804 145.167 46.4055C145.167 46.638 145.145 46.8188 145.097 46.9516C145.049 47.0844 144.954 47.173 144.811 47.2173C144.881 47.2283 144.936 47.2578 144.983 47.3021C145.031 47.3464 145.068 47.4091 145.093 47.494C145.123 47.5788 145.141 47.6859 145.156 47.8187C145.17 47.9515 145.174 48.1139 145.174 48.302C145.174 48.3168 145.174 48.3574 145.174 48.4275C145.174 48.4976 145.174 48.5788 145.174 48.671C145.174 48.7633 145.174 48.8555 145.178 48.9477C145.178 49.04 145.181 49.1175 145.185 49.1839C145.189 49.2503 145.192 49.2872 145.196 49.3019H144.598C144.595 49.2946 144.591 49.2577 144.587 49.1876C144.584 49.1175 144.584 49.0289 144.58 48.9219C144.576 48.8149 144.576 48.7005 144.576 48.5751C144.576 48.4496 144.576 48.3279 144.576 48.2098C144.576 48.0917 144.576 47.9847 144.576 47.8925C144.576 47.7744 144.569 47.6859 144.551 47.6268C144.532 47.5678 144.503 47.5235 144.459 47.5014C144.415 47.4792 144.349 47.4645 144.265 47.4571L144.074 47.446V49.3056H143.476V49.2983ZM144.074 46.9737H144.312C144.386 46.9737 144.441 46.959 144.477 46.9258C144.514 46.8926 144.54 46.8335 144.554 46.745C144.569 46.6564 144.576 46.531 144.576 46.3649V46.3391C144.576 46.1989 144.569 46.0919 144.558 46.0181C144.543 45.9443 144.518 45.8926 144.474 45.8631C144.43 45.8336 144.367 45.8189 144.276 45.8189H144.074V46.9737Z" fill="white"/>
<path d="M148.229 49.3426C148.028 49.3426 147.859 49.2984 147.731 49.2135C147.602 49.1286 147.507 48.9995 147.448 48.8298C147.386 48.6601 147.356 48.4497 147.356 48.1988V46.3983C147.356 46.1695 147.386 45.9776 147.444 45.8153C147.503 45.6529 147.599 45.5312 147.727 45.4426C147.855 45.3541 148.024 45.3135 148.233 45.3135C148.391 45.3135 148.523 45.3393 148.629 45.3873C148.735 45.4352 148.823 45.509 148.893 45.6013C148.959 45.6935 149.007 45.8079 149.04 45.9407C149.069 46.0736 149.088 46.2248 149.088 46.3946V48.1951C149.088 48.446 149.058 48.6564 148.999 48.8261C148.941 48.9958 148.849 49.125 148.721 49.2098C148.596 49.3021 148.431 49.3426 148.229 49.3426ZM148.229 48.8261C148.303 48.8261 148.358 48.804 148.398 48.7597C148.435 48.7154 148.46 48.6453 148.471 48.5567C148.482 48.4645 148.49 48.3501 148.49 48.2099V46.3761C148.49 46.2064 148.475 46.0736 148.442 45.9776C148.409 45.8817 148.343 45.8374 148.237 45.8374C148.127 45.8374 148.053 45.8817 148.017 45.9739C147.976 46.0625 147.958 46.199 147.958 46.3724V48.2099C147.958 48.3538 147.965 48.4719 147.976 48.5641C147.987 48.6564 148.017 48.7228 148.053 48.7671C148.094 48.804 148.152 48.8261 148.229 48.8261Z" fill="white"/>
<path d="M150.081 49.2983V45.3613H150.547L151.376 47.7227L151.332 46.649V45.3613H151.867V49.2983H151.446L150.595 46.852L150.628 47.8851V49.2983H150.081Z" fill="white"/>
<path d="M152.916 49.2983V45.3613H153.514V48.7891H154.27V49.2983H152.916Z" fill="white"/>
<path d="M155.058 49.2983V45.3613H155.656V49.2983H155.058Z" fill="white"/>
<path d="M156.705 49.2983V45.3613H157.171L157.999 47.7227L157.955 46.649V45.3613H158.491V49.2983H158.069L157.218 46.852L157.251 47.8851V49.2983H156.705Z" fill="white"/>
<path d="M159.54 49.2983V45.3613H160.853V45.8779H160.138V47.0217H160.82V47.5272H160.138V48.7817H160.882V49.2983H159.54Z" fill="white"/>
<path d="M163.046 49.2983V45.3613H163.922C164.12 45.3613 164.282 45.4019 164.399 45.4794C164.52 45.5606 164.608 45.675 164.66 45.8262C164.711 45.9775 164.74 46.1583 164.74 46.3723L164.744 48.1471C164.744 48.4053 164.715 48.6194 164.66 48.7891C164.605 48.9588 164.513 49.0879 164.392 49.1691C164.267 49.254 164.106 49.2946 163.9 49.2946H163.046V49.2983ZM163.64 48.8334H163.834C163.904 48.8334 163.963 48.8186 164.01 48.7928C164.058 48.7633 164.091 48.7153 164.113 48.6415C164.135 48.5677 164.146 48.4681 164.146 48.3352L164.142 46.3908C164.142 46.1878 164.117 46.0439 164.069 45.9554C164.021 45.8668 163.933 45.8225 163.812 45.8225H163.636V48.8334H163.64Z" fill="white"/>
<path d="M165.51 49.2983L166.068 45.3613H166.856L167.451 49.2983H166.893L166.801 48.5972H166.171L166.086 49.2983H165.51ZM166.226 48.1139H166.735L166.475 46.1362H166.468L166.226 48.1139Z" fill="white"/>
<path d="M168.353 49.298V45.8777H167.894V45.3574H169.387V45.8777H168.947V49.298H168.353Z" fill="white"/>
<path d="M170.19 49.2983V45.3613H170.788V49.2983H170.19Z" fill="white"/>
<path d="M171.837 49.2983V45.3613H172.303L173.132 47.7227L173.088 46.649V45.3613H173.623V49.2983H173.201L172.35 46.852L172.383 47.8851V49.2983H171.837Z" fill="white"/>
<path d="M175.405 49.3392C175.171 49.3392 174.98 49.2469 174.837 49.0588C174.694 48.8706 174.621 48.568 174.621 48.1474V46.4354C174.621 46.2583 174.639 46.1033 174.672 45.9631C174.705 45.8229 174.756 45.7085 174.826 45.6089C174.896 45.5129 174.987 45.4391 175.101 45.3912C175.215 45.3395 175.35 45.3174 175.508 45.3174C175.681 45.3174 175.82 45.3432 175.93 45.3949C176.04 45.4465 176.121 45.5203 176.179 45.6199C176.238 45.7159 176.278 45.8376 176.3 45.9778C176.322 46.1181 176.333 46.2804 176.333 46.4575V46.7379H175.776V46.3247C175.776 46.1476 175.758 46.0221 175.721 45.9483C175.684 45.8745 175.614 45.8376 175.515 45.8376C175.405 45.8376 175.328 45.8819 175.284 45.9668C175.24 46.0553 175.218 46.2103 175.218 46.4317V48.14C175.218 48.3872 175.237 48.5643 175.273 48.6713C175.31 48.7783 175.387 48.83 175.501 48.83C175.614 48.83 175.692 48.7747 175.739 48.664C175.787 48.5533 175.809 48.3725 175.809 48.1142V47.5829H175.508V47.1475H176.33V49.2986H176.062L175.97 48.9112C175.937 49.0477 175.868 49.151 175.761 49.2248C175.655 49.2986 175.541 49.3392 175.405 49.3392Z" fill="white"/>
<path d="M178.622 49.2983V45.3613H179.935V45.8779H179.22V47.0217H179.902V47.5272H179.22V48.7817H179.964V49.2983H178.622Z" fill="white"/>
<path d="M180.654 49.2983L181.255 47.1877L180.654 45.3613H181.156L181.545 46.531L181.857 45.3613H182.414L181.823 47.3759L182.462 49.2983H181.945L181.545 48.088L181.222 49.2983H180.654Z" fill="white"/>
<path d="M183.309 49.2983V45.3613H184.207C184.361 45.3613 184.493 45.3835 184.596 45.4314C184.699 45.4794 184.78 45.5495 184.838 45.6454C184.897 45.7377 184.941 45.8558 184.963 45.9923C184.989 46.1288 185 46.2911 185 46.4682V46.5494C185 46.804 184.978 47.018 184.934 47.1988C184.89 47.3796 184.813 47.5124 184.699 47.6047C184.585 47.6969 184.427 47.7449 184.222 47.7449H183.899V49.2983H183.309ZM183.903 47.2505H184.108C184.196 47.2505 184.262 47.2283 184.303 47.1841C184.343 47.1398 184.376 47.066 184.387 46.9627C184.402 46.8594 184.409 46.7191 184.409 46.5494V46.4719C184.409 46.2579 184.391 46.0956 184.354 45.9886C184.317 45.8779 184.237 45.8225 184.112 45.8225H183.903V47.2505Z" fill="white"/>
<path d="M185.858 49.2983V45.3613H187.171V45.8779H186.455V47.0217H187.138V47.5272H186.455V48.7817H187.2V49.2983H185.858Z" fill="white"/>
<path d="M188.095 49.2983V45.3613H189.082C189.287 45.3613 189.437 45.4019 189.54 45.4831C189.643 45.5643 189.709 45.6823 189.738 45.8373C189.771 45.9923 189.786 46.1804 189.786 46.4055C189.786 46.638 189.764 46.8188 189.716 46.9516C189.668 47.0844 189.573 47.173 189.43 47.2173C189.5 47.2283 189.555 47.2578 189.602 47.3021C189.65 47.3464 189.687 47.4091 189.712 47.494C189.742 47.5788 189.76 47.6859 189.775 47.8187C189.789 47.9515 189.793 48.1139 189.793 48.302C189.793 48.3168 189.793 48.3574 189.793 48.4275C189.793 48.4976 189.793 48.5788 189.793 48.671C189.793 48.7633 189.793 48.8555 189.797 48.9477C189.797 49.04 189.8 49.1175 189.804 49.1839C189.808 49.2503 189.811 49.2872 189.815 49.3019H189.217C189.214 49.2946 189.21 49.2577 189.206 49.1876C189.203 49.1175 189.203 49.0289 189.199 48.9219C189.195 48.8149 189.195 48.7005 189.195 48.5751C189.195 48.4496 189.195 48.3279 189.195 48.2098C189.195 48.0917 189.195 47.9847 189.195 47.8925C189.195 47.7744 189.188 47.6859 189.17 47.6268C189.151 47.5678 189.122 47.5235 189.078 47.5014C189.034 47.4792 188.968 47.4645 188.883 47.4571L188.693 47.446V49.3056H188.095V49.2983ZM188.693 46.9737H188.931C189.005 46.9737 189.06 46.959 189.096 46.9258C189.133 46.8926 189.159 46.8335 189.173 46.745C189.188 46.6564 189.195 46.531 189.195 46.3649V46.3391C189.195 46.1989 189.188 46.0919 189.177 46.0181C189.162 45.9443 189.137 45.8926 189.093 45.8631C189.049 45.8336 188.986 45.8189 188.894 45.8189H188.693V46.9737Z" fill="white"/>
<path d="M190.765 49.2983V45.3613H191.363V49.2983H190.765Z" fill="white"/>
<path d="M192.415 49.2983V45.3613H193.728V45.8779H193.013V47.0217H193.695V47.5272H193.013V48.7817H193.758V49.2983H192.415Z" fill="white"/>
<path d="M194.652 49.2983V45.3613H195.118L195.947 47.7227L195.903 46.649V45.3613H196.438V49.2983H196.017L195.166 46.852L195.199 47.8851V49.2983H194.652Z" fill="white"/>
<path d="M198.287 49.3426C198.096 49.3426 197.938 49.2984 197.814 49.2098C197.689 49.1213 197.594 48.9921 197.531 48.8224C197.469 48.6527 197.436 48.4497 197.436 48.2062V46.4905C197.436 46.3097 197.451 46.1474 197.48 46.0035C197.509 45.8596 197.557 45.7341 197.623 45.6308C197.689 45.5275 197.777 45.45 197.891 45.3946C198.001 45.3393 198.14 45.3135 198.302 45.3135C198.448 45.3135 198.577 45.3393 198.679 45.3873C198.786 45.4352 198.87 45.5053 198.936 45.5976C199.002 45.6898 199.05 45.7968 199.079 45.926C199.108 46.0551 199.123 46.199 199.123 46.3614V46.9037H198.547V46.4019C198.547 46.2064 198.533 46.0662 198.5 45.9739C198.467 45.8817 198.401 45.8374 198.305 45.8374C198.199 45.8374 198.126 45.8854 198.089 45.985C198.052 46.0846 198.034 46.2211 198.034 46.4019V48.2394C198.034 48.3759 198.041 48.4903 198.056 48.5752C198.071 48.6637 198.096 48.7265 198.133 48.7671C198.17 48.8076 198.221 48.8298 198.287 48.8298C198.386 48.8298 198.456 48.7818 198.492 48.6859C198.529 48.5899 198.547 48.4387 198.547 48.232V47.6675H199.13V48.2247C199.13 48.4719 199.101 48.6822 199.042 48.8482C198.984 49.0143 198.892 49.1397 198.767 49.2209C198.65 49.3021 198.485 49.3426 198.287 49.3426Z" fill="white"/>
<path d="M200.095 49.2983V45.3613H201.408V45.8779H200.693V47.0217H201.375V47.5272H200.693V48.7817H201.437V49.2983H200.095Z" fill="white"/>
</g>
<defs>
<clipPath id="clip0_1673_469">
<rect width="183.518" height="42.4096" fill="white" transform="translate(18.5061 10.7959)"/>
</clipPath>
</defs>
</svg>
