<svg width="312" height="310" viewBox="0 0 312 310" fill="none" xmlns="http://www.w3.org/2000/svg">
<g filter="url(#filter0_d_1755_1102)">
<mask id="path-1-inside-1_1755_1102" fill="white">
<path d="M295.462 155.645C295.462 186.315 285.753 216.197 267.726 241.01C249.698 265.822 224.279 284.291 195.11 293.768C165.941 303.246 134.521 303.246 105.352 293.768C76.1835 284.291 50.7639 265.822 32.7367 241.01C14.7094 216.197 5 186.315 5 155.645C5 124.975 14.7094 95.0927 32.7367 70.2803C50.764 45.468 76.1835 26.9995 105.352 17.5221C134.521 8.04457 165.941 8.04457 195.11 17.5221L150.231 155.645H295.462Z"/>
</mask>
<path d="M295.462 155.645C295.462 186.315 285.753 216.197 267.726 241.01C249.698 265.822 224.279 284.291 195.11 293.768C165.941 303.246 134.521 303.246 105.352 293.768C76.1835 284.291 50.7639 265.822 32.7367 241.01C14.7094 216.197 5 186.315 5 155.645C5 124.975 14.7094 95.0927 32.7367 70.2803C50.764 45.468 76.1835 26.9995 105.352 17.5221C134.521 8.04457 165.941 8.04457 195.11 17.5221L150.231 155.645H295.462Z" fill="#0247FF"/>
<path d="M295.462 155.645C295.462 186.315 285.753 216.197 267.726 241.01C249.698 265.822 224.279 284.291 195.11 293.768C165.941 303.246 134.521 303.246 105.352 293.768C76.1835 284.291 50.7639 265.822 32.7367 241.01C14.7094 216.197 5 186.315 5 155.645C5 124.975 14.7094 95.0927 32.7367 70.2803C50.764 45.468 76.1835 26.9995 105.352 17.5221C134.521 8.04457 165.941 8.04457 195.11 17.5221L150.231 155.645H295.462Z" stroke="white" mask="url(#path-1-inside-1_1755_1102)"/>
</g>
<g filter="url(#filter1_d_1755_1102)">
<mask id="path-2-inside-2_1755_1102" fill="white">
<path d="M211.359 8.75851C239.142 18.8707 263.177 37.2219 280.252 61.3593C297.327 85.4968 306.628 114.271 306.912 143.835L161.687 145.231L211.359 8.75851Z"/>
</mask>
<path d="M211.359 8.75851C239.142 18.8707 263.177 37.2219 280.252 61.3593C297.327 85.4968 306.628 114.271 306.912 143.835L161.687 145.231L211.359 8.75851Z" fill="#032D9D"/>
<path d="M211.359 8.75851C239.142 18.8707 263.177 37.2219 280.252 61.3593C297.327 85.4968 306.628 114.271 306.912 143.835L161.687 145.231L211.359 8.75851Z" stroke="white" mask="url(#path-2-inside-2_1755_1102)"/>
</g>
<g filter="url(#filter2_d_1755_1102)">
<path d="M130.194 182.594C129.358 182.594 128.529 182.44 127.708 182.132C126.886 181.81 126.182 181.377 125.596 180.834L126.542 178.722C127.084 179.221 127.671 179.595 128.302 179.844C128.932 180.094 129.57 180.218 130.216 180.218C131.521 180.218 132.518 179.771 133.208 178.876C133.912 177.982 134.264 176.647 134.264 174.872V173.222H134.528C134.425 173.956 134.176 174.594 133.78 175.136C133.384 175.679 132.885 176.097 132.284 176.39C131.697 176.669 131.037 176.808 130.304 176.808C129.409 176.808 128.602 176.596 127.884 176.17C127.18 175.745 126.622 175.158 126.212 174.41C125.816 173.648 125.618 172.79 125.618 171.836C125.618 170.824 125.838 169.93 126.278 169.152C126.732 168.375 127.348 167.766 128.126 167.326C128.903 166.872 129.798 166.644 130.81 166.644C132.775 166.644 134.286 167.319 135.342 168.668C136.412 170.003 136.948 171.895 136.948 174.344C136.948 176.09 136.676 177.578 136.134 178.81C135.606 180.042 134.836 180.981 133.824 181.626C132.812 182.272 131.602 182.594 130.194 182.594ZM130.986 174.564C131.528 174.564 132.005 174.447 132.416 174.212C132.826 173.978 133.149 173.648 133.384 173.222C133.618 172.782 133.736 172.284 133.736 171.726C133.736 171.154 133.618 170.656 133.384 170.23C133.149 169.805 132.826 169.475 132.416 169.24C132.005 168.991 131.528 168.866 130.986 168.866C130.443 168.866 129.966 168.991 129.556 169.24C129.145 169.475 128.822 169.805 128.588 170.23C128.368 170.656 128.258 171.154 128.258 171.726C128.258 172.284 128.368 172.782 128.588 173.222C128.822 173.648 129.145 173.978 129.556 174.212C129.966 174.447 130.443 174.564 130.986 174.564ZM144.551 182.594C142.733 182.594 141.332 181.905 140.349 180.526C139.367 179.133 138.875 177.153 138.875 174.586C138.875 171.99 139.367 170.018 140.349 168.668C141.332 167.319 142.733 166.644 144.551 166.644C146.385 166.644 147.785 167.319 148.753 168.668C149.736 170.018 150.227 171.983 150.227 174.564C150.227 177.146 149.736 179.133 148.753 180.526C147.785 181.905 146.385 182.594 144.551 182.594ZM144.551 180.262C145.549 180.262 146.289 179.808 146.773 178.898C147.257 177.974 147.499 176.53 147.499 174.564C147.499 172.599 147.257 171.176 146.773 170.296C146.289 169.402 145.549 168.954 144.551 168.954C143.569 168.954 142.828 169.402 142.329 170.296C141.845 171.176 141.603 172.599 141.603 174.564C141.603 176.53 141.845 177.974 142.329 178.898C142.828 179.808 143.569 180.262 144.551 180.262ZM158.205 182.374H155.851L165.003 166.864H167.357L158.205 182.374ZM156.027 176.126C154.78 176.126 153.805 175.701 153.101 174.85C152.397 174 152.045 172.841 152.045 171.374C152.045 169.893 152.397 168.734 153.101 167.898C153.819 167.062 154.795 166.644 156.027 166.644C157.273 166.644 158.249 167.07 158.953 167.92C159.657 168.771 160.009 169.922 160.009 171.374C160.009 172.841 159.657 174 158.953 174.85C158.249 175.701 157.273 176.126 156.027 176.126ZM156.027 174.366C156.569 174.366 156.987 174.124 157.281 173.64C157.589 173.156 157.743 172.401 157.743 171.374C157.743 170.333 157.589 169.585 157.281 169.13C156.987 168.661 156.569 168.426 156.027 168.426C155.484 168.426 155.059 168.654 154.751 169.108C154.457 169.563 154.311 170.318 154.311 171.374C154.311 172.43 154.457 173.193 154.751 173.662C155.059 174.132 155.484 174.366 156.027 174.366ZM167.181 182.594C165.934 182.594 164.959 182.169 164.255 181.318C163.551 180.453 163.199 179.287 163.199 177.82C163.199 176.339 163.551 175.188 164.255 174.366C164.973 173.53 165.949 173.112 167.181 173.112C168.427 173.112 169.403 173.538 170.107 174.388C170.811 175.224 171.163 176.368 171.163 177.82C171.163 179.287 170.811 180.453 170.107 181.318C169.403 182.169 168.427 182.594 167.181 182.594ZM167.181 180.812C167.723 180.812 168.141 180.578 168.435 180.108C168.743 179.624 168.897 178.862 168.897 177.82C168.897 176.779 168.743 176.031 168.435 175.576C168.141 175.107 167.723 174.872 167.181 174.872C166.638 174.872 166.213 175.107 165.905 175.576C165.611 176.031 165.465 176.779 165.465 177.82C165.465 178.876 165.611 179.639 165.905 180.108C166.213 180.578 166.638 180.812 167.181 180.812Z" fill="white"/>
</g>
<defs>
<filter id="filter0_d_1755_1102" x="0" y="9.41394" width="300.462" height="300.462" filterUnits="userSpaceOnUse" color-interpolation-filters="sRGB">
<feFlood flood-opacity="0" result="BackgroundImageFix"/>
<feColorMatrix in="SourceAlpha" type="matrix" values="0 0 0 0 0 0 0 0 0 0 0 0 0 0 0 0 0 0 127 0" result="hardAlpha"/>
<feOffset dy="4"/>
<feGaussianBlur stdDeviation="2.5"/>
<feComposite in2="hardAlpha" operator="out"/>
<feColorMatrix type="matrix" values="0 0 0 0 0 0 0 0 0 0 0 0 0 0 0 0 0 0 0.25 0"/>
<feBlend mode="normal" in2="BackgroundImageFix" result="effect1_dropShadow_1755_1102"/>
<feBlend mode="normal" in="SourceGraphic" in2="effect1_dropShadow_1755_1102" result="shape"/>
</filter>
<filter id="filter1_d_1755_1102" x="156.688" y="7.75854" width="155.225" height="146.473" filterUnits="userSpaceOnUse" color-interpolation-filters="sRGB">
<feFlood flood-opacity="0" result="BackgroundImageFix"/>
<feColorMatrix in="SourceAlpha" type="matrix" values="0 0 0 0 0 0 0 0 0 0 0 0 0 0 0 0 0 0 127 0" result="hardAlpha"/>
<feOffset dy="4"/>
<feGaussianBlur stdDeviation="2.5"/>
<feComposite in2="hardAlpha" operator="out"/>
<feColorMatrix type="matrix" values="0 0 0 0 0 0 0 0 0 0 0 0 0 0 0 0 0 0 0.25 0"/>
<feBlend mode="normal" in2="BackgroundImageFix" result="effect1_dropShadow_1755_1102"/>
<feBlend mode="normal" in="SourceGraphic" in2="effect1_dropShadow_1755_1102" result="shape"/>
</filter>
<filter id="filter2_d_1755_1102" x="125.596" y="166.644" width="49.5664" height="19.95" filterUnits="userSpaceOnUse" color-interpolation-filters="sRGB">
<feFlood flood-opacity="0" result="BackgroundImageFix"/>
<feColorMatrix in="SourceAlpha" type="matrix" values="0 0 0 0 0 0 0 0 0 0 0 0 0 0 0 0 0 0 127 0" result="hardAlpha"/>
<feOffset dx="2" dy="2"/>
<feGaussianBlur stdDeviation="1"/>
<feComposite in2="hardAlpha" operator="out"/>
<feColorMatrix type="matrix" values="0 0 0 0 0 0 0 0 0 0 0 0 0 0 0 0 0 0 0.25 0"/>
<feBlend mode="normal" in2="BackgroundImageFix" result="effect1_dropShadow_1755_1102"/>
<feBlend mode="normal" in="SourceGraphic" in2="effect1_dropShadow_1755_1102" result="shape"/>
</filter>
</defs>
</svg>
