<svg width="308" height="323" viewBox="0 0 308 323" fill="none" xmlns="http://www.w3.org/2000/svg">
<g filter="url(#filter0_d_1450_578)">
<circle cx="144.459" cy="174.1" r="139.459" fill="url(#paint0_linear_1450_578)"/>
<circle cx="144.459" cy="174.1" r="139.209" stroke="white" stroke-width="0.5"/>
</g>
<g filter="url(#filter1_d_1450_578)">
<path d="M109 226.274C107.347 226.274 106.053 225.921 105.12 225.214C104.2 224.508 103.74 223.528 103.74 222.274C103.74 221.288 104.04 220.468 104.64 219.814C105.24 219.161 106.02 218.774 106.98 218.654V219.074C106.113 218.888 105.413 218.481 104.88 217.854C104.36 217.228 104.1 216.468 104.1 215.574C104.1 214.388 104.533 213.461 105.4 212.794C106.28 212.114 107.48 211.774 109 211.774C110.533 211.774 111.733 212.114 112.6 212.794C113.48 213.461 113.92 214.388 113.92 215.574C113.92 216.468 113.667 217.234 113.16 217.874C112.667 218.514 111.993 218.908 111.14 219.054V218.654C112.087 218.788 112.847 219.181 113.42 219.834C113.993 220.474 114.28 221.288 114.28 222.274C114.28 223.528 113.813 224.508 112.88 225.214C111.96 225.921 110.667 226.274 109 226.274ZM109 224.274C109.973 224.274 110.7 224.094 111.18 223.734C111.66 223.361 111.9 222.814 111.9 222.094C111.9 221.374 111.66 220.834 111.18 220.474C110.7 220.114 109.973 219.934 109 219.934C108.04 219.934 107.313 220.114 106.82 220.474C106.34 220.834 106.1 221.374 106.1 222.094C106.1 222.814 106.34 223.361 106.82 223.734C107.313 224.094 108.04 224.274 109 224.274ZM109 217.934C109.827 217.934 110.453 217.748 110.88 217.374C111.32 217.001 111.54 216.488 111.54 215.834C111.54 215.194 111.32 214.694 110.88 214.334C110.453 213.961 109.827 213.774 109 213.774C108.187 213.774 107.56 213.961 107.12 214.334C106.693 214.694 106.48 215.194 106.48 215.834C106.48 216.488 106.693 217.001 107.12 217.374C107.56 217.748 108.187 217.934 109 217.934ZM120.992 226.274C119.339 226.274 118.066 225.648 117.172 224.394C116.279 223.128 115.832 221.328 115.832 218.994C115.832 216.634 116.279 214.841 117.172 213.614C118.066 212.388 119.339 211.774 120.992 211.774C122.659 211.774 123.932 212.388 124.812 213.614C125.706 214.841 126.152 216.628 126.152 218.974C126.152 221.321 125.706 223.128 124.812 224.394C123.932 225.648 122.659 226.274 120.992 226.274ZM120.992 224.154C121.899 224.154 122.572 223.741 123.012 222.914C123.452 222.074 123.672 220.761 123.672 218.974C123.672 217.188 123.452 215.894 123.012 215.094C122.572 214.281 121.899 213.874 120.992 213.874C120.099 213.874 119.426 214.281 118.972 215.094C118.532 215.894 118.312 217.188 118.312 218.974C118.312 220.761 118.532 222.074 118.972 222.914C119.426 223.741 120.099 224.154 120.992 224.154ZM133.404 226.074H131.264L139.584 211.974H141.724L133.404 226.074ZM131.424 220.394C130.291 220.394 129.404 220.008 128.764 219.234C128.124 218.461 127.804 217.408 127.804 216.074C127.804 214.728 128.124 213.674 128.764 212.914C129.418 212.154 130.304 211.774 131.424 211.774C132.558 211.774 133.444 212.161 134.084 212.934C134.724 213.708 135.044 214.754 135.044 216.074C135.044 217.408 134.724 218.461 134.084 219.234C133.444 220.008 132.558 220.394 131.424 220.394ZM131.424 218.794C131.918 218.794 132.298 218.574 132.564 218.134C132.844 217.694 132.984 217.008 132.984 216.074C132.984 215.128 132.844 214.448 132.564 214.034C132.298 213.608 131.918 213.394 131.424 213.394C130.931 213.394 130.544 213.601 130.264 214.014C129.998 214.428 129.864 215.114 129.864 216.074C129.864 217.034 129.998 217.728 130.264 218.154C130.544 218.581 130.931 218.794 131.424 218.794ZM141.564 226.274C140.431 226.274 139.544 225.888 138.904 225.114C138.264 224.328 137.944 223.268 137.944 221.934C137.944 220.588 138.264 219.541 138.904 218.794C139.558 218.034 140.444 217.654 141.564 217.654C142.698 217.654 143.584 218.041 144.224 218.814C144.864 219.574 145.184 220.614 145.184 221.934C145.184 223.268 144.864 224.328 144.224 225.114C143.584 225.888 142.698 226.274 141.564 226.274ZM141.564 224.654C142.058 224.654 142.438 224.441 142.704 224.014C142.984 223.574 143.124 222.881 143.124 221.934C143.124 220.988 142.984 220.308 142.704 219.894C142.438 219.468 142.058 219.254 141.564 219.254C141.071 219.254 140.684 219.468 140.404 219.894C140.138 220.308 140.004 220.988 140.004 221.934C140.004 222.894 140.138 223.588 140.404 224.014C140.684 224.441 141.071 224.654 141.564 224.654Z" fill="white"/>
</g>
<g filter="url(#filter2_d_1450_578)">
<g filter="url(#filter3_d_1450_578)">
<path d="M144.635 159.577V14.2704C144.578 14.2704 144.518 14.2704 144.459 14.2704V-0.000274658C147.191 -0.000274658 149.921 0.0428467 152.608 0.175659C153.4 0.218781 154.15 0.306732 154.899 0.351578C156.838 0.48439 158.774 0.615479 160.668 0.793137C161.594 0.879364 162.476 1.01218 163.355 1.14499C165.118 1.32091 166.879 1.54169 168.599 1.80557C169.478 1.93666 170.36 2.11427 171.241 2.24536C173.002 2.55409 174.72 2.86284 176.438 3.17157C177.276 3.34749 178.112 3.56654 178.949 3.74248C180.667 4.13916 182.429 4.53589 184.147 4.97742C184.896 5.15334 185.644 5.37236 186.438 5.59312C188.199 6.07777 189.961 6.56247 191.722 7.09024C192.428 7.311 193.088 7.57658 193.792 7.79564C195.6 8.36826 197.361 8.94083 199.123 9.60139C199.784 9.82217 200.444 10.0861 201.105 10.3517C202.868 11.0105 204.629 11.716 206.347 12.4214C206.964 12.6853 207.58 12.994 208.24 13.2579C209.958 14.0065 211.676 14.755 213.394 15.5932C214.011 15.902 214.627 16.2089 215.244 16.5177C216.917 17.3542 218.592 18.1907 220.222 19.072C220.838 19.4239 221.455 19.7757 222.071 20.1293C223.701 21.0106 225.331 21.9352 226.918 22.9045C227.489 23.2563 228.106 23.653 228.723 24.0065C230.264 24.9741 231.806 25.9883 233.347 27.0007C233.965 27.3974 234.538 27.8372 235.153 28.2787C236.652 29.2912 238.104 30.3036 239.558 31.4058C240.176 31.8456 240.791 32.3302 241.409 32.8149C242.818 33.8721 244.184 34.9294 245.548 36.0746C246.211 36.6024 246.826 37.1319 247.487 37.7046C248.765 38.7618 250.041 39.8622 251.276 41.0091C251.98 41.58 252.641 42.2406 253.301 42.8581C254.446 43.9585 255.636 45.0606 256.782 46.161C257.487 46.8664 258.146 47.5719 258.851 48.2756L262.023 51.5784C262.729 52.4167 263.432 53.2101 264.181 54.0466C265.107 55.1039 266.031 56.1611 266.956 57.2615C267.705 58.1428 268.453 59.0673 269.203 60.0366C270.04 61.0491 270.831 62.0632 271.625 63.1205C272.418 64.1329 273.212 65.1901 273.96 66.2474C274.666 67.2167 275.324 68.1861 276.03 69.1536C276.823 70.3437 277.617 71.5338 278.41 72.7653C278.981 73.6466 279.555 74.528 280.126 75.4093C280.963 76.7753 281.756 78.0964 282.549 79.4607C282.989 80.2541 283.476 81.0475 283.914 81.8409C284.752 83.338 285.545 84.8799 286.337 86.4219C286.691 87.0824 287.042 87.7861 287.394 88.4467C288.231 90.1214 289.024 91.8393 289.818 93.5571C290.081 94.0849 290.345 94.6575 290.566 95.2301C291.403 97.0808 292.196 98.9746 292.945 100.87C293.12 101.308 293.253 101.705 293.429 102.102C294.221 104.171 294.971 106.243 295.675 108.357C295.763 108.621 295.852 108.885 295.94 109.151C296.689 111.439 297.437 113.732 298.055 116.022L298.141 116.329C301.622 128.708 303.648 141.702 304 155.091C298.01 155.269 291.227 155.445 283.871 155.665C246.326 156.693 194.415 158.139 165.701 158.96C153.804 159.299 145.892 159.529 144.635 159.577Z" fill="#03053A"/>
<path d="M293.429 102.102C294.221 104.171 294.971 106.243 295.675 108.357C295.712 108.47 295.75 108.582 295.788 108.695C295.839 108.847 295.89 108.998 295.94 109.151M293.429 102.102L293.201 102.203C293.2 102.201 293.199 102.199 293.198 102.197M293.429 102.102C293.322 101.859 293.23 101.617 293.136 101.366C293.075 101.205 293.013 101.041 292.945 100.87L258.675 48.4526M293.429 102.102L293.196 102.191C293.196 102.193 293.197 102.195 293.198 102.197M293.198 102.197C293.988 104.262 294.736 106.328 295.438 108.436L295.438 108.436C295.476 108.551 295.514 108.664 295.552 108.777C295.602 108.927 295.653 109.077 295.703 109.228M293.198 102.197C293.09 101.952 292.994 101.698 292.897 101.442C292.837 101.283 292.776 101.123 292.713 100.963L292.712 100.962C291.965 99.0696 291.173 97.1796 290.338 95.3331L290.338 95.3333L290.333 95.3201C290.116 94.7571 289.855 94.1921 289.594 93.6689L289.594 93.669L289.591 93.662C288.797 91.9446 288.006 90.2314 287.172 88.5617C286.996 88.2305 286.82 87.8888 286.644 87.549C286.468 87.2077 286.292 86.8683 286.117 86.5399L286.115 86.5361C285.323 84.9936 284.531 83.4556 283.696 81.9631L283.695 81.9618C283.477 81.568 283.248 81.1738 283.016 80.7767L283.004 80.755C282.777 80.3666 282.549 79.9754 282.332 79.5839C281.541 78.2234 280.749 76.9056 279.915 75.5426C279.634 75.1093 279.352 74.6759 279.071 74.2424L279.058 74.2235C278.772 73.7828 278.486 73.342 278.2 72.9012L278.2 72.9007C277.409 71.6726 276.617 70.4856 275.825 69.2968C275.472 68.8124 275.131 68.3279 274.791 67.8451L274.777 67.826C274.44 67.3476 274.105 66.871 273.758 66.3945L273.756 66.3919C273.01 65.3384 272.219 64.2844 271.428 63.2747L271.425 63.2705C270.633 62.2158 269.844 61.2048 269.011 60.1959L269.01 60.1959L269.006 60.1897C268.258 59.2231 267.511 58.3016 266.765 57.4233L266.765 57.4223C265.842 56.3245 264.92 55.2695 263.994 54.2124M295.703 109.228L295.94 109.151M295.703 109.228C295.703 109.229 295.703 109.229 295.703 109.229L295.94 109.151M295.703 109.228C296.452 111.518 297.198 113.804 297.814 116.087L297.814 116.09L297.901 116.397C301.354 128.679 303.374 141.568 303.744 154.849M295.94 109.151C296.689 111.439 297.437 113.732 298.055 116.022L298.141 116.329C301.622 128.708 303.648 141.702 304 155.091M303.744 154.849C303.827 154.846 303.91 154.844 303.993 154.841L304 155.091M303.744 154.849C303.746 154.932 303.748 155.015 303.75 155.098L304 155.091M303.744 154.849C301.111 154.926 298.325 155.004 295.406 155.085C291.754 155.187 287.893 155.295 283.863 155.415M304 155.091C301.293 155.171 298.423 155.251 295.412 155.335C291.761 155.437 287.902 155.544 283.871 155.665M283.871 155.665L283.864 155.415C283.864 155.415 283.863 155.415 283.863 155.415M283.871 155.665L283.863 155.415C283.863 155.415 283.863 155.415 283.863 155.415M283.871 155.665L193.792 7.79564M283.863 155.415C246.319 156.443 194.408 157.889 165.694 158.71C154.436 159.031 146.745 159.254 144.885 159.318V14.2704V14.0204H144.709V0.249847C147.355 0.252441 149.995 0.296844 152.595 0.425293C152.986 0.446609 153.368 0.479034 153.748 0.512039L153.816 0.517899C154.172 0.548859 154.527 0.579742 154.883 0.601074C154.883 0.601074 154.884 0.601135 154.884 0.601135L155.063 0.613373C156.941 0.742035 158.814 0.870239 160.645 1.04205C161.563 1.12753 162.438 1.25925 163.318 1.39218L163.331 1.39407L163.331 1.39375C165.089 1.56926 166.846 1.78949 168.561 2.05267L168.562 2.05284C168.997 2.11765 169.432 2.19398 169.872 2.27103L169.876 2.27171C170.315 2.34862 170.758 2.42618 171.201 2.49217C172.957 2.79996 174.669 3.10776 176.382 3.41566L176.386 3.41624C176.387 3.41649 176.389 3.41672 176.39 3.41696C176.804 3.50398 177.219 3.60175 177.636 3.70033L177.645 3.70226C178.059 3.80002 178.477 3.89859 178.895 3.98657C179.164 4.04877 179.434 4.11093 179.705 4.17323C181.164 4.50862 182.64 4.84819 184.085 5.21954L184.09 5.22084C184.682 5.35991 185.273 5.52603 185.893 5.70024C186.05 5.7444 186.209 5.78908 186.371 5.83397L186.371 5.83417L186.422 5.84804C188.166 6.32805 189.908 6.80763 191.649 7.32924C191.993 7.437 192.327 7.55585 192.666 7.67638L192.674 7.67912C193.015 7.80028 193.36 7.9231 193.718 8.03435M193.718 8.03435L193.792 7.79564M193.718 8.03435C193.717 8.03423 193.717 8.03409 193.717 8.03397L193.792 7.79564M193.718 8.03435C195.524 8.60661 197.28 9.17747 199.036 9.83549L199.044 9.83865L199.044 9.8385C199.696 10.0566 200.35 10.3177 201.012 10.5836L201.017 10.5859C202.776 11.2432 204.534 11.9473 206.25 12.6519M193.792 7.79564C195.6 8.36826 197.361 8.94083 199.123 9.60139C199.784 9.82217 200.444 10.0861 201.105 10.3517C202.868 11.0105 204.629 11.716 206.347 12.4214M206.25 12.6519C206.249 12.6517 206.249 12.6515 206.248 12.6513L206.347 12.4214M206.25 12.6519C206.25 12.6522 206.251 12.6524 206.252 12.6526L206.347 12.4214M206.25 12.6519C206.489 12.7543 206.739 12.8683 206.994 12.9851C207.368 13.1561 207.755 13.3331 208.144 13.4886M206.347 12.4214C206.6 12.5299 206.854 12.646 207.11 12.7634C207.478 12.9316 207.851 13.1025 208.24 13.2579M208.24 13.2579L208.14 13.4871C208.142 13.4876 208.143 13.4881 208.144 13.4886M208.24 13.2579L208.241 13.2584C209.959 14.0068 211.676 14.7552 213.394 15.5932M208.24 13.2579L208.148 13.4901C208.146 13.4896 208.145 13.4891 208.144 13.4886M208.144 13.4886C209.861 14.237 211.573 14.983 213.284 15.8179M213.394 15.5932L213.282 15.8168C213.283 15.8172 213.283 15.8176 213.284 15.8179M213.394 15.5932C213.703 15.7476 214.011 15.9015 214.319 16.0555C214.627 16.2094 214.936 16.3633 215.244 16.5177L215.307 16.549C216.959 17.3751 218.613 18.2017 220.222 19.072M213.394 15.5932L213.284 15.8179M213.284 15.8179C213.592 15.972 213.9 16.1256 214.207 16.2791C214.516 16.4331 214.824 16.5869 215.133 16.7413L215.194 16.7722C216.847 17.5983 218.496 18.4228 220.101 19.2906M220.222 19.072L220.098 19.2891C220.099 19.2896 220.1 19.2901 220.101 19.2906M220.222 19.072C220.388 19.167 220.555 19.2619 220.721 19.3569C221.171 19.6139 221.621 19.8711 222.071 20.1293C223.701 21.0106 225.331 21.9352 226.918 22.9045M220.222 19.072L220.103 19.2919C220.102 19.2915 220.102 19.291 220.101 19.2906M220.101 19.2906C220.716 19.6422 221.332 19.9932 221.947 20.3461L221.952 20.3493C223.579 21.2289 225.205 22.151 226.787 23.1175M226.787 23.1175C226.787 23.1174 226.787 23.1174 226.786 23.1173L226.918 22.9045M226.787 23.1175C226.787 23.1176 226.787 23.1177 226.787 23.1178L226.918 22.9045M226.787 23.1175C226.937 23.2102 227.092 23.3066 227.249 23.405C227.683 23.6754 228.14 23.9603 228.595 24.221M226.918 22.9045C227.07 22.9986 227.227 23.096 227.385 23.1949C227.819 23.4655 228.271 23.7476 228.723 24.0065M228.723 24.0065L228.59 24.2182C228.592 24.2191 228.593 24.2201 228.595 24.221M228.723 24.0065C230.205 24.9372 231.688 25.911 233.171 26.8848L233.347 27.0007C233.791 27.2857 234.211 27.5929 234.641 27.907C234.81 28.0302 234.98 28.1544 235.153 28.2787C236.652 29.2912 238.104 30.3036 239.558 31.4058C240.158 31.8331 240.757 32.3029 241.357 32.7738L241.409 32.8149C242.818 33.8721 244.184 34.9294 245.548 36.0746C246.211 36.6024 246.826 37.1319 247.487 37.7046C248.765 38.7618 250.041 39.8622 251.276 41.0091C251.805 41.4383 252.31 41.9182 252.809 42.3923C252.973 42.5489 253.137 42.7048 253.301 42.8581M228.723 24.0065L228.599 24.2235C228.598 24.2226 228.596 24.2218 228.595 24.221M228.595 24.221C230.073 25.1497 231.553 26.1215 233.035 27.0949L233.21 27.2097L233.212 27.2111C233.649 27.4917 234.06 27.7922 234.488 28.1046C234.658 28.2286 234.83 28.3546 235.008 28.4819L235.013 28.486C236.51 29.4971 237.958 30.5067 239.407 31.605L239.413 31.6095L239.413 31.6094C240.008 32.0333 240.603 32.4998 241.204 32.9718L241.255 33.0115L241.259 33.0149L241.259 33.0149C242.666 34.0707 244.028 35.125 245.388 36.2661L245.393 36.2702L245.393 36.2701C246.05 36.7944 246.663 37.3209 247.323 37.8935L247.328 37.8972L247.328 37.8972C248.603 38.9523 249.876 40.0495 251.106 41.1923L251.112 41.198L251.119 41.2033C251.639 41.6257 252.134 42.0959 252.631 42.5683C252.796 42.7258 252.962 42.8836 253.129 43.0399M253.129 43.0399C253.129 43.0394 253.128 43.0389 253.128 43.0384L253.301 42.8581M253.129 43.0399C253.13 43.0402 253.13 43.0405 253.13 43.0407L253.301 42.8581M253.129 43.0399C253.702 43.5899 254.285 44.1402 254.868 44.6896L254.87 44.6914C255.453 45.2415 256.035 45.7907 256.606 46.3394M253.301 42.8581C253.874 43.4082 254.457 43.9588 255.041 44.5094C255.625 45.0601 256.209 45.6107 256.782 46.161M256.782 46.161L256.605 46.3378C256.605 46.3383 256.606 46.3388 256.606 46.3394M256.782 46.161C257.128 46.5075 257.464 46.8541 257.799 47.2004C258.146 47.5591 258.492 47.9176 258.851 48.2756M256.782 46.161L256.608 46.3412C256.608 46.3406 256.607 46.34 256.606 46.3394M256.606 46.3394C256.951 46.6837 257.284 47.0284 257.619 47.3745L257.637 47.3928C257.977 47.7444 258.319 48.0976 258.673 48.4506L258.671 48.4487L258.851 48.2756M258.851 48.2756L258.675 48.4526M258.851 48.2756L262.023 51.5784M258.675 48.4526L271.625 63.1205C270.831 62.0632 270.04 61.0491 269.203 60.0366C268.453 59.0673 267.705 58.1428 266.956 57.2615C266.031 56.1611 265.107 55.1039 264.181 54.0466M258.675 48.4526L261.837 51.7458M262.023 51.5784C262.729 52.4167 263.432 53.2101 264.181 54.0466M262.023 51.5784L261.843 51.7516L261.837 51.7458M262.023 51.5784L261.832 51.7394C261.834 51.7415 261.835 51.7436 261.837 51.7458M264.181 54.0466L263.995 54.2133C263.994 54.213 263.994 54.2127 263.994 54.2124M264.181 54.0466L263.993 54.2113C263.993 54.2117 263.993 54.2121 263.994 54.2124M263.994 54.2124C263.247 53.378 262.543 52.5844 261.837 51.7458" stroke="white" stroke-width="0.5"/>
</g>
<g filter="url(#filter4_d_1450_578)">
<path d="M199.12 98.0742V95.3142H192.82V93.5142L199.52 83.9742H201.6V93.3542H203.62V95.3142H201.6V98.0742H199.12ZM199.12 93.3542V87.0142H199.6L194.74 93.9542V93.3542H199.12ZM209.992 98.2742C208.339 98.2742 207.066 97.6476 206.172 96.3942C205.279 95.1276 204.832 93.3276 204.832 90.9942C204.832 88.6342 205.279 86.8409 206.172 85.6142C207.066 84.3876 208.339 83.7742 209.992 83.7742C211.659 83.7742 212.932 84.3876 213.812 85.6142C214.706 86.8409 215.152 88.6276 215.152 90.9742C215.152 93.3209 214.706 95.1276 213.812 96.3942C212.932 97.6476 211.659 98.2742 209.992 98.2742ZM209.992 96.1542C210.899 96.1542 211.572 95.7409 212.012 94.9142C212.452 94.0742 212.672 92.7609 212.672 90.9742C212.672 89.1876 212.452 87.8942 212.012 87.0942C211.572 86.2809 210.899 85.8742 209.992 85.8742C209.099 85.8742 208.426 86.2809 207.972 87.0942C207.532 87.8942 207.312 89.1876 207.312 90.9742C207.312 92.7609 207.532 94.0742 207.972 94.9142C208.426 95.7409 209.099 96.1542 209.992 96.1542ZM222.404 98.0742H220.264L228.584 83.9742H230.724L222.404 98.0742ZM220.424 92.3942C219.291 92.3942 218.404 92.0076 217.764 91.2342C217.124 90.4609 216.804 89.4076 216.804 88.0742C216.804 86.7276 217.124 85.6742 217.764 84.9142C218.418 84.1542 219.304 83.7742 220.424 83.7742C221.558 83.7742 222.444 84.1609 223.084 84.9342C223.724 85.7076 224.044 86.7542 224.044 88.0742C224.044 89.4076 223.724 90.4609 223.084 91.2342C222.444 92.0076 221.558 92.3942 220.424 92.3942ZM220.424 90.7942C220.918 90.7942 221.298 90.5742 221.564 90.1342C221.844 89.6942 221.984 89.0076 221.984 88.0742C221.984 87.1276 221.844 86.4476 221.564 86.0342C221.298 85.6076 220.918 85.3942 220.424 85.3942C219.931 85.3942 219.544 85.6009 219.264 86.0142C218.998 86.4276 218.864 87.1142 218.864 88.0742C218.864 89.0342 218.998 89.7276 219.264 90.1542C219.544 90.5809 219.931 90.7942 220.424 90.7942ZM230.564 98.2742C229.431 98.2742 228.544 97.8876 227.904 97.1142C227.264 96.3276 226.944 95.2676 226.944 93.9342C226.944 92.5876 227.264 91.5409 227.904 90.7942C228.558 90.0342 229.444 89.6542 230.564 89.6542C231.698 89.6542 232.584 90.0409 233.224 90.8142C233.864 91.5742 234.184 92.6142 234.184 93.9342C234.184 95.2676 233.864 96.3276 233.224 97.1142C232.584 97.8876 231.698 98.2742 230.564 98.2742ZM230.564 96.6542C231.058 96.6542 231.438 96.4409 231.704 96.0142C231.984 95.5742 232.124 94.8809 232.124 93.9342C232.124 92.9876 231.984 92.3076 231.704 91.8942C231.438 91.4676 231.058 91.2542 230.564 91.2542C230.071 91.2542 229.684 91.4676 229.404 91.8942C229.138 92.3076 229.004 92.9876 229.004 93.9342C229.004 94.8942 229.138 95.5876 229.404 96.0142C229.684 96.4409 230.071 96.6542 230.564 96.6542Z" fill="white"/>
<path d="M199.12 98.0742H198.62V98.5742H199.12V98.0742ZM199.12 95.3142H199.62V94.8142H199.12V95.3142ZM192.82 95.3142H192.32V95.8142H192.82V95.3142ZM192.82 93.5142L192.411 93.2269L192.32 93.3562V93.5142H192.82ZM199.52 83.9742V83.4742H199.26L199.111 83.6869L199.52 83.9742ZM201.6 83.9742H202.1V83.4742H201.6V83.9742ZM201.6 93.3542H201.1V93.8542H201.6V93.3542ZM203.62 93.3542H204.12V92.8542H203.62V93.3542ZM203.62 95.3142V95.8142H204.12V95.3142H203.62ZM201.6 95.3142V94.8142H201.1V95.3142H201.6ZM201.6 98.0742V98.5742H202.1V98.0742H201.6ZM199.12 93.3542V93.8542H199.62V93.3542H199.12ZM199.12 87.0142V86.5142H198.62V87.0142H199.12ZM199.6 87.0142L200.01 87.301L200.561 86.5142H199.6V87.0142ZM194.74 93.9542H194.24V95.5399L195.15 94.241L194.74 93.9542ZM194.74 93.3542V92.8542H194.24V93.3542H194.74ZM199.62 98.0742V95.3142H198.62V98.0742H199.62ZM199.12 94.8142H192.82V95.8142H199.12V94.8142ZM193.32 95.3142V93.5142H192.32V95.3142H193.32ZM193.229 93.8016L199.929 84.2616L199.111 83.6869L192.411 93.2269L193.229 93.8016ZM199.52 84.4742H201.6V83.4742H199.52V84.4742ZM201.1 83.9742V93.3542H202.1V83.9742H201.1ZM201.6 93.8542H203.62V92.8542H201.6V93.8542ZM203.12 93.3542V95.3142H204.12V93.3542H203.12ZM203.62 94.8142H201.6V95.8142H203.62V94.8142ZM201.1 95.3142V98.0742H202.1V95.3142H201.1ZM201.6 97.5742H199.12V98.5742H201.6V97.5742ZM199.62 93.3542V87.0142H198.62V93.3542H199.62ZM199.12 87.5142H199.6V86.5142H199.12V87.5142ZM199.19 86.7274L194.33 93.6674L195.15 94.241L200.01 87.301L199.19 86.7274ZM195.24 93.9542V93.3542H194.24V93.9542H195.24ZM194.74 93.8542H199.12V92.8542H194.74V93.8542ZM206.172 96.3942L205.764 96.6824L205.765 96.6844L206.172 96.3942ZM206.172 85.6142L205.768 85.3199L206.172 85.6142ZM213.812 85.6142L213.406 85.9057L213.408 85.9086L213.812 85.6142ZM213.812 96.3942L213.404 96.106L213.403 96.1069L213.812 96.3942ZM212.012 94.9142L212.454 95.1491L212.455 95.1462L212.012 94.9142ZM212.012 87.0942L211.572 87.3321L211.574 87.3352L212.012 87.0942ZM207.972 87.0942L207.535 86.8508L207.534 86.8533L207.972 87.0942ZM207.972 94.9142L207.529 95.1463L207.534 95.1546L207.972 94.9142ZM209.992 97.7742C208.486 97.7742 207.371 97.2147 206.579 96.104L205.765 96.6844C206.76 98.0805 208.191 98.7742 209.992 98.7742V97.7742ZM206.581 96.106C205.77 94.9565 205.332 93.2735 205.332 90.9942H204.332C204.332 93.3816 204.788 95.2986 205.764 96.6824L206.581 96.106ZM205.332 90.9942C205.332 88.6852 205.771 87.0141 206.576 85.9086L205.768 85.3199C204.786 86.6677 204.332 88.5833 204.332 90.9942H205.332ZM206.576 85.9086C207.366 84.824 208.482 84.2742 209.992 84.2742V83.2742C208.196 83.2742 206.765 83.9511 205.768 85.3199L206.576 85.9086ZM209.992 84.2742C211.517 84.2742 212.631 84.825 213.406 85.9057L214.218 85.3228C213.234 83.9501 211.8 83.2742 209.992 83.2742V84.2742ZM213.408 85.9086C214.213 87.0145 214.652 88.6792 214.652 90.9742H215.652C215.652 88.5759 215.198 86.6673 214.216 85.3199L213.408 85.9086ZM214.652 90.9742C214.652 93.2676 214.214 94.9569 213.404 96.106L214.221 96.6824C215.197 95.2982 215.652 93.3742 215.652 90.9742H214.652ZM213.403 96.1069C212.626 97.2137 211.513 97.7742 209.992 97.7742V98.7742C211.805 98.7742 213.238 98.0814 214.221 96.6815L213.403 96.1069ZM209.992 96.6542C210.524 96.6542 211.012 96.5321 211.439 96.2703C211.864 96.0091 212.2 95.6264 212.454 95.1491L211.571 94.6793C211.385 95.0287 211.163 95.266 210.916 95.4181C210.669 95.5697 210.367 95.6542 209.992 95.6542V96.6542ZM212.455 95.1462C212.953 94.1959 213.172 92.7822 213.172 90.9742H212.172C212.172 92.7396 211.951 93.9525 211.569 94.6822L212.455 95.1462ZM213.172 90.9742C213.172 89.1695 212.954 87.769 212.45 86.8533L211.574 87.3352C211.95 88.0195 212.172 89.2056 212.172 90.9742H213.172ZM212.452 86.8563C212.197 86.3851 211.861 86.0082 211.436 85.7512C211.01 85.494 210.522 85.3742 209.992 85.3742V86.3742C210.369 86.3742 210.671 86.4578 210.919 86.6072C211.167 86.7569 211.387 86.99 211.572 87.3321L212.452 86.8563ZM209.992 85.3742C209.467 85.3742 208.984 85.4947 208.559 85.7512C208.135 86.0072 207.797 86.3822 207.535 86.8508L208.409 87.3376C208.601 86.9929 208.826 86.7579 209.076 86.6072C209.324 86.4571 209.624 86.3742 209.992 86.3742V85.3742ZM207.534 86.8533C207.03 87.769 206.812 89.1695 206.812 90.9742H207.812C207.812 89.2056 208.034 88.0195 208.41 87.3352L207.534 86.8533ZM206.812 90.9742C206.812 92.7822 207.031 94.1959 207.529 95.1462L208.415 94.6822C208.033 93.9525 207.812 92.7396 207.812 90.9742H206.812ZM207.534 95.1546C207.794 95.6294 208.132 96.0101 208.556 96.2703C208.981 96.5314 209.466 96.6542 209.992 96.6542V95.6542C209.625 95.6542 209.327 95.5704 209.079 95.4181C208.829 95.265 208.604 95.0257 208.411 94.6738L207.534 95.1546ZM222.404 98.0742V98.5742H222.69L222.835 98.3283L222.404 98.0742ZM220.264 98.0742L219.834 97.8201L219.389 98.5742H220.264V98.0742ZM228.584 83.9742V83.4742H228.299L228.154 83.7201L228.584 83.9742ZM230.724 83.9742L231.155 84.2283L231.6 83.4742H230.724V83.9742ZM217.764 91.2342L217.379 91.553L217.764 91.2342ZM217.764 84.9142L217.385 84.5883L217.382 84.5921L217.764 84.9142ZM223.084 84.9342L222.699 85.253L223.084 84.9342ZM221.564 90.1342L221.142 89.8657L221.137 89.8751L221.564 90.1342ZM221.564 86.0342L221.14 86.2992L221.145 86.307L221.15 86.3146L221.564 86.0342ZM219.264 86.0142L218.85 85.7337L218.844 85.7432L219.264 86.0142ZM219.264 90.1542L218.84 90.4193L218.846 90.4285L219.264 90.1542ZM227.904 97.1142L227.517 97.4298L227.519 97.433L227.904 97.1142ZM227.904 90.7942L227.525 90.4683L227.525 90.4688L227.904 90.7942ZM233.224 90.8142L232.839 91.133L232.842 91.1363L233.224 90.8142ZM233.224 97.1142L233.61 97.433L233.612 97.4298L233.224 97.1142ZM231.704 96.0142L231.283 95.7458L231.28 95.7492L231.704 96.0142ZM231.704 91.8942L231.28 92.1592L231.285 92.167L231.29 92.1746L231.704 91.8942ZM229.404 91.8942L228.986 91.6199L228.984 91.6232L229.404 91.8942ZM229.404 96.0142L228.98 96.2793L228.986 96.2885L229.404 96.0142ZM222.404 97.5742H220.264V98.5742H222.404V97.5742ZM220.695 98.3283L229.015 84.2283L228.154 83.7201L219.834 97.8201L220.695 98.3283ZM228.584 84.4742H230.724V83.4742H228.584V84.4742ZM230.294 83.7201L221.974 97.8201L222.835 98.3283L231.155 84.2283L230.294 83.7201ZM220.424 91.8942C219.418 91.8942 218.682 91.5583 218.15 90.9154L217.379 91.553C218.127 92.4568 219.164 92.8942 220.424 92.8942V91.8942ZM218.15 90.9154C217.605 90.2575 217.304 89.3296 217.304 88.0742H216.304C216.304 89.4855 216.644 90.6643 217.379 91.553L218.15 90.9154ZM217.304 88.0742C217.304 86.8034 217.606 85.8785 218.147 85.2363L217.382 84.5921C216.643 85.4699 216.304 86.6517 216.304 88.0742H217.304ZM218.144 85.2402C218.69 84.6044 219.431 84.2742 220.424 84.2742V83.2742C219.178 83.2742 218.145 83.704 217.385 84.5883L218.144 85.2402ZM220.424 84.2742C221.43 84.2742 222.167 84.6101 222.699 85.253L223.47 84.6154C222.722 83.7116 221.685 83.2742 220.424 83.2742V84.2742ZM222.699 85.253C223.244 85.9118 223.544 86.8336 223.544 88.0742H224.544C224.544 86.6749 224.204 85.5033 223.47 84.6154L222.699 85.253ZM223.544 88.0742C223.544 89.3296 223.244 90.2575 222.699 90.9154L223.47 91.553C224.205 90.6643 224.544 89.4855 224.544 88.0742H223.544ZM222.699 90.9154C222.167 91.5583 221.43 91.8942 220.424 91.8942V92.8942C221.685 92.8942 222.722 92.4568 223.47 91.553L222.699 90.9154ZM220.424 91.2942C221.102 91.2942 221.639 90.9751 221.992 90.3934L221.137 89.8751C220.956 90.1734 220.734 90.2942 220.424 90.2942V91.2942ZM221.986 90.4027C222.344 89.8411 222.484 89.0375 222.484 88.0742H221.484C221.484 88.9776 221.345 89.5473 221.143 89.8658L221.986 90.4027ZM222.484 88.0742C222.484 87.1037 222.346 86.296 221.978 85.7538L221.15 86.3146C221.343 86.5991 221.484 87.1514 221.484 88.0742H222.484ZM221.988 85.7692C221.633 85.1999 221.094 84.8942 220.424 84.8942V85.8942C220.741 85.8942 220.963 86.0152 221.14 86.2992L221.988 85.7692ZM220.424 84.8942C219.763 84.8942 219.222 85.1851 218.85 85.7338L219.678 86.2946C219.867 86.0167 220.099 85.8942 220.424 85.8942V84.8942ZM218.844 85.7432C218.496 86.2836 218.364 87.0943 218.364 88.0742H219.364C219.364 87.1341 219.5 86.5715 219.685 86.2853L218.844 85.7432ZM218.364 88.0742C218.364 89.0564 218.496 89.8688 218.84 90.4192L219.688 89.8892C219.499 89.5863 219.364 89.012 219.364 88.0742H218.364ZM218.846 90.4285C219.215 90.9902 219.756 91.2942 220.424 91.2942V90.2942C220.106 90.2942 219.874 90.1716 219.682 89.8799L218.846 90.4285ZM230.564 97.7742C229.558 97.7742 228.822 97.4383 228.29 96.7954L227.519 97.433C228.267 98.3368 229.304 98.7742 230.564 98.7742V97.7742ZM228.292 96.7987C227.745 96.1259 227.444 95.1891 227.444 93.9342H226.444C226.444 95.346 226.784 96.5292 227.517 97.4298L228.292 96.7987ZM227.444 93.9342C227.444 92.6628 227.746 91.747 228.284 91.1196L227.525 90.4688C226.783 91.3348 226.444 92.5123 226.444 93.9342H227.444ZM228.284 91.1202C228.83 90.4844 229.571 90.1542 230.564 90.1542V89.1542C229.318 89.1542 228.285 89.584 227.525 90.4683L228.284 91.1202ZM230.564 90.1542C231.57 90.1542 232.307 90.4901 232.839 91.133L233.61 90.4954C232.862 89.5916 231.825 89.1542 230.564 89.1542V90.1542ZM232.842 91.1363C233.384 91.7802 233.684 92.693 233.684 93.9342H234.684C234.684 92.5354 234.345 91.3682 233.607 90.4922L232.842 91.1363ZM233.684 93.9342C233.684 95.1891 233.384 96.1259 232.837 96.7987L233.612 97.4298C234.345 96.5292 234.684 95.346 234.684 93.9342H233.684ZM232.839 96.7954C232.307 97.4383 231.57 97.7742 230.564 97.7742V98.7742C231.825 98.7742 232.862 98.3368 233.61 97.433L232.839 96.7954ZM230.564 97.1542C231.234 97.1542 231.773 96.8485 232.128 96.2792L231.28 95.7492C231.103 96.0332 230.881 96.1542 230.564 96.1542V97.1542ZM232.126 96.2827C232.484 95.7203 232.624 94.9092 232.624 93.9342H231.624C231.624 94.8526 231.485 95.4281 231.283 95.7458L232.126 96.2827ZM232.624 93.9342C232.624 92.9637 232.486 92.156 232.118 91.6138L231.29 92.1746C231.483 92.4591 231.624 93.0114 231.624 93.9342H232.624ZM232.128 91.6292C231.773 91.0599 231.234 90.7542 230.564 90.7542V91.7542C230.881 91.7542 231.103 91.8752 231.28 92.1592L232.128 91.6292ZM230.564 90.7542C229.896 90.7542 229.355 91.0582 228.986 91.6199L229.822 92.1685C230.014 91.8769 230.246 91.7542 230.564 91.7542V90.7542ZM228.984 91.6232C228.636 92.1629 228.504 92.966 228.504 93.9342H229.504C229.504 93.0091 229.639 92.4522 229.825 92.1653L228.984 91.6232ZM228.504 93.9342C228.504 94.9164 228.636 95.7288 228.98 96.2792L229.828 95.7492C229.639 95.4463 229.504 94.872 229.504 93.9342H228.504ZM228.986 96.2885C229.355 96.8502 229.896 97.1542 230.564 97.1542V96.1542C230.246 96.1542 230.014 96.0316 229.822 95.7399L228.986 96.2885Z" fill="white"/>
</g>
</g>
<defs>
<filter id="filter0_d_1450_578" x="0" y="33.6416" width="288.917" height="288.918" filterUnits="userSpaceOnUse" color-interpolation-filters="sRGB">
<feFlood flood-opacity="0" result="BackgroundImageFix"/>
<feColorMatrix in="SourceAlpha" type="matrix" values="0 0 0 0 0 0 0 0 0 0 0 0 0 0 0 0 0 0 127 0" result="hardAlpha"/>
<feOffset dy="4"/>
<feGaussianBlur stdDeviation="2.5"/>
<feComposite in2="hardAlpha" operator="out"/>
<feColorMatrix type="matrix" values="0 0 0 0 0 0 0 0 0 0 0 0 0 0 0 0 0 0 0.25 0"/>
<feBlend mode="normal" in2="BackgroundImageFix" result="effect1_dropShadow_1450_578"/>
<feBlend mode="normal" in="SourceGraphic" in2="effect1_dropShadow_1450_578" result="shape"/>
</filter>
<filter id="filter1_d_1450_578" x="103.74" y="211.774" width="45.4443" height="18.5" filterUnits="userSpaceOnUse" color-interpolation-filters="sRGB">
<feFlood flood-opacity="0" result="BackgroundImageFix"/>
<feColorMatrix in="SourceAlpha" type="matrix" values="0 0 0 0 0 0 0 0 0 0 0 0 0 0 0 0 0 0 127 0" result="hardAlpha"/>
<feOffset dx="2" dy="2"/>
<feGaussianBlur stdDeviation="1"/>
<feComposite in2="hardAlpha" operator="out"/>
<feColorMatrix type="matrix" values="0 0 0 0 0 0 0 0 0 0 0 0 0 0 0 0 0 0 0.25 0"/>
<feBlend mode="normal" in2="BackgroundImageFix" result="effect1_dropShadow_1450_578"/>
<feBlend mode="normal" in="SourceGraphic" in2="effect1_dropShadow_1450_578" result="shape"/>
</filter>
<filter id="filter2_d_1450_578" x="140.459" y="0" width="167.541" height="167.577" filterUnits="userSpaceOnUse" color-interpolation-filters="sRGB">
<feFlood flood-opacity="0" result="BackgroundImageFix"/>
<feColorMatrix in="SourceAlpha" type="matrix" values="0 0 0 0 0 0 0 0 0 0 0 0 0 0 0 0 0 0 127 0" result="hardAlpha"/>
<feOffset dy="4"/>
<feGaussianBlur stdDeviation="2"/>
<feComposite in2="hardAlpha" operator="out"/>
<feColorMatrix type="matrix" values="0 0 0 0 0 0 0 0 0 0 0 0 0 0 0 0 0 0 0.25 0"/>
<feBlend mode="normal" in2="BackgroundImageFix" result="effect1_dropShadow_1450_578"/>
<feBlend mode="normal" in="SourceGraphic" in2="effect1_dropShadow_1450_578" result="shape"/>
</filter>
<filter id="filter3_d_1450_578" x="140.459" y="0" width="167.541" height="167.577" filterUnits="userSpaceOnUse" color-interpolation-filters="sRGB">
<feFlood flood-opacity="0" result="BackgroundImageFix"/>
<feColorMatrix in="SourceAlpha" type="matrix" values="0 0 0 0 0 0 0 0 0 0 0 0 0 0 0 0 0 0 127 0" result="hardAlpha"/>
<feOffset dy="4"/>
<feGaussianBlur stdDeviation="2"/>
<feComposite in2="hardAlpha" operator="out"/>
<feColorMatrix type="matrix" values="0 0 0 0 0 0 0 0 0 0 0 0 0 0 0 0 0 0 0.25 0"/>
<feBlend mode="normal" in2="BackgroundImageFix" result="effect1_dropShadow_1450_578"/>
<feBlend mode="normal" in="SourceGraphic" in2="effect1_dropShadow_1450_578" result="shape"/>
</filter>
<filter id="filter4_d_1450_578" x="192.82" y="83.7744" width="45.3647" height="18.5" filterUnits="userSpaceOnUse" color-interpolation-filters="sRGB">
<feFlood flood-opacity="0" result="BackgroundImageFix"/>
<feColorMatrix in="SourceAlpha" type="matrix" values="0 0 0 0 0 0 0 0 0 0 0 0 0 0 0 0 0 0 127 0" result="hardAlpha"/>
<feOffset dx="2" dy="2"/>
<feGaussianBlur stdDeviation="1"/>
<feComposite in2="hardAlpha" operator="out"/>
<feColorMatrix type="matrix" values="0 0 0 0 0 0 0 0 0 0 0 0 0 0 0 0 0 0 0.25 0"/>
<feBlend mode="normal" in2="BackgroundImageFix" result="effect1_dropShadow_1450_578"/>
<feBlend mode="normal" in="SourceGraphic" in2="effect1_dropShadow_1450_578" result="shape"/>
</filter>
<linearGradient id="paint0_linear_1450_578" x1="144.459" y1="34.6416" x2="144.459" y2="313.559" gradientUnits="userSpaceOnUse">
<stop stop-color="#3C52AC"/>
<stop offset="1" stop-color="#58C9F5"/>
</linearGradient>
</defs>
</svg>
