<svg width="172" height="59" viewBox="0 0 172 59" fill="none" xmlns="http://www.w3.org/2000/svg">
<path d="M1.23547 24.0653C2.06038 22.5564 3.20841 21.3785 4.67957 20.5356C6.15072 19.6926 7.82336 19.2692 9.68986 19.2692C11.9783 19.2692 13.9361 19.8812 15.5631 21.1052C17.1901 22.3293 18.2811 23.996 18.8285 26.1092H13.67C13.286 25.2932 12.7424 24.6735 12.0353 24.2462C11.3321 23.8189 10.53 23.6072 9.63284 23.6072C8.18829 23.6072 7.01745 24.1153 6.12031 25.1354C5.22317 26.1554 4.7746 27.518 4.7746 29.2194C4.7746 30.9207 5.22317 32.2872 6.12031 33.3034C7.01745 34.3235 8.18829 34.8315 9.63284 34.8315C10.53 34.8315 11.3283 34.6198 12.0353 34.1926C12.7386 33.7653 13.286 33.1456 13.67 32.3296H18.8285C18.2811 34.4428 17.1901 36.1056 15.5631 37.3181C13.9361 38.5306 11.9745 39.1388 9.68986 39.1388C7.82336 39.1388 6.15453 38.7193 4.67957 37.8724C3.20461 37.0295 2.05658 35.8593 1.23547 34.3581C0.410555 32.8646 0 31.1478 0 29.2232C0 27.2948 0.410555 25.578 1.23547 24.0653Z" fill="#0247FF"/>
<path d="M34.2548 25.093C35.3154 26.2709 35.8476 27.8876 35.8476 29.9431V39.0041H31.1794V30.582C31.1794 29.5427 30.9133 28.7382 30.3849 28.1647C29.8527 27.5912 29.1419 27.3025 28.2447 27.3025C27.3476 27.3025 26.6329 27.5912 26.1045 28.1647C25.5723 28.7382 25.31 29.5466 25.31 30.582V39.0041H20.6152V18.4377H25.31V25.5819C25.7852 24.8967 26.4352 24.3501 27.2601 23.9421C28.0851 23.5341 29.0088 23.3301 30.0314 23.3301C31.7839 23.3301 33.1942 23.919 34.2548 25.093Z" fill="#0247FF"/>
<path d="M37.9765 27.0253C38.5695 25.8205 39.3792 24.8929 40.4056 24.2462C41.432 23.5995 42.5724 23.2723 43.8383 23.2723C44.9179 23.2723 45.8645 23.4956 46.678 23.9383C47.4915 24.3848 48.1187 24.966 48.5597 25.6896V23.4917H53.2545V39.0002H48.5597V36.8062C48.1035 37.5298 47.4649 38.1111 46.6514 38.5576C45.8379 39.0041 44.8913 39.2235 43.8117 39.2235C42.5686 39.2235 41.432 38.8963 40.4094 38.2381C39.383 37.5799 38.5733 36.6445 37.9803 35.432C37.3873 34.2195 37.087 32.8145 37.087 31.221C37.0831 29.6274 37.3797 28.2301 37.9765 27.0253ZM47.5827 28.4418C46.9327 27.7567 46.142 27.4141 45.2068 27.4141C44.2717 27.4141 43.481 27.7528 42.8309 28.4264C42.1809 29.1039 41.8578 30.0354 41.8578 31.221C41.8578 32.4065 42.1809 33.3457 42.8309 34.0424C43.481 34.7353 44.2717 35.0856 45.2068 35.0856C46.142 35.0856 46.9327 34.743 47.5827 34.0578C48.2328 33.3727 48.5559 32.4373 48.5559 31.2518C48.5559 30.0662 48.2328 29.1308 47.5827 28.4418Z" fill="#0247FF"/>
<path d="M55.8964 21.1476C55.3756 20.6549 55.1133 20.0506 55.1133 19.3269C55.1133 18.5879 55.3756 17.9681 55.8964 17.4793C56.4172 16.9866 57.09 16.7441 57.9149 16.7441C58.7208 16.7441 59.3823 16.9904 59.9031 17.4793C60.4239 17.972 60.6862 18.5879 60.6862 19.3269C60.6862 20.0506 60.4239 20.6549 59.9031 21.1476C59.3823 21.6403 58.717 21.8828 57.9149 21.8828C57.0938 21.8828 56.421 21.6403 55.8964 21.1476ZM60.249 23.4956V39.0041H55.5542V23.4956H60.249Z" fill="#0247FF"/>
<path d="M76.181 25.093C77.253 26.2709 77.7852 27.8876 77.7852 29.943V39.0041H73.1208V30.582C73.1208 29.5427 72.8547 28.7382 72.3263 28.1647C71.7941 27.5912 71.0833 27.3025 70.1861 27.3025C69.289 27.3025 68.5743 27.5912 68.0459 28.1647C67.5137 28.7382 67.2514 29.5466 67.2514 30.582V39.0041H62.5566V23.4956H67.2514V25.5511C67.7266 24.8659 68.369 24.3232 69.1711 23.9267C69.977 23.5302 70.8818 23.3301 71.8892 23.3301C73.6796 23.3301 75.1128 23.919 76.181 25.093Z" fill="#0247FF"/>
<path d="M93.8731 28.873C93.3599 29.8083 92.573 30.5628 91.5124 31.1363C90.4518 31.7098 89.1327 31.9985 87.5589 31.9985H84.6508V39.0041H79.9561V19.4924H87.5589C89.0947 19.4924 90.3948 19.7619 91.4554 20.2969C92.516 20.8358 93.3143 21.5749 93.8427 22.5218C94.3749 23.4648 94.6372 24.5503 94.6372 25.7744C94.641 26.906 94.3863 27.9376 93.8731 28.873ZM89.2087 27.5835C89.6497 27.1562 89.8664 26.5557 89.8664 25.7782C89.8664 25.0007 89.6459 24.4002 89.2087 23.9729C88.7678 23.5457 88.1025 23.334 87.2054 23.334H84.6508V28.2263H87.2054C88.0987 28.2225 88.7678 28.0069 89.2087 27.5835Z" fill="#0247FF"/>
<path d="M95.9443 27.0253C96.5373 25.8205 97.347 24.8929 98.3734 24.2462C99.3998 23.5995 100.54 23.2723 101.806 23.2723C102.886 23.2723 103.832 23.4956 104.646 23.9383C105.459 24.3848 106.086 24.966 106.527 25.6896V23.4917H111.222V39.0002H106.527V36.8062C106.071 37.5298 105.433 38.1111 104.619 38.5576C103.806 39.0041 102.859 39.2235 101.779 39.2235C100.536 39.2235 99.3998 38.8963 98.3772 38.2381C97.3508 37.5799 96.5411 36.6445 95.9481 35.432C95.355 34.2195 95.0547 32.8145 95.0547 31.221C95.0509 29.6274 95.3512 28.2301 95.9443 27.0253ZM105.55 28.4418C104.9 27.7567 104.11 27.4141 103.175 27.4141C102.239 27.4141 101.449 27.7528 100.799 28.4264C100.149 29.1039 99.8255 30.0354 99.8255 31.221C99.8255 32.4065 100.149 33.3457 100.799 34.0424C101.449 34.7353 102.239 35.0856 103.175 35.0856C104.11 35.0856 104.9 34.743 105.55 34.0578C106.201 33.3727 106.524 32.4373 106.524 31.2518C106.527 30.0662 106.201 29.1308 105.55 28.4418Z" fill="#0247FF"/>
<path d="M116.187 38.5306C115.146 38.0687 114.321 37.4336 113.716 36.6253C113.112 35.8208 112.773 34.9162 112.701 33.9154H117.339C117.392 34.4543 117.639 34.8893 118.08 35.2203C118.521 35.5552 119.057 35.7207 119.7 35.7207C120.285 35.7207 120.737 35.6052 121.057 35.3743C121.376 35.1433 121.536 34.8431 121.536 34.4697C121.536 34.0232 121.308 33.696 120.851 33.4843C120.395 33.2726 119.654 33.034 118.628 32.7761C117.529 32.5182 116.613 32.2449 115.883 31.9562C115.149 31.6675 114.518 31.2171 113.99 30.5936C113.458 29.9738 113.195 29.1347 113.195 28.0762C113.195 27.187 113.439 26.3748 113.921 25.6435C114.404 24.9121 115.119 24.3309 116.062 23.9075C117.004 23.4802 118.126 23.2685 119.426 23.2685C121.346 23.2685 122.862 23.7496 123.969 24.7119C125.075 25.6743 125.71 26.9522 125.877 28.5458H121.54C121.467 28.0069 121.232 27.5835 120.84 27.2678C120.445 26.9522 119.928 26.7944 119.289 26.7944C118.742 26.7944 118.32 26.9022 118.027 27.1139C117.734 27.3256 117.586 27.6181 117.586 27.9876C117.586 28.4341 117.818 28.7652 118.285 28.9884C118.753 29.2117 119.479 29.4349 120.468 29.6543C121.6 29.9507 122.528 30.2433 123.239 30.5281C123.953 30.8168 124.581 31.2787 125.12 31.9177C125.66 32.5567 125.938 33.415 125.957 34.489C125.957 35.3974 125.706 36.2096 125.2 36.9217C124.699 37.6338 123.972 38.1958 123.033 38.6038C122.091 39.0118 120.996 39.2158 119.753 39.2158C118.419 39.2273 117.232 38.9964 116.187 38.5306Z" fill="#0247FF"/>
<path d="M130.405 38.5306C129.363 38.0687 128.538 37.4336 127.934 36.6253C127.33 35.8208 126.991 34.9162 126.919 33.9154H131.557C131.61 34.4543 131.857 34.8893 132.298 35.2203C132.739 35.5552 133.275 35.7207 133.917 35.7207C134.503 35.7207 134.955 35.6052 135.275 35.3743C135.594 35.1433 135.753 34.8431 135.753 34.4697C135.753 34.0232 135.525 33.696 135.069 33.4843C134.613 33.2726 133.872 33.034 132.845 32.7761C131.747 32.5182 130.831 32.2449 130.101 31.9562C129.367 31.6675 128.736 31.2171 128.208 30.5936C127.675 29.9738 127.413 29.1347 127.413 28.0762C127.413 27.187 127.656 26.3748 128.139 25.6435C128.622 24.9121 129.337 24.3309 130.279 23.9075C131.222 23.4802 132.344 23.2685 133.644 23.2685C135.563 23.2685 137.08 23.7496 138.186 24.7119C139.293 25.6743 139.927 26.9522 140.095 28.5458H135.757C135.685 28.0069 135.449 27.5835 135.058 27.2678C134.662 26.9522 134.145 26.7944 133.507 26.7944C132.959 26.7944 132.537 26.9022 132.245 27.1139C131.952 27.3256 131.804 27.6181 131.804 27.9876C131.804 28.4341 132.036 28.7652 132.503 28.9884C132.971 29.2117 133.697 29.4349 134.685 29.6543C135.818 29.9507 136.746 30.2433 137.457 30.5281C138.171 30.8168 138.798 31.2787 139.338 31.9177C139.878 32.5567 140.156 33.415 140.175 34.489C140.175 35.3974 139.924 36.2096 139.418 36.9217C138.916 37.6338 138.19 38.1958 137.251 38.6038C136.308 39.0118 135.214 39.2158 133.971 39.2158C132.64 39.2273 131.45 38.9964 130.405 38.5306Z" fill="#0247FF"/>
<path d="M151.377 19.4924V39.0041H146.683V19.4924H151.377Z" fill="#0247FF"/>
<path d="M166.226 20.7165C167.746 21.5325 168.921 22.6757 169.753 24.15C170.586 25.6242 171.004 27.3217 171.004 29.2502C171.004 31.1594 170.59 32.8531 169.753 34.335C168.921 35.817 167.738 36.9679 166.214 37.7801C164.686 38.5961 162.914 39.0041 160.903 39.0041H153.685V19.4924H160.903C162.933 19.4924 164.709 19.9004 166.226 20.7165ZM164.743 33.4189C165.731 32.4373 166.226 31.0478 166.226 29.2502C166.226 27.4526 165.731 26.0553 164.743 25.0545C163.755 24.0538 162.375 23.5534 160.599 23.5534H158.376V34.8931H160.599C162.375 34.8931 163.755 34.4004 164.743 33.4189Z" fill="#0247FF"/>
<path d="M2.12079 45.3976L3.31444 52.6034L7.03225 45.3976H8.94057L4.08233 54.4587H1.90031L0.197266 45.3976H2.12079Z" fill="#0247FF"/>
<path d="M8.2713 54.3009C8.10023 54.1354 8.0166 53.9275 8.0166 53.6773C8.0166 53.3309 8.14585 53.0345 8.40815 52.7882C8.67045 52.5418 8.97456 52.4186 9.3243 52.4186C9.6056 52.4186 9.82989 52.4995 9.99715 52.6573C10.1644 52.819 10.248 53.0268 10.248 53.2886C10.248 53.635 10.1188 53.9314 9.8641 54.1777C9.6094 54.4241 9.30529 54.5473 8.95556 54.5473C8.67045 54.5473 8.44236 54.4664 8.2713 54.3009Z" fill="#0247FF"/>
<path d="M17.0418 52.7304H13.4646L12.5789 54.4587H10.6934L15.5022 45.3861H17.593L19.22 54.4587H17.3231L17.0418 52.7304ZM16.8099 51.3178L16.1674 47.4762L14.1945 51.3178H16.8099Z" fill="#0247FF"/>
<path d="M20.2723 54.3009C20.1012 54.1354 20.0176 53.9275 20.0176 53.6773C20.0176 53.3309 20.1468 53.0345 20.4091 52.7882C20.6714 52.5418 20.9755 52.4186 21.3253 52.4186C21.6066 52.4186 21.8309 52.4995 21.9981 52.6573C22.1654 52.819 22.249 53.0268 22.249 53.2886C22.249 53.635 22.1198 53.9314 21.8651 54.1777C21.6104 54.4241 21.3063 54.5473 20.9565 54.5473C20.6676 54.5473 20.4433 54.4664 20.2723 54.3009Z" fill="#0247FF"/>
<path d="M26.6284 45.3976L25.0508 54.4587H23.2451L24.8341 45.3976H26.6284Z" fill="#0247FF"/>
<path d="M37.4097 45.3976L37.155 46.8257H34.7829L33.4486 54.4587H31.6429L32.9772 46.8257H30.5938L30.8484 45.3976H37.4097Z" fill="#0247FF"/>
<path d="M43.4123 47.9073C43.9407 48.4116 44.2068 49.0929 44.2068 49.9513C44.2068 50.2284 44.184 50.4748 44.1422 50.6903C44.0889 50.9482 44.0357 51.1753 43.9749 51.3639H38.7821C38.7745 51.4255 38.7707 51.5102 38.7707 51.6218C38.7707 52.0722 38.9 52.4263 39.1623 52.6804C39.4246 52.9344 39.7667 53.0653 40.1925 53.0653C40.5498 53.0653 40.8615 52.9845 41.12 52.8266C41.3823 52.665 41.5914 52.4571 41.7549 52.1954H43.6898C43.3743 52.8882 42.8839 53.4579 42.2224 53.9006C41.561 54.3471 40.8121 54.5703 39.972 54.5703C39.0672 54.5703 38.3412 54.3124 37.7938 53.7928C37.2464 53.2732 36.9727 52.5687 36.9727 51.6757C36.9727 51.4178 36.9993 51.1445 37.0487 50.8597C37.1779 50.1168 37.4402 49.4624 37.8356 48.9004C38.2347 48.3385 38.7251 47.9073 39.3181 47.6033C39.9112 47.2992 40.5536 47.149 41.2531 47.149C42.1616 47.149 42.8801 47.4031 43.4123 47.9073ZM42.3859 49.9667C42.3859 49.551 42.2528 49.2276 41.9867 48.9928C41.7206 48.758 41.3747 48.6425 40.949 48.6425C40.4966 48.6425 40.0898 48.7888 39.7325 49.0775C39.3752 49.3662 39.1205 49.7627 38.976 50.2669H42.3593C42.3783 50.1283 42.3859 50.0283 42.3859 49.9667Z" fill="#0247FF"/>
<path d="M45.4878 48.9081C45.8794 48.35 46.3698 47.9189 46.9552 47.611C47.5406 47.303 48.1754 47.149 48.8597 47.149C49.7416 47.149 50.4297 47.3685 50.9315 47.8111C51.4295 48.2538 51.7108 48.8812 51.7716 49.6934H49.8367C49.7834 49.3816 49.6542 49.1391 49.4375 48.9582C49.2246 48.7811 48.9357 48.6926 48.5784 48.6926C48.0652 48.6926 47.628 48.8812 47.2631 49.2584C46.8982 49.6356 46.6587 50.1707 46.537 50.8635C46.4952 51.106 46.4724 51.3139 46.4724 51.4871C46.4724 51.9798 46.5902 52.3609 46.8297 52.6226C47.0692 52.8882 47.4037 53.0191 47.8295 53.0191C48.548 53.0191 49.0764 52.6919 49.4185 52.0337H51.3534C51.0189 52.8112 50.5209 53.431 49.8595 53.889C49.198 54.3471 48.4339 54.578 47.571 54.578C46.6739 54.578 45.9592 54.3201 45.4232 53.8043C44.8872 53.2885 44.6211 52.5918 44.6211 51.7065C44.6211 51.4371 44.6477 51.1561 44.6971 50.8635C44.834 50.1168 45.0925 49.4663 45.4878 48.9081Z" fill="#0247FF"/>
<path d="M58.9411 47.7726C59.3555 48.1806 59.5645 48.7503 59.5645 49.4855C59.5645 49.7627 59.5417 50.0129 59.4999 50.24L58.7548 54.4587H56.972L57.6638 50.4863C57.6904 50.3324 57.7018 50.1784 57.7018 50.0321C57.7018 49.601 57.5878 49.27 57.3635 49.0467C57.1354 48.8235 56.8161 48.708 56.3942 48.708C55.9152 48.708 55.5084 48.8543 55.1777 49.143C54.8432 49.4316 54.6227 49.8474 54.5124 50.3824L53.794 54.4587H51.9883L53.6685 44.8511H55.4742L54.8964 48.1499C55.1853 47.8458 55.5388 47.6071 55.9532 47.4301C56.3675 47.253 56.8047 47.1645 57.2685 47.1645C57.9679 47.1645 58.5268 47.3646 58.9411 47.7726Z" fill="#0247FF"/>
<path d="M67.1446 47.7649C67.5665 48.1652 67.7794 48.7426 67.7794 49.4855C67.7794 49.7626 67.7566 50.0129 67.7148 50.24L66.9697 54.4587H65.1868L65.8787 50.4863C65.9053 50.3323 65.9167 50.1784 65.9167 50.0321C65.9167 49.601 65.8026 49.27 65.5784 49.0467C65.3503 48.8234 65.031 48.708 64.609 48.708C64.13 48.708 63.7233 48.8542 63.3849 49.1429C63.0466 49.4316 62.8223 49.8512 62.7121 50.3939L62.0088 54.4587H60.2031L61.4576 47.2684H63.2633L63.1112 48.1498C63.4001 47.8457 63.7461 47.6071 64.149 47.43C64.552 47.253 64.9701 47.1644 65.4035 47.1644C66.1448 47.1644 66.7226 47.3646 67.1446 47.7649Z" fill="#0247FF"/>
<path d="M69.9918 54.197C69.5242 53.9468 69.1669 53.5926 68.9084 53.1346C68.6537 52.6765 68.5244 52.1492 68.5244 51.5525C68.5244 50.7404 68.7145 49.9975 69.0946 49.3277C69.4748 48.6579 69.9956 48.1267 70.657 47.738C71.3185 47.3492 72.056 47.1529 72.8695 47.1529C73.4777 47.1529 74.0175 47.2799 74.4927 47.5378C74.9679 47.7957 75.3328 48.1498 75.5951 48.6079C75.8574 49.066 75.9866 49.5933 75.9866 50.1899C75.9866 51.0137 75.7928 51.7566 75.4088 52.4225C75.0249 53.0884 74.4965 53.6157 73.8274 54.0006C73.1546 54.3856 72.4133 54.578 71.6036 54.578C70.9915 54.5742 70.4555 54.451 69.9918 54.197ZM73.0101 52.6419C73.3598 52.3917 73.6335 52.0568 73.8312 51.6411C74.0289 51.2254 74.1277 50.7904 74.1277 50.3285C74.1277 49.8089 73.9833 49.4085 73.6982 49.1275C73.4131 48.8465 73.0519 48.7041 72.6148 48.7041C72.1776 48.7041 71.7937 48.8312 71.4553 49.0814C71.117 49.3316 70.8547 49.6664 70.6684 50.086C70.4822 50.5056 70.3871 50.9482 70.3871 51.4178C70.3871 51.9298 70.5202 52.3224 70.7901 52.5995C71.06 52.8767 71.4135 53.0152 71.8469 53.0152C72.2726 53.0152 72.6604 52.8921 73.0101 52.6419Z" fill="#0247FF"/>
<path d="M79.8297 44.8511L78.1494 54.4587H76.3438L78.024 44.8511H79.8297Z" fill="#0247FF"/>
<path d="M81.2213 54.197C80.7537 53.9468 80.3963 53.5926 80.1378 53.1346C79.8832 52.6765 79.7539 52.1492 79.7539 51.5525C79.7539 50.7404 79.944 49.9975 80.3241 49.3277C80.7043 48.6579 81.2251 48.1267 81.8865 47.738C82.548 47.3492 83.2854 47.1529 84.0989 47.1529C84.7072 47.1529 85.247 47.2799 85.7222 47.5378C86.1973 47.7957 86.5623 48.1498 86.8246 48.6079C87.0869 49.066 87.2161 49.5933 87.2161 50.1899C87.2161 51.0137 87.0223 51.7566 86.6383 52.4225C86.2544 53.0884 85.726 53.6157 85.0569 54.0006C84.3841 54.3856 83.6428 54.578 82.8331 54.578C82.2248 54.5742 81.685 54.451 81.2213 54.197ZM84.2396 52.6419C84.5893 52.3917 84.863 52.0568 85.0607 51.6411C85.2584 51.2254 85.3572 50.7904 85.3572 50.3285C85.3572 49.8089 85.2128 49.4085 84.9277 49.1275C84.6426 48.8465 84.2814 48.7041 83.8442 48.7041C83.4071 48.7041 83.0231 48.8312 82.6848 49.0814C82.3465 49.3316 82.0842 49.6664 81.8979 50.086C81.7116 50.5056 81.6166 50.9482 81.6166 51.4178C81.6166 51.9298 81.7497 52.3224 82.0196 52.5995C82.2895 52.8767 82.643 53.0152 83.0764 53.0152C83.5021 53.0152 83.8899 52.8921 84.2396 52.6419Z" fill="#0247FF"/>
<path d="M92.9901 47.4685C93.3626 47.6802 93.6249 47.9535 93.777 48.2923L93.9556 47.2684H95.7613L94.5068 54.5126C94.3852 55.1785 94.1495 55.7752 93.7884 56.2986C93.4272 56.8221 92.9596 57.2379 92.378 57.5458C91.7964 57.8537 91.1312 58.0077 90.3785 58.0077C89.3787 58.0077 88.5994 57.7691 88.0368 57.2956C87.4742 56.8221 87.2233 56.1716 87.2727 55.3479H89.0556C89.0898 55.6751 89.2456 55.9368 89.5231 56.1331C89.8006 56.3294 90.1618 56.4257 90.6066 56.4257C91.135 56.4257 91.5873 56.2679 91.9599 55.9522C92.3324 55.6366 92.5757 55.1593 92.6973 54.5165L92.8912 53.4002C92.6023 53.7389 92.2336 54.0199 91.7964 54.2432C91.3592 54.4664 90.8765 54.5819 90.3557 54.5819C89.8349 54.5819 89.3711 54.4626 88.9643 54.2239C88.5576 53.9853 88.2421 53.6465 88.014 53.2116C87.7859 52.7728 87.6756 52.2647 87.6756 51.6873C87.6756 51.4178 87.7023 51.1368 87.7517 50.8443C87.8809 50.1168 88.1356 49.474 88.5158 48.9081C88.8959 48.3462 89.3597 47.9151 89.9071 47.611C90.4545 47.3069 91.0323 47.1568 91.6367 47.1568C92.1651 47.1491 92.6175 47.2568 92.9901 47.4685ZM93.3816 50.367C93.3816 49.8551 93.2333 49.4586 92.9406 49.1737C92.6441 48.8889 92.2754 48.7465 91.8306 48.7465C91.4961 48.7465 91.173 48.8273 90.8613 48.9928C90.5495 49.1583 90.2758 49.397 90.0477 49.7126C89.8159 50.0283 89.6638 50.4016 89.5878 50.8366C89.5612 51.0021 89.5498 51.1561 89.5498 51.3024C89.5498 51.822 89.6942 52.23 89.9869 52.5303C90.2758 52.8305 90.6446 52.9768 91.0893 52.9768C91.4239 52.9768 91.747 52.8921 92.0625 52.7227C92.378 52.5534 92.6517 52.3109 92.876 51.9875C93.1003 51.6642 93.2562 51.2908 93.3322 50.8597C93.3626 50.6365 93.3816 50.4748 93.3816 50.367Z" fill="#0247FF"/>
<path d="M98.4563 47.2645L99.4067 52.2878L102.163 47.2645H104.071L97.8291 57.8576H95.917L98.0724 54.274L96.4454 47.2645H98.4563Z" fill="#0247FF"/>
<path d="M5.96407 4.56902C5.75119 4.97704 5.40906 5.30807 4.93769 5.56212C4.46631 5.81617 3.86568 5.94704 3.132 5.94704H1.51639V9.60765H0.0566406V0.585083H3.132C3.81626 0.585083 4.39408 0.704409 4.86926 0.94306C5.34444 1.18171 5.69797 1.50505 5.93366 1.90921C6.16935 2.31723 6.2872 2.77144 6.2872 3.27184C6.2872 3.72989 6.17695 4.16101 5.96407 4.56902ZM4.37507 4.35347C4.64878 4.09942 4.78563 3.73759 4.78563 3.26799C4.78563 2.28259 4.23442 1.78989 3.132 1.78989H1.51639V4.73454H3.132C3.68701 4.73839 4.10137 4.61136 4.37507 4.35347Z" fill="#0247FF"/>
<path d="M8.94059 9.26122C8.40079 8.95329 7.97883 8.52218 7.67091 7.96404C7.363 7.4059 7.21094 6.75923 7.21094 6.02403C7.21094 5.29653 7.3706 4.65371 7.68612 4.09173C8.00164 3.52974 8.435 3.09863 8.98241 2.79454C9.52981 2.49045 10.1418 2.34033 10.8147 2.34033C11.4914 2.34033 12.0996 2.49045 12.647 2.79454C13.1944 3.09863 13.624 3.52974 13.9433 4.09173C14.2588 4.65371 14.4185 5.30038 14.4185 6.02403C14.4185 6.74769 14.255 7.39435 13.9319 7.95634C13.6088 8.51833 13.164 8.95329 12.6052 9.26122C12.0464 9.56916 11.4267 9.72313 10.7539 9.72313C10.081 9.72313 9.47659 9.56916 8.94059 9.26122ZM11.8031 8.1642C12.1338 7.98328 12.3999 7.70999 12.6052 7.34431C12.8105 6.97864 12.9131 6.53983 12.9131 6.02018C12.9131 5.50054 12.8143 5.06173 12.6166 4.70375C12.4189 4.34577 12.1604 4.07248 11.8335 3.89157C11.5104 3.71065 11.1568 3.61827 10.7805 3.61827C10.4041 3.61827 10.0544 3.71065 9.73509 3.89157C9.41577 4.07248 9.16107 4.34193 8.971 4.70375C8.78473 5.06173 8.6897 5.50054 8.6897 6.02018C8.6897 6.79003 8.88357 7.38666 9.27132 7.80622C9.65906 8.22579 10.1494 8.43749 10.7387 8.43749C11.1226 8.43749 11.4761 8.34511 11.8031 8.1642Z" fill="#0247FF"/>
<path d="M25.3473 2.45197L23.1538 9.60381H21.6143L20.1925 4.31884L18.7708 9.60381H17.2312L15.0264 2.45197H16.5127L17.9877 8.20269L19.4893 2.45197H21.0136L22.4506 8.17575L23.9103 2.45197H25.3473Z" fill="#0247FF"/>
<path d="M32.8593 6.58217H27.4612C27.503 7.15186 27.7121 7.61376 28.0884 7.95634C28.4648 8.30277 28.9248 8.47599 29.4722 8.47599C30.2591 8.47599 30.8141 8.14111 31.1372 7.47519H32.7148C32.5019 8.13341 32.1142 8.6723 31.5554 9.09186C30.9965 9.51143 30.3009 9.72313 29.4722 9.72313C28.7955 9.72313 28.1911 9.56917 27.6589 9.26123C27.1229 8.95329 26.7047 8.52218 26.4044 7.96404C26.1003 7.40591 25.9482 6.75924 25.9482 6.02404C25.9482 5.28884 26.0965 4.64217 26.3892 4.08403C26.6857 3.52589 27.1001 3.09478 27.6323 2.79069C28.1645 2.48661 28.7803 2.33649 29.4722 2.33649C30.1374 2.33649 30.7343 2.48276 31.255 2.77915C31.7758 3.07169 32.1826 3.4874 32.4715 4.01859C32.7604 4.54979 32.9087 5.16181 32.9087 5.85467C32.9125 6.12412 32.8935 6.36662 32.8593 6.58217ZM31.3843 5.38892C31.3767 4.84233 31.1828 4.40737 30.8065 4.07633C30.4301 3.74915 29.9664 3.58363 29.4075 3.58363C28.902 3.58363 28.4724 3.7453 28.1113 4.06863C27.7501 4.39197 27.5372 4.83078 27.4688 5.38507H31.3843V5.38892Z" fill="#0247FF"/>
<path d="M36.6609 2.64057C37.0144 2.43657 37.4364 2.33649 37.923 2.33649V3.86848H37.5504C36.9764 3.86848 36.543 4.01475 36.2503 4.31114C35.9538 4.60368 35.8094 5.11562 35.8094 5.84312V9.60766H34.3496V2.45196H35.8094V3.49125C36.0222 3.12943 36.3073 2.84458 36.6609 2.64057Z" fill="#0247FF"/>
<path d="M45.6932 6.58217H40.2952C40.337 7.15186 40.5461 7.61376 40.9224 7.95634C41.2988 8.30277 41.7588 8.47599 42.3062 8.47599C43.0931 8.47599 43.6481 8.14111 43.9712 7.47519H45.5488C45.3359 8.13341 44.9482 8.6723 44.3893 9.09186C43.8305 9.51143 43.1349 9.72313 42.3062 9.72313C41.6295 9.72313 41.0251 9.56917 40.4929 9.26123C39.9569 8.95329 39.5387 8.52218 39.2384 7.96404C38.9343 7.40591 38.7822 6.75924 38.7822 6.02404C38.7822 5.28884 38.9305 4.64217 39.2232 4.08403C39.5197 3.52589 39.9341 3.09478 40.4663 2.79069C40.9985 2.48661 41.6143 2.33649 42.3062 2.33649C42.9714 2.33649 43.5682 2.48276 44.089 2.77915C44.6098 3.07169 45.0166 3.4874 45.3055 4.01859C45.5944 4.54979 45.7427 5.16181 45.7427 5.85467C45.7427 6.12412 45.7275 6.36662 45.6932 6.58217ZM44.2183 5.38892C44.2107 4.84233 44.0168 4.40737 43.6405 4.07633C43.2641 3.74915 42.8003 3.58363 42.2415 3.58363C41.7359 3.58363 41.3064 3.7453 40.9452 4.06863C40.5841 4.39197 40.3712 4.83078 40.3028 5.38507H44.2183V5.38892Z" fill="#0247FF"/>
<path d="M47.1335 4.08787C47.43 3.53358 47.8291 3.10247 48.3385 2.79453C48.8479 2.48659 49.4143 2.33263 50.0378 2.33263C50.4977 2.33263 50.9539 2.43271 51.4025 2.63671C51.851 2.84072 52.2084 3.11017 52.4745 3.4489V0H53.9494V9.60765H52.4745V8.52987C52.235 8.87629 51.9043 9.16114 51.4823 9.38824C51.0603 9.61534 50.5738 9.72697 50.0264 9.72697C49.4105 9.72697 48.8479 9.56915 48.3423 9.25352C47.8329 8.93788 47.4338 8.49522 47.1373 7.92939C46.8407 7.36355 46.6963 6.72073 46.6963 6.00093C46.6963 5.28113 46.8407 4.64216 47.1335 4.08787ZM52.1704 4.73839C51.9689 4.37656 51.7066 4.09942 51.3835 3.90696C51.0603 3.71834 50.7068 3.62211 50.3305 3.62211C49.9541 3.62211 49.6044 3.71449 49.2775 3.89926C48.9505 4.08402 48.6882 4.35731 48.4906 4.71914C48.2891 5.07712 48.1903 5.50438 48.1903 5.99708C48.1903 6.48978 48.2891 6.92474 48.4906 7.29427C48.692 7.66764 48.9581 7.94863 49.2851 8.14494C49.6158 8.34125 49.9617 8.43748 50.3305 8.43748C50.7068 8.43748 51.0565 8.34125 51.3835 8.15264C51.7066 7.96403 51.9727 7.68304 52.1704 7.31736C52.3718 6.94784 52.4707 6.52057 52.4707 6.02402C52.4707 5.52748 52.3718 5.10021 52.1704 4.73839Z" fill="#0247FF"/>
<path d="M61.6856 2.66751C62.1151 2.4481 62.5979 2.33647 63.1263 2.33647C63.7497 2.33647 64.3124 2.48659 64.8179 2.79068C65.3235 3.09477 65.7189 3.52588 66.0116 4.08402C66.3005 4.64216 66.4488 5.28113 66.4488 5.99708C66.4488 6.71303 66.3043 7.3597 66.0116 7.92554C65.7227 8.49137 65.3197 8.93403 64.8142 9.24967C64.3048 9.5653 63.7421 9.72312 63.1301 9.72312C62.5827 9.72312 62.0999 9.61534 61.6742 9.39979C61.2522 9.18423 60.9139 8.90709 60.6668 8.56836V9.60765H59.207V0H60.6668V3.51818C60.9139 3.17175 61.2522 2.88691 61.6856 2.66751ZM64.6583 4.71914C64.4568 4.36116 64.1907 4.08787 63.8638 3.89926C63.5331 3.71449 63.1833 3.62211 62.807 3.62211C62.4383 3.62211 62.0923 3.71834 61.7616 3.90696C61.4309 4.09942 61.1686 4.37271 60.9671 4.73839C60.7656 5.10021 60.6668 5.53132 60.6668 6.02402C60.6668 6.51672 60.7656 6.94784 60.9671 7.31736C61.1686 7.68689 61.4347 7.96403 61.7616 8.15264C62.0923 8.3451 62.4383 8.43748 62.807 8.43748C63.1833 8.43748 63.5369 8.34125 63.8638 8.14494C64.1945 7.94863 64.4568 7.66764 64.6583 7.29427C64.8598 6.92089 64.9586 6.48978 64.9586 5.99708C64.9586 5.50438 64.8598 5.07712 64.6583 4.71914Z" fill="#0247FF"/>
<path d="M74.2529 2.45197L69.9192 12.968H68.4063L69.8432 9.48833L67.0605 2.45197H68.6876L70.6757 7.90246L72.7399 2.45197H74.2529Z" fill="#0247FF"/>
</svg>
