<svg width="700" height="408" viewBox="0 0 700 408" fill="none" xmlns="http://www.w3.org/2000/svg">
<rect width="700" height="408" rx="10" fill="white"/>
<path d="M125.199 39.2402L128.341 42.3817L125.199 45.5232" stroke="#0247FF" stroke-width="2" stroke-linecap="round" stroke-linejoin="round"/>
<path d="M65.1416 45.707L62.0001 42.5656L65.1416 39.4241" stroke="#0247FF" stroke-width="2" stroke-linecap="round" stroke-linejoin="round"/>
<path d="M74.9885 48V46.29L79.2005 41.898C79.7285 41.346 80.1185 40.836 80.3705 40.368C80.6225 39.9 80.7485 39.42 80.7485 38.928C80.7485 38.316 80.5565 37.854 80.1725 37.542C79.7885 37.23 79.2305 37.074 78.4985 37.074C77.9105 37.074 77.3465 37.182 76.8065 37.398C76.2665 37.602 75.7385 37.926 75.2225 38.37L74.4665 36.642C74.9825 36.186 75.6185 35.82 76.3745 35.544C77.1425 35.268 77.9465 35.13 78.7865 35.13C80.1545 35.13 81.2045 35.436 81.9365 36.048C82.6685 36.66 83.0345 37.536 83.0345 38.676C83.0345 39.468 82.8485 40.224 82.4765 40.944C82.1045 41.652 81.5285 42.396 80.7485 43.176L77.2385 46.686V46.074H83.5385V48H74.9885ZM89.7774 48.18C88.2894 48.18 87.1434 47.616 86.3394 46.488C85.5354 45.348 85.1334 43.728 85.1334 41.628C85.1334 39.504 85.5354 37.89 86.3394 36.786C87.1434 35.682 88.2894 35.13 89.7774 35.13C91.2774 35.13 92.4234 35.682 93.2154 36.786C94.0194 37.89 94.4214 39.498 94.4214 41.61C94.4214 43.722 94.0194 45.348 93.2154 46.488C92.4234 47.616 91.2774 48.18 89.7774 48.18ZM89.7774 46.272C90.5934 46.272 91.1994 45.9 91.5954 45.156C91.9914 44.4 92.1894 43.218 92.1894 41.61C92.1894 40.002 91.9914 38.838 91.5954 38.118C91.1994 37.386 90.5934 37.02 89.7774 37.02C88.9734 37.02 88.3674 37.386 87.9594 38.118C87.5634 38.838 87.3654 40.002 87.3654 41.61C87.3654 43.218 87.5634 44.4 87.9594 45.156C88.3674 45.9 88.9734 46.272 89.7774 46.272ZM96.5744 48V46.29L100.786 41.898C101.314 41.346 101.704 40.836 101.956 40.368C102.208 39.9 102.334 39.42 102.334 38.928C102.334 38.316 102.142 37.854 101.758 37.542C101.374 37.23 100.816 37.074 100.084 37.074C99.4964 37.074 98.9324 37.182 98.3924 37.398C97.8524 37.602 97.3244 37.926 96.8084 38.37L96.0524 36.642C96.5684 36.186 97.2044 35.82 97.9604 35.544C98.7284 35.268 99.5324 35.13 100.372 35.13C101.74 35.13 102.79 35.436 103.522 36.048C104.254 36.66 104.62 37.536 104.62 38.676C104.62 39.468 104.434 40.224 104.062 40.944C103.69 41.652 103.114 42.396 102.334 43.176L98.8244 46.686V46.074H105.124V48H96.5744ZM111.165 48.18C110.289 48.18 109.449 48.054 108.645 47.802C107.841 47.538 107.181 47.178 106.665 46.722L107.421 44.976C107.985 45.408 108.567 45.726 109.167 45.93C109.779 46.134 110.421 46.236 111.093 46.236C111.909 46.236 112.527 46.074 112.947 45.75C113.367 45.426 113.577 44.952 113.577 44.328C113.577 43.728 113.367 43.278 112.947 42.978C112.539 42.666 111.939 42.51 111.147 42.51H109.095V40.656H110.949C111.633 40.656 112.179 40.488 112.587 40.152C112.995 39.816 113.199 39.354 113.199 38.766C113.199 38.214 113.007 37.794 112.623 37.506C112.251 37.218 111.711 37.074 111.003 37.074C109.731 37.074 108.609 37.506 107.637 38.37L106.881 36.642C107.397 36.162 108.033 35.79 108.789 35.526C109.557 35.262 110.361 35.13 111.201 35.13C112.521 35.13 113.553 35.43 114.297 36.03C115.053 36.618 115.431 37.44 115.431 38.496C115.431 39.252 115.215 39.906 114.783 40.458C114.363 40.998 113.781 41.358 113.037 41.538V41.322C113.913 41.466 114.591 41.826 115.071 42.402C115.563 42.966 115.809 43.674 115.809 44.526C115.809 45.654 115.395 46.548 114.567 47.208C113.739 47.856 112.605 48.18 111.165 48.18Z" fill="black"/>
<g filter="url(#filter0_d_1413_14128)">
<circle cx="667" cy="107.449" r="10" fill="white"/>
</g>
<path d="M665.4 104.249L668.8 107.649L665.4 111.049" stroke="#0247FF" stroke-width="2" stroke-linecap="round" stroke-linejoin="round"/>
<g filter="url(#filter1_d_1413_14128)">
<circle cx="33" cy="105.929" r="10" transform="rotate(-180 33 105.929)" fill="white"/>
</g>
<path d="M34.5996 109.129L31.1996 105.729L34.5996 102.329" stroke="#0247FF" stroke-width="2" stroke-linecap="round" stroke-linejoin="round"/>
<path d="M65.7551 116.043C65.5511 116.043 65.3051 116.031 65.0171 116.007C64.7411 115.983 64.4591 115.941 64.1711 115.881V114.045C64.3991 114.093 64.6151 114.129 64.8191 114.153C65.0351 114.177 65.2151 114.189 65.3591 114.189C65.9111 114.189 66.3071 114.027 66.5471 113.703C66.7991 113.379 66.9251 112.863 66.9251 112.155V99.9868H69.2471V112.155C69.2471 113.019 69.1271 113.739 68.8871 114.315C68.6471 114.891 68.2691 115.323 67.7531 115.611C67.2491 115.899 66.5831 116.043 65.7551 116.043ZM75.3906 112.857C74.5986 112.857 73.9026 112.671 73.3026 112.299C72.7026 111.915 72.2346 111.369 71.8986 110.661C71.5626 109.953 71.3946 109.107 71.3946 108.123C71.3946 107.139 71.5626 106.299 71.8986 105.603C72.2346 104.895 72.7026 104.355 73.3026 103.983C73.9026 103.599 74.5986 103.407 75.3906 103.407C76.1586 103.407 76.8306 103.599 77.4066 103.983C77.9946 104.355 78.3846 104.859 78.5766 105.495H78.3786L78.5766 103.587H80.7366C80.7006 103.959 80.6646 104.337 80.6286 104.721C80.6046 105.105 80.5926 105.483 80.5926 105.855V112.677H78.3606L78.3426 110.805H78.5586C78.3666 111.429 77.9766 111.927 77.3886 112.299C76.8006 112.671 76.1346 112.857 75.3906 112.857ZM76.0206 111.129C76.7286 111.129 77.2986 110.883 77.7306 110.391C78.1626 109.887 78.3786 109.131 78.3786 108.123C78.3786 107.115 78.1626 106.365 77.7306 105.873C77.2986 105.381 76.7286 105.135 76.0206 105.135C75.3126 105.135 74.7426 105.381 74.3106 105.873C73.8786 106.365 73.6626 107.115 73.6626 108.123C73.6626 109.131 73.8726 109.887 74.2926 110.391C74.7246 110.883 75.3006 111.129 76.0206 111.129ZM83.0427 112.677V105.855C83.0427 105.483 83.0307 105.105 83.0067 104.721C82.9827 104.337 82.9467 103.959 82.8987 103.587H85.0767L85.2567 105.387H85.0407C85.3287 104.751 85.7547 104.265 86.3187 103.929C86.8827 103.581 87.5367 103.407 88.2807 103.407C89.3487 103.407 90.1527 103.707 90.6927 104.307C91.2327 104.907 91.5027 105.843 91.5027 107.115V112.677H89.2527V107.223C89.2527 106.491 89.1087 105.969 88.8207 105.657C88.5447 105.333 88.1247 105.171 87.5607 105.171C86.8647 105.171 86.3127 105.387 85.9047 105.819C85.4967 106.251 85.2927 106.827 85.2927 107.547V112.677H83.0427ZM97.1644 112.857C96.0484 112.857 95.2144 112.551 94.6624 111.939C94.1104 111.327 93.8344 110.391 93.8344 109.131V103.587H96.0844V109.113C96.0844 109.785 96.2224 110.283 96.4984 110.607C96.7744 110.919 97.1944 111.075 97.7584 111.075C98.3944 111.075 98.9104 110.859 99.3064 110.427C99.7144 109.995 99.9184 109.425 99.9184 108.717V103.587H102.168V112.677H99.9724V110.823H100.224C99.9604 111.471 99.5584 111.975 99.0184 112.335C98.4904 112.683 97.8724 112.857 97.1644 112.857ZM108.121 112.857C107.329 112.857 106.633 112.671 106.033 112.299C105.433 111.915 104.965 111.369 104.629 110.661C104.293 109.953 104.125 109.107 104.125 108.123C104.125 107.139 104.293 106.299 104.629 105.603C104.965 104.895 105.433 104.355 106.033 103.983C106.633 103.599 107.329 103.407 108.121 103.407C108.889 103.407 109.561 103.599 110.137 103.983C110.725 104.355 111.115 104.859 111.307 105.495H111.109L111.307 103.587H113.467C113.431 103.959 113.395 104.337 113.359 104.721C113.335 105.105 113.323 105.483 113.323 105.855V112.677H111.091L111.073 110.805H111.289C111.097 111.429 110.707 111.927 110.119 112.299C109.531 112.671 108.865 112.857 108.121 112.857ZM108.751 111.129C109.459 111.129 110.029 110.883 110.461 110.391C110.893 109.887 111.109 109.131 111.109 108.123C111.109 107.115 110.893 106.365 110.461 105.873C110.029 105.381 109.459 105.135 108.751 105.135C108.043 105.135 107.473 105.381 107.041 105.873C106.609 106.365 106.393 107.115 106.393 108.123C106.393 109.131 106.603 109.887 107.023 110.391C107.455 110.883 108.031 111.129 108.751 111.129ZM115.755 112.677V105.909C115.755 105.525 115.743 105.135 115.719 104.739C115.707 104.343 115.677 103.959 115.629 103.587H117.807L118.059 106.071H117.699C117.819 105.471 118.017 104.973 118.293 104.577C118.581 104.181 118.929 103.887 119.337 103.695C119.745 103.503 120.189 103.407 120.669 103.407C120.885 103.407 121.059 103.419 121.191 103.443C121.323 103.455 121.455 103.485 121.587 103.533L121.569 105.513C121.341 105.417 121.143 105.357 120.975 105.333C120.819 105.309 120.621 105.297 120.381 105.297C119.865 105.297 119.427 105.405 119.067 105.621C118.719 105.837 118.455 106.137 118.275 106.521C118.107 106.905 118.023 107.343 118.023 107.835V112.677H115.755ZM123.205 116.763L122.683 114.981C123.247 114.861 123.721 114.723 124.105 114.567C124.489 114.411 124.807 114.207 125.059 113.955C125.311 113.703 125.521 113.379 125.689 112.983L126.139 111.921L126.085 112.803L122.125 103.587H124.519L127.363 110.679H126.841L129.703 103.587H131.971L127.831 113.181C127.555 113.829 127.255 114.363 126.931 114.783C126.607 115.215 126.259 115.557 125.887 115.809C125.515 116.073 125.107 116.277 124.663 116.421C124.219 116.565 123.733 116.679 123.205 116.763Z" fill="#0247FF"/>
<path d="M208.848 112.677V99.9868H217.218V101.805H211.17V105.405H216.804V107.223H211.17V112.677H208.848ZM223.045 112.857C221.521 112.857 220.327 112.437 219.463 111.597C218.599 110.757 218.167 109.605 218.167 108.141C218.167 107.193 218.353 106.365 218.725 105.657C219.097 104.949 219.613 104.397 220.273 104.001C220.945 103.605 221.725 103.407 222.613 103.407C223.489 103.407 224.221 103.593 224.809 103.965C225.397 104.337 225.841 104.859 226.141 105.531C226.453 106.203 226.609 106.989 226.609 107.889V108.483H219.985V107.295H225.007L224.701 107.547C224.701 106.707 224.521 106.065 224.161 105.621C223.813 105.177 223.303 104.955 222.631 104.955C221.887 104.955 221.311 105.219 220.903 105.747C220.507 106.275 220.309 107.013 220.309 107.961V108.195C220.309 109.179 220.549 109.917 221.029 110.409C221.521 110.889 222.211 111.129 223.099 111.129C223.615 111.129 224.095 111.063 224.539 110.931C224.995 110.787 225.427 110.559 225.835 110.247L226.501 111.759C226.069 112.107 225.553 112.377 224.953 112.569C224.353 112.761 223.717 112.857 223.045 112.857ZM233.716 112.857C232.948 112.857 232.276 112.671 231.7 112.299C231.124 111.915 230.74 111.399 230.548 110.751H230.746V112.677H228.514V99.4288H230.764V105.441H230.548C230.752 104.817 231.142 104.325 231.718 103.965C232.294 103.593 232.96 103.407 233.716 103.407C234.52 103.407 235.222 103.599 235.822 103.983C236.422 104.367 236.89 104.913 237.226 105.621C237.562 106.317 237.73 107.157 237.73 108.141C237.73 109.125 237.562 109.971 237.226 110.679C236.89 111.375 236.416 111.915 235.804 112.299C235.204 112.671 234.508 112.857 233.716 112.857ZM233.086 111.129C233.794 111.129 234.364 110.883 234.796 110.391C235.24 109.899 235.462 109.149 235.462 108.141C235.462 107.133 235.24 106.383 234.796 105.891C234.364 105.387 233.794 105.135 233.086 105.135C232.378 105.135 231.808 105.381 231.376 105.873C230.944 106.365 230.728 107.115 230.728 108.123C230.728 109.131 230.944 109.887 231.376 110.391C231.808 110.883 232.378 111.129 233.086 111.129ZM239.658 112.677V105.909C239.658 105.525 239.646 105.135 239.622 104.739C239.61 104.343 239.58 103.959 239.532 103.587H241.71L241.962 106.071H241.602C241.722 105.471 241.92 104.973 242.196 104.577C242.484 104.181 242.832 103.887 243.24 103.695C243.648 103.503 244.092 103.407 244.572 103.407C244.788 103.407 244.962 103.419 245.094 103.443C245.226 103.455 245.358 103.485 245.49 103.533L245.472 105.513C245.244 105.417 245.046 105.357 244.878 105.333C244.722 105.309 244.524 105.297 244.284 105.297C243.768 105.297 243.33 105.405 242.97 105.621C242.622 105.837 242.358 106.137 242.178 106.521C242.01 106.905 241.926 107.343 241.926 107.835V112.677H239.658ZM250.019 112.857C248.903 112.857 248.069 112.551 247.517 111.939C246.965 111.327 246.689 110.391 246.689 109.131V103.587H248.939V109.113C248.939 109.785 249.077 110.283 249.353 110.607C249.629 110.919 250.049 111.075 250.613 111.075C251.249 111.075 251.765 110.859 252.161 110.427C252.569 109.995 252.773 109.425 252.773 108.717V103.587H255.023V112.677H252.827V110.823H253.079C252.815 111.471 252.413 111.975 251.873 112.335C251.345 112.683 250.727 112.857 250.019 112.857ZM260.975 112.857C260.183 112.857 259.487 112.671 258.887 112.299C258.287 111.915 257.819 111.369 257.483 110.661C257.147 109.953 256.979 109.107 256.979 108.123C256.979 107.139 257.147 106.299 257.483 105.603C257.819 104.895 258.287 104.355 258.887 103.983C259.487 103.599 260.183 103.407 260.975 103.407C261.743 103.407 262.415 103.599 262.991 103.983C263.579 104.355 263.969 104.859 264.161 105.495H263.963L264.161 103.587H266.321C266.285 103.959 266.249 104.337 266.213 104.721C266.189 105.105 266.177 105.483 266.177 105.855V112.677H263.945L263.927 110.805H264.143C263.951 111.429 263.561 111.927 262.973 112.299C262.385 112.671 261.719 112.857 260.975 112.857ZM261.605 111.129C262.313 111.129 262.883 110.883 263.315 110.391C263.747 109.887 263.963 109.131 263.963 108.123C263.963 107.115 263.747 106.365 263.315 105.873C262.883 105.381 262.313 105.135 261.605 105.135C260.897 105.135 260.327 105.381 259.895 105.873C259.463 106.365 259.247 107.115 259.247 108.123C259.247 109.131 259.457 109.887 259.877 110.391C260.309 110.883 260.885 111.129 261.605 111.129ZM268.609 112.677V105.909C268.609 105.525 268.597 105.135 268.573 104.739C268.561 104.343 268.531 103.959 268.483 103.587H270.661L270.913 106.071H270.553C270.673 105.471 270.871 104.973 271.147 104.577C271.435 104.181 271.783 103.887 272.191 103.695C272.599 103.503 273.043 103.407 273.523 103.407C273.739 103.407 273.913 103.419 274.045 103.443C274.177 103.455 274.309 103.485 274.441 103.533L274.423 105.513C274.195 105.417 273.997 105.357 273.829 105.333C273.673 105.309 273.475 105.297 273.235 105.297C272.719 105.297 272.281 105.405 271.921 105.621C271.573 105.837 271.309 106.137 271.129 106.521C270.961 106.905 270.877 107.343 270.877 107.835V112.677H268.609ZM276.059 116.763L275.537 114.981C276.101 114.861 276.575 114.723 276.959 114.567C277.343 114.411 277.661 114.207 277.913 113.955C278.165 113.703 278.375 113.379 278.543 112.983L278.993 111.921L278.939 112.803L274.979 103.587H277.373L280.217 110.679H279.695L282.557 103.587H284.825L280.685 113.181C280.409 113.829 280.109 114.363 279.785 114.783C279.461 115.215 279.113 115.557 278.741 115.809C278.369 116.073 277.961 116.277 277.517 116.421C277.073 116.565 276.587 116.679 276.059 116.763Z" fill="black"/>
<path d="M356.618 112.677V99.9868H358.652L363.314 110.481H362.756L367.418 99.9868H369.434V112.677H367.328V103.263H367.976L363.71 112.677H362.324L358.058 103.263H358.724V112.677H356.618ZM375.592 112.857C374.8 112.857 374.104 112.671 373.504 112.299C372.904 111.915 372.436 111.369 372.1 110.661C371.764 109.953 371.596 109.107 371.596 108.123C371.596 107.139 371.764 106.299 372.1 105.603C372.436 104.895 372.904 104.355 373.504 103.983C374.104 103.599 374.8 103.407 375.592 103.407C376.36 103.407 377.032 103.599 377.608 103.983C378.196 104.355 378.586 104.859 378.778 105.495H378.58L378.778 103.587H380.938C380.902 103.959 380.866 104.337 380.83 104.721C380.806 105.105 380.794 105.483 380.794 105.855V112.677H378.562L378.544 110.805H378.76C378.568 111.429 378.178 111.927 377.59 112.299C377.002 112.671 376.336 112.857 375.592 112.857ZM376.222 111.129C376.93 111.129 377.5 110.883 377.932 110.391C378.364 109.887 378.58 109.131 378.58 108.123C378.58 107.115 378.364 106.365 377.932 105.873C377.5 105.381 376.93 105.135 376.222 105.135C375.514 105.135 374.944 105.381 374.512 105.873C374.08 106.365 373.864 107.115 373.864 108.123C373.864 109.131 374.074 109.887 374.494 110.391C374.926 110.883 375.502 111.129 376.222 111.129ZM383.226 112.677V105.909C383.226 105.525 383.214 105.135 383.19 104.739C383.178 104.343 383.148 103.959 383.1 103.587H385.278L385.53 106.071H385.17C385.29 105.471 385.488 104.973 385.764 104.577C386.052 104.181 386.4 103.887 386.808 103.695C387.216 103.503 387.66 103.407 388.14 103.407C388.356 103.407 388.53 103.419 388.662 103.443C388.794 103.455 388.926 103.485 389.058 103.533L389.04 105.513C388.812 105.417 388.614 105.357 388.446 105.333C388.29 105.309 388.092 105.297 387.852 105.297C387.336 105.297 386.898 105.405 386.538 105.621C386.19 105.837 385.926 106.137 385.746 106.521C385.578 106.905 385.494 107.343 385.494 107.835V112.677H383.226ZM394.346 112.857C393.41 112.857 392.588 112.665 391.88 112.281C391.184 111.897 390.644 111.351 390.26 110.643C389.876 109.923 389.684 109.071 389.684 108.087C389.684 107.103 389.876 106.263 390.26 105.567C390.656 104.871 391.202 104.337 391.898 103.965C392.594 103.593 393.41 103.407 394.346 103.407C394.946 103.407 395.528 103.503 396.092 103.695C396.668 103.875 397.136 104.139 397.496 104.487L396.812 106.053C396.488 105.753 396.122 105.531 395.714 105.387C395.318 105.231 394.928 105.153 394.544 105.153C393.74 105.153 393.11 105.405 392.654 105.909C392.21 106.413 391.988 107.145 391.988 108.105C391.988 109.065 392.21 109.803 392.654 110.319C393.11 110.835 393.74 111.093 394.544 111.093C394.916 111.093 395.3 111.021 395.696 110.877C396.104 110.733 396.476 110.511 396.812 110.211L397.496 111.759C397.124 112.107 396.65 112.377 396.074 112.569C395.51 112.761 394.934 112.857 394.346 112.857ZM399.24 112.677V99.4288H401.49V105.405H401.238C401.514 104.757 401.94 104.265 402.516 103.929C403.092 103.581 403.752 103.407 404.496 103.407C405.576 103.407 406.38 103.713 406.908 104.325C407.436 104.925 407.7 105.843 407.7 107.079V112.677H405.45V107.187C405.45 106.479 405.312 105.969 405.036 105.657C404.772 105.333 404.346 105.171 403.758 105.171C403.074 105.171 402.522 105.387 402.102 105.819C401.694 106.239 401.49 106.803 401.49 107.511V112.677H399.24Z" fill="black"/>
<path d="M479.079 112.677L484.821 99.9868H486.765L492.579 112.677H490.221L488.673 109.113L489.609 109.743H481.995L482.967 109.113L481.419 112.677H479.079ZM485.775 102.471L483.237 108.483L482.769 107.925H488.817L488.439 108.483L485.847 102.471H485.775ZM493.803 116.565V105.855C493.803 105.483 493.791 105.105 493.767 104.721C493.743 104.337 493.707 103.959 493.659 103.587H495.837L496.035 105.495H495.837C496.017 104.859 496.395 104.355 496.971 103.983C497.559 103.599 498.237 103.407 499.005 103.407C499.809 103.407 500.511 103.599 501.111 103.983C501.711 104.355 502.179 104.895 502.515 105.603C502.851 106.299 503.019 107.139 503.019 108.123C503.019 109.107 502.851 109.953 502.515 110.661C502.179 111.369 501.711 111.915 501.111 112.299C500.511 112.671 499.809 112.857 499.005 112.857C498.249 112.857 497.583 112.671 497.007 112.299C496.431 111.927 496.047 111.429 495.855 110.805H496.053V116.565H493.803ZM498.375 111.129C499.095 111.129 499.671 110.883 500.103 110.391C500.535 109.887 500.751 109.131 500.751 108.123C500.751 107.115 500.535 106.365 500.103 105.873C499.671 105.381 499.095 105.135 498.375 105.135C497.667 105.135 497.097 105.381 496.665 105.873C496.233 106.365 496.017 107.115 496.017 108.123C496.017 109.131 496.233 109.887 496.665 110.391C497.097 110.883 497.667 111.129 498.375 111.129ZM504.948 112.677V105.909C504.948 105.525 504.936 105.135 504.912 104.739C504.9 104.343 504.87 103.959 504.822 103.587H507L507.252 106.071H506.892C507.012 105.471 507.21 104.973 507.486 104.577C507.774 104.181 508.122 103.887 508.53 103.695C508.938 103.503 509.382 103.407 509.862 103.407C510.078 103.407 510.252 103.419 510.384 103.443C510.516 103.455 510.648 103.485 510.78 103.533L510.762 105.513C510.534 105.417 510.336 105.357 510.168 105.333C510.012 105.309 509.814 105.297 509.574 105.297C509.058 105.297 508.62 105.405 508.26 105.621C507.912 105.837 507.648 106.137 507.468 106.521C507.3 106.905 507.216 107.343 507.216 107.835V112.677H504.948ZM512.032 112.677V103.587H514.282V112.677H512.032ZM511.906 101.877V99.6808H514.408V101.877H511.906ZM516.725 112.677V99.4288H518.975V112.677H516.725Z" fill="black"/>
<path d="M592.804 112.677V99.9868H594.838L599.5 110.481H598.942L603.604 99.9868H605.62V112.677H603.514V103.263H604.162L599.896 112.677H598.51L594.244 103.263H594.91V112.677H592.804ZM611.778 112.857C610.986 112.857 610.29 112.671 609.69 112.299C609.09 111.915 608.622 111.369 608.286 110.661C607.95 109.953 607.782 109.107 607.782 108.123C607.782 107.139 607.95 106.299 608.286 105.603C608.622 104.895 609.09 104.355 609.69 103.983C610.29 103.599 610.986 103.407 611.778 103.407C612.546 103.407 613.218 103.599 613.794 103.983C614.382 104.355 614.772 104.859 614.964 105.495H614.766L614.964 103.587H617.124C617.088 103.959 617.052 104.337 617.016 104.721C616.992 105.105 616.98 105.483 616.98 105.855V112.677H614.748L614.73 110.805H614.946C614.754 111.429 614.364 111.927 613.776 112.299C613.188 112.671 612.522 112.857 611.778 112.857ZM612.408 111.129C613.116 111.129 613.686 110.883 614.118 110.391C614.55 109.887 614.766 109.131 614.766 108.123C614.766 107.115 614.55 106.365 614.118 105.873C613.686 105.381 613.116 105.135 612.408 105.135C611.7 105.135 611.13 105.381 610.698 105.873C610.266 106.365 610.05 107.115 610.05 108.123C610.05 109.131 610.26 109.887 610.68 110.391C611.112 110.883 611.688 111.129 612.408 111.129ZM619.163 116.763L618.641 114.981C619.205 114.861 619.679 114.723 620.063 114.567C620.447 114.411 620.765 114.207 621.017 113.955C621.269 113.703 621.479 113.379 621.647 112.983L622.097 111.921L622.043 112.803L618.083 103.587H620.477L623.321 110.679H622.799L625.661 103.587H627.929L623.789 113.181C623.513 113.829 623.213 114.363 622.889 114.783C622.565 115.215 622.217 115.557 621.845 115.809C621.473 116.073 621.065 116.277 620.621 116.421C620.177 116.565 619.691 116.679 619.163 116.763Z" fill="black"/>
<path d="M25 136L675 136" stroke="#0247FF"/>
<path d="M609.941 209.161L616.097 197.605V198.415H609.365V196.471H618.239V198.199L612.479 209.161H609.941Z" fill="black"/>
<path d="M602.998 248.131V246.205H605.914V237.385H607.03L603.286 239.617V237.421L606.58 235.441H608.236V246.205H610.972V248.131H602.998ZM618.201 248.131V245.647H612.531V244.027L618.561 235.441H620.433V243.883H622.251V245.647H620.433V248.131H618.201ZM618.201 243.883V238.177H618.633L614.259 244.423V243.883H618.201Z" fill="black"/>
<path d="M602.404 287.101V285.391L606.616 280.999C607.144 280.447 607.534 279.937 607.786 279.469C608.038 279.001 608.164 278.521 608.164 278.029C608.164 277.417 607.972 276.955 607.588 276.643C607.204 276.331 606.646 276.175 605.914 276.175C605.326 276.175 604.762 276.283 604.222 276.499C603.682 276.703 603.154 277.027 602.638 277.471L601.882 275.743C602.398 275.287 603.034 274.921 603.79 274.645C604.558 274.369 605.362 274.231 606.202 274.231C607.57 274.231 608.62 274.537 609.352 275.149C610.084 275.761 610.45 276.637 610.45 277.777C610.45 278.569 610.264 279.325 609.892 280.045C609.52 280.753 608.944 281.497 608.164 282.277L604.654 285.787V285.175H610.954V287.101H602.404ZM613.791 287.101V285.175H616.707V276.355H617.823L614.079 278.587V276.391L617.373 274.411H619.029V285.175H621.765V287.101H613.791Z" fill="black"/>
<path d="M602.404 326.07V324.36L606.616 319.968C607.144 319.416 607.534 318.906 607.786 318.438C608.038 317.97 608.164 317.49 608.164 316.998C608.164 316.386 607.972 315.924 607.588 315.612C607.204 315.3 606.646 315.144 605.914 315.144C605.326 315.144 604.762 315.252 604.222 315.468C603.682 315.672 603.154 315.996 602.638 316.44L601.882 314.712C602.398 314.256 603.034 313.89 603.79 313.614C604.558 313.338 605.362 313.2 606.202 313.2C607.57 313.2 608.62 313.506 609.352 314.118C610.084 314.73 610.45 315.606 610.45 316.746C610.45 317.538 610.264 318.294 609.892 319.014C609.52 319.722 608.944 320.466 608.164 321.246L604.654 324.756V324.144H610.954V326.07H602.404ZM617.193 326.25C615.705 326.25 614.541 325.932 613.701 325.296C612.873 324.66 612.459 323.778 612.459 322.65C612.459 321.762 612.729 321.024 613.269 320.436C613.809 319.848 614.511 319.5 615.375 319.392V319.77C614.595 319.602 613.965 319.236 613.485 318.672C613.017 318.108 612.783 317.424 612.783 316.62C612.783 315.552 613.173 314.718 613.953 314.118C614.745 313.506 615.825 313.2 617.193 313.2C618.573 313.2 619.653 313.506 620.433 314.118C621.225 314.718 621.621 315.552 621.621 316.62C621.621 317.424 621.393 318.114 620.937 318.69C620.493 319.266 619.887 319.62 619.119 319.752V319.392C619.971 319.512 620.655 319.866 621.171 320.454C621.687 321.03 621.945 321.762 621.945 322.65C621.945 323.778 621.525 324.66 620.685 325.296C619.857 325.932 618.693 326.25 617.193 326.25ZM617.193 324.45C618.069 324.45 618.723 324.288 619.155 323.964C619.587 323.628 619.803 323.136 619.803 322.488C619.803 321.84 619.587 321.354 619.155 321.03C618.723 320.706 618.069 320.544 617.193 320.544C616.329 320.544 615.675 320.706 615.231 321.03C614.799 321.354 614.583 321.84 614.583 322.488C614.583 323.136 614.799 323.628 615.231 323.964C615.675 324.288 616.329 324.45 617.193 324.45ZM617.193 318.744C617.937 318.744 618.501 318.576 618.885 318.24C619.281 317.904 619.479 317.442 619.479 316.854C619.479 316.278 619.281 315.828 618.885 315.504C618.501 315.168 617.937 315 617.193 315C616.461 315 615.897 315.168 615.501 315.504C615.117 315.828 614.925 316.278 614.925 316.854C614.925 317.442 615.117 317.904 615.501 318.24C615.897 318.576 616.461 318.744 617.193 318.744Z" fill="black"/>
<path d="M609.603 174.991C608.583 174.991 607.641 174.865 606.777 174.613C605.925 174.349 605.193 173.989 604.581 173.533L605.301 171.715C605.709 172.003 606.135 172.249 606.579 172.453C607.023 172.645 607.497 172.795 608.001 172.903C608.505 172.999 609.039 173.047 609.603 173.047C610.551 173.047 611.235 172.891 611.655 172.579C612.075 172.267 612.285 171.859 612.285 171.355C612.285 170.911 612.141 170.575 611.853 170.347C611.565 170.107 611.049 169.909 610.305 169.753L608.271 169.339C607.107 169.099 606.237 168.697 605.661 168.133C605.085 167.569 604.797 166.813 604.797 165.865C604.797 165.073 605.007 164.383 605.427 163.795C605.847 163.207 606.435 162.751 607.191 162.427C607.947 162.103 608.829 161.941 609.837 161.941C610.737 161.941 611.571 162.073 612.339 162.337C613.107 162.589 613.749 162.955 614.265 163.435L613.545 165.163C613.029 164.731 612.465 164.413 611.853 164.209C611.241 163.993 610.557 163.885 609.801 163.885C608.949 163.885 608.283 164.053 607.803 164.389C607.335 164.713 607.101 165.163 607.101 165.739C607.101 166.183 607.245 166.537 607.533 166.801C607.833 167.065 608.337 167.269 609.045 167.413L611.061 167.809C612.261 168.049 613.149 168.445 613.725 168.997C614.301 169.537 614.589 170.269 614.589 171.193C614.589 171.949 614.385 172.615 613.977 173.191C613.569 173.755 612.993 174.199 612.249 174.523C611.505 174.835 610.623 174.991 609.603 174.991ZM620.107 174.991C619.315 174.991 618.619 174.805 618.019 174.433C617.419 174.049 616.951 173.503 616.615 172.795C616.279 172.087 616.111 171.241 616.111 170.257C616.111 169.273 616.279 168.433 616.615 167.737C616.951 167.029 617.419 166.489 618.019 166.117C618.619 165.733 619.315 165.541 620.107 165.541C620.875 165.541 621.547 165.733 622.123 166.117C622.711 166.489 623.101 166.993 623.293 167.629H623.095L623.293 165.721H625.453C625.417 166.093 625.381 166.471 625.345 166.855C625.321 167.239 625.309 167.617 625.309 167.989V174.811H623.077L623.059 172.939H623.275C623.083 173.563 622.693 174.061 622.105 174.433C621.517 174.805 620.851 174.991 620.107 174.991ZM620.737 173.263C621.445 173.263 622.015 173.017 622.447 172.525C622.879 172.021 623.095 171.265 623.095 170.257C623.095 169.249 622.879 168.499 622.447 168.007C622.015 167.515 621.445 167.269 620.737 167.269C620.029 167.269 619.459 167.515 619.027 168.007C618.595 168.499 618.379 169.249 618.379 170.257C618.379 171.265 618.589 172.021 619.009 172.525C619.441 173.017 620.017 173.263 620.737 173.263Z" fill="#0247FF"/>
<path d="M336.572 209.161V206.677H330.902V205.057L336.932 196.471H338.804V204.913H340.622V206.677H338.804V209.161H336.572ZM336.572 204.913V199.207H337.004L332.63 205.453V204.913H336.572Z" fill="black"/>
<path d="M324.769 248.131V246.205H327.685V237.385H328.801L325.057 239.617V237.421L328.351 235.441H330.007V246.205H332.743V248.131H324.769ZM335.562 248.131V246.205H338.478V237.385H339.594L335.85 239.617V237.421L339.144 235.441H340.8V246.205H343.536V248.131H335.562Z" fill="black"/>
<path d="M324.769 287.101V285.175H327.685V276.355H328.801L325.057 278.587V276.391L328.351 274.411H330.007V285.175H332.743V287.101H324.769ZM338.964 287.281C337.476 287.281 336.312 286.963 335.472 286.327C334.644 285.691 334.23 284.809 334.23 283.681C334.23 282.793 334.5 282.055 335.04 281.467C335.58 280.879 336.282 280.531 337.146 280.423V280.801C336.366 280.633 335.736 280.267 335.256 279.703C334.788 279.139 334.554 278.455 334.554 277.651C334.554 276.583 334.944 275.749 335.724 275.149C336.516 274.537 337.596 274.231 338.964 274.231C340.344 274.231 341.424 274.537 342.204 275.149C342.996 275.749 343.392 276.583 343.392 277.651C343.392 278.455 343.164 279.145 342.708 279.721C342.264 280.297 341.658 280.651 340.89 280.783V280.423C341.742 280.543 342.426 280.897 342.942 281.485C343.458 282.061 343.716 282.793 343.716 283.681C343.716 284.809 343.296 285.691 342.456 286.327C341.628 286.963 340.464 287.281 338.964 287.281ZM338.964 285.481C339.84 285.481 340.494 285.319 340.926 284.995C341.358 284.659 341.574 284.167 341.574 283.519C341.574 282.871 341.358 282.385 340.926 282.061C340.494 281.737 339.84 281.575 338.964 281.575C338.1 281.575 337.446 281.737 337.002 282.061C336.57 282.385 336.354 282.871 336.354 283.519C336.354 284.167 336.57 284.659 337.002 284.995C337.446 285.319 338.1 285.481 338.964 285.481ZM338.964 279.775C339.708 279.775 340.272 279.607 340.656 279.271C341.052 278.935 341.25 278.473 341.25 277.885C341.25 277.309 341.052 276.859 340.656 276.535C340.272 276.199 339.708 276.031 338.964 276.031C338.232 276.031 337.668 276.199 337.272 276.535C336.888 276.859 336.696 277.309 336.696 277.885C336.696 278.473 336.888 278.935 337.272 279.271C337.668 279.607 338.232 279.775 338.964 279.775Z" fill="black"/>
<path d="M324.175 326.07V324.36L328.387 319.968C328.915 319.416 329.305 318.906 329.557 318.438C329.809 317.97 329.935 317.49 329.935 316.998C329.935 316.386 329.743 315.924 329.359 315.612C328.975 315.3 328.417 315.144 327.685 315.144C327.097 315.144 326.533 315.252 325.993 315.468C325.453 315.672 324.925 315.996 324.409 316.44L323.653 314.712C324.169 314.256 324.805 313.89 325.561 313.614C326.329 313.338 327.133 313.2 327.973 313.2C329.341 313.2 330.391 313.506 331.123 314.118C331.855 314.73 332.221 315.606 332.221 316.746C332.221 317.538 332.035 318.294 331.663 319.014C331.291 319.722 330.715 320.466 329.935 321.246L326.425 324.756V324.144H332.725V326.07H324.175ZM339.054 326.25C338.502 326.25 337.95 326.19 337.398 326.07C336.858 325.95 336.348 325.782 335.868 325.566C335.4 325.35 334.998 325.092 334.662 324.792L335.418 323.046C335.982 323.466 336.558 323.784 337.146 324C337.746 324.204 338.37 324.306 339.018 324.306C339.798 324.306 340.404 324.114 340.836 323.73C341.28 323.334 341.502 322.806 341.502 322.146C341.502 321.474 341.292 320.934 340.872 320.526C340.452 320.106 339.876 319.896 339.144 319.896C338.628 319.896 338.154 319.998 337.722 320.202C337.302 320.394 336.924 320.694 336.588 321.102H335.058V313.38H342.942V315.288H337.254V319.32H336.696C337.008 318.9 337.422 318.576 337.938 318.348C338.466 318.12 339.054 318.006 339.702 318.006C340.518 318.006 341.226 318.174 341.826 318.51C342.426 318.846 342.894 319.32 343.23 319.932C343.566 320.532 343.734 321.24 343.734 322.056C343.734 322.884 343.542 323.616 343.158 324.252C342.786 324.876 342.246 325.368 341.538 325.728C340.842 326.076 340.014 326.25 339.054 326.25Z" fill="black"/>
<path d="M324.932 174.811L320.45 162.121H322.862L326.318 172.525H325.598L329.324 162.121H331.052L334.508 172.525H333.842L337.46 162.121H339.728L335.21 174.811H333.284L329.936 165.055H330.332L326.858 174.811H324.932ZM344.671 174.991C343.147 174.991 341.953 174.571 341.089 173.731C340.225 172.891 339.793 171.739 339.793 170.275C339.793 169.327 339.979 168.499 340.351 167.791C340.723 167.083 341.239 166.531 341.899 166.135C342.571 165.739 343.351 165.541 344.239 165.541C345.115 165.541 345.847 165.727 346.435 166.099C347.023 166.471 347.467 166.993 347.767 167.665C348.079 168.337 348.235 169.123 348.235 170.023V170.617H341.611V169.429H346.633L346.327 169.681C346.327 168.841 346.147 168.199 345.787 167.755C345.439 167.311 344.929 167.089 344.257 167.089C343.513 167.089 342.937 167.353 342.529 167.881C342.133 168.409 341.935 169.147 341.935 170.095V170.329C341.935 171.313 342.175 172.051 342.655 172.543C343.147 173.023 343.837 173.263 344.725 173.263C345.241 173.263 345.721 173.197 346.165 173.065C346.621 172.921 347.053 172.693 347.461 172.381L348.127 173.893C347.695 174.241 347.179 174.511 346.579 174.703C345.979 174.895 345.343 174.991 344.671 174.991Z" fill="#0247FF"/>
<path d="M419.959 209.341C419.407 209.341 418.855 209.281 418.303 209.161C417.763 209.041 417.253 208.873 416.773 208.657C416.305 208.441 415.903 208.183 415.567 207.883L416.323 206.137C416.887 206.557 417.463 206.875 418.051 207.091C418.651 207.295 419.275 207.397 419.923 207.397C420.703 207.397 421.309 207.205 421.741 206.821C422.185 206.425 422.407 205.897 422.407 205.237C422.407 204.565 422.197 204.025 421.777 203.617C421.357 203.197 420.781 202.987 420.049 202.987C419.533 202.987 419.059 203.089 418.627 203.293C418.207 203.485 417.829 203.785 417.493 204.193H415.963V196.471H423.847V198.379H418.159V202.411H417.601C417.913 201.991 418.327 201.667 418.843 201.439C419.371 201.211 419.959 201.097 420.607 201.097C421.423 201.097 422.131 201.265 422.731 201.601C423.331 201.937 423.799 202.411 424.135 203.023C424.471 203.623 424.639 204.331 424.639 205.147C424.639 205.975 424.447 206.707 424.063 207.343C423.691 207.967 423.151 208.459 422.443 208.819C421.747 209.167 420.919 209.341 419.959 209.341Z" fill="black"/>
<path d="M409.998 248.131V246.205H412.914V237.385H414.03L410.286 239.617V237.421L413.58 235.441H415.236V246.205H417.972V248.131H409.998ZM420.197 248.131V246.421L424.409 242.029C424.937 241.477 425.327 240.967 425.579 240.499C425.831 240.031 425.957 239.551 425.957 239.059C425.957 238.447 425.765 237.985 425.381 237.673C424.997 237.361 424.439 237.205 423.707 237.205C423.119 237.205 422.555 237.313 422.015 237.529C421.475 237.733 420.947 238.057 420.431 238.501L419.675 236.773C420.191 236.317 420.827 235.951 421.583 235.675C422.351 235.399 423.155 235.261 423.995 235.261C425.363 235.261 426.413 235.567 427.145 236.179C427.877 236.791 428.243 237.667 428.243 238.807C428.243 239.599 428.057 240.355 427.685 241.075C427.313 241.783 426.737 242.527 425.957 243.307L422.447 246.817V246.205H428.747V248.131H420.197Z" fill="black"/>
<path d="M409.998 287.101V285.175H412.914V276.355H414.03L410.286 278.587V276.391L413.58 274.411H415.236V285.175H417.972V287.101H409.998ZM423.239 287.281C422.555 287.281 421.877 287.155 421.205 286.903C420.533 286.639 419.957 286.285 419.477 285.841L420.251 284.113C420.695 284.521 421.175 284.827 421.691 285.031C422.207 285.235 422.729 285.337 423.257 285.337C424.325 285.337 425.141 284.971 425.705 284.239C426.281 283.507 426.569 282.415 426.569 280.963V279.613H426.785C426.701 280.213 426.497 280.735 426.173 281.179C425.849 281.623 425.441 281.965 424.949 282.205C424.469 282.433 423.929 282.547 423.329 282.547C422.597 282.547 421.937 282.373 421.349 282.025C420.773 281.677 420.317 281.197 419.981 280.585C419.657 279.961 419.495 279.259 419.495 278.479C419.495 277.651 419.675 276.919 420.035 276.283C420.407 275.647 420.911 275.149 421.547 274.789C422.183 274.417 422.915 274.231 423.743 274.231C425.351 274.231 426.587 274.783 427.451 275.887C428.327 276.979 428.765 278.527 428.765 280.531C428.765 281.959 428.543 283.177 428.099 284.185C427.667 285.193 427.037 285.961 426.209 286.489C425.381 287.017 424.391 287.281 423.239 287.281ZM423.887 280.711C424.331 280.711 424.721 280.615 425.057 280.423C425.393 280.231 425.657 279.961 425.849 279.613C426.041 279.253 426.137 278.845 426.137 278.389C426.137 277.921 426.041 277.513 425.849 277.165C425.657 276.817 425.393 276.547 425.057 276.355C424.721 276.151 424.331 276.049 423.887 276.049C423.443 276.049 423.053 276.151 422.717 276.355C422.381 276.547 422.117 276.817 421.925 277.165C421.745 277.513 421.655 277.921 421.655 278.389C421.655 278.845 421.745 279.253 421.925 279.613C422.117 279.961 422.381 280.231 422.717 280.423C423.053 280.615 423.443 280.711 423.887 280.711Z" fill="black"/>
<path d="M409.404 326.07V324.36L413.616 319.968C414.144 319.416 414.534 318.906 414.786 318.438C415.038 317.97 415.164 317.49 415.164 316.998C415.164 316.386 414.972 315.924 414.588 315.612C414.204 315.3 413.646 315.144 412.914 315.144C412.326 315.144 411.762 315.252 411.222 315.468C410.682 315.672 410.154 315.996 409.638 316.44L408.882 314.712C409.398 314.256 410.034 313.89 410.79 313.614C411.558 313.338 412.362 313.2 413.202 313.2C414.57 313.2 415.62 313.506 416.352 314.118C417.084 314.73 417.45 315.606 417.45 316.746C417.45 317.538 417.264 318.294 416.892 319.014C416.52 319.722 415.944 320.466 415.164 321.246L411.654 324.756V324.144H417.954V326.07H409.404ZM424.643 326.25C423.047 326.25 421.811 325.698 420.935 324.594C420.071 323.49 419.639 321.942 419.639 319.95C419.639 318.51 419.861 317.292 420.305 316.296C420.749 315.288 421.379 314.52 422.195 313.992C423.023 313.464 424.013 313.2 425.165 313.2C425.849 313.2 426.527 313.326 427.199 313.578C427.871 313.818 428.447 314.166 428.927 314.622L428.153 316.35C427.709 315.942 427.229 315.642 426.713 315.45C426.197 315.246 425.675 315.144 425.147 315.144C424.067 315.144 423.245 315.51 422.681 316.242C422.117 316.974 421.835 318.066 421.835 319.518V320.868H421.619C421.715 320.256 421.919 319.734 422.231 319.302C422.543 318.858 422.945 318.522 423.437 318.294C423.929 318.054 424.475 317.934 425.075 317.934C425.819 317.934 426.479 318.108 427.055 318.456C427.631 318.804 428.081 319.284 428.405 319.896C428.741 320.508 428.909 321.21 428.909 322.002C428.909 322.818 428.723 323.55 428.351 324.198C427.991 324.834 427.493 325.338 426.857 325.71C426.221 326.07 425.483 326.25 424.643 326.25ZM424.517 324.414C424.961 324.414 425.351 324.318 425.687 324.126C426.023 323.934 426.281 323.664 426.461 323.316C426.653 322.956 426.749 322.548 426.749 322.092C426.749 321.624 426.653 321.216 426.461 320.868C426.281 320.52 426.023 320.25 425.687 320.058C425.351 319.854 424.961 319.752 424.517 319.752C424.073 319.752 423.683 319.854 423.347 320.058C423.011 320.25 422.747 320.52 422.555 320.868C422.363 321.216 422.267 321.624 422.267 322.092C422.267 322.548 422.363 322.956 422.555 323.316C422.747 323.664 423.011 323.934 423.347 324.126C423.683 324.318 424.073 324.414 424.517 324.414Z" fill="black"/>
<path d="M414.24 174.811V164.029H410.046V162.121H420.756V164.029H416.562V174.811H414.24ZM422.216 174.811V161.563H424.466V167.539H424.214C424.49 166.891 424.916 166.399 425.492 166.063C426.068 165.715 426.728 165.541 427.472 165.541C428.552 165.541 429.356 165.847 429.884 166.459C430.412 167.059 430.676 167.977 430.676 169.213V174.811H428.426V169.321C428.426 168.613 428.288 168.103 428.012 167.791C427.748 167.467 427.322 167.305 426.734 167.305C426.05 167.305 425.498 167.521 425.078 167.953C424.67 168.373 424.466 168.937 424.466 169.645V174.811H422.216Z" fill="#0247FF"/>
<path d="M157.126 365.221C156.25 365.221 155.41 365.095 154.606 364.843C153.802 364.579 153.142 364.219 152.626 363.763L153.382 362.017C153.946 362.449 154.528 362.767 155.128 362.971C155.74 363.175 156.382 363.277 157.054 363.277C157.87 363.277 158.488 363.115 158.908 362.791C159.328 362.467 159.538 361.993 159.538 361.369C159.538 360.769 159.328 360.319 158.908 360.019C158.5 359.707 157.9 359.551 157.108 359.551H155.056V357.697H156.91C157.594 357.697 158.14 357.529 158.548 357.193C158.956 356.857 159.16 356.395 159.16 355.807C159.16 355.255 158.968 354.835 158.584 354.547C158.212 354.259 157.672 354.115 156.964 354.115C155.692 354.115 154.57 354.547 153.598 355.411L152.842 353.683C153.358 353.203 153.994 352.831 154.75 352.567C155.518 352.303 156.322 352.171 157.162 352.171C158.482 352.171 159.514 352.471 160.258 353.071C161.014 353.659 161.392 354.481 161.392 355.537C161.392 356.293 161.176 356.947 160.744 357.499C160.324 358.039 159.742 358.399 158.998 358.579V358.363C159.874 358.507 160.552 358.867 161.032 359.443C161.524 360.007 161.77 360.715 161.77 361.567C161.77 362.695 161.356 363.589 160.528 364.249C159.7 364.897 158.566 365.221 157.126 365.221ZM168.117 365.221C166.629 365.221 165.483 364.657 164.679 363.529C163.875 362.389 163.473 360.769 163.473 358.669C163.473 356.545 163.875 354.931 164.679 353.827C165.483 352.723 166.629 352.171 168.117 352.171C169.617 352.171 170.763 352.723 171.555 353.827C172.359 354.931 172.761 356.539 172.761 358.651C172.761 360.763 172.359 362.389 171.555 363.529C170.763 364.657 169.617 365.221 168.117 365.221ZM168.117 363.313C168.933 363.313 169.539 362.941 169.935 362.197C170.331 361.441 170.529 360.259 170.529 358.651C170.529 357.043 170.331 355.879 169.935 355.159C169.539 354.427 168.933 354.061 168.117 354.061C167.313 354.061 166.707 354.427 166.299 355.159C165.903 355.879 165.705 357.043 165.705 358.651C165.705 360.259 165.903 361.441 166.299 362.197C166.707 362.941 167.313 363.313 168.117 363.313Z" fill="black"/>
<path d="M160.72 209.161V207.451L164.932 203.059C165.46 202.507 165.85 201.997 166.102 201.529C166.354 201.061 166.48 200.581 166.48 200.089C166.48 199.477 166.288 199.015 165.904 198.703C165.52 198.391 164.962 198.235 164.23 198.235C163.642 198.235 163.078 198.343 162.538 198.559C161.998 198.763 161.47 199.087 160.954 199.531L160.198 197.803C160.714 197.347 161.35 196.981 162.106 196.705C162.874 196.429 163.678 196.291 164.518 196.291C165.886 196.291 166.936 196.597 167.668 197.209C168.4 197.821 168.766 198.697 168.766 199.837C168.766 200.629 168.58 201.385 168.208 202.105C167.836 202.813 167.26 203.557 166.48 204.337L162.97 207.847V207.235H169.27V209.161H160.72Z" fill="black"/>
<path d="M163.762 248.311C163.078 248.311 162.4 248.185 161.728 247.933C161.056 247.669 160.48 247.315 160 246.871L160.774 245.143C161.218 245.551 161.698 245.857 162.214 246.061C162.73 246.265 163.252 246.367 163.78 246.367C164.848 246.367 165.664 246.001 166.228 245.269C166.804 244.537 167.092 243.445 167.092 241.993V240.643H167.308C167.224 241.243 167.02 241.765 166.696 242.209C166.372 242.653 165.964 242.995 165.472 243.235C164.992 243.463 164.452 243.577 163.852 243.577C163.12 243.577 162.46 243.403 161.872 243.055C161.296 242.707 160.84 242.227 160.504 241.615C160.18 240.991 160.018 240.289 160.018 239.509C160.018 238.681 160.198 237.949 160.558 237.313C160.93 236.677 161.434 236.179 162.07 235.819C162.706 235.447 163.438 235.261 164.266 235.261C165.874 235.261 167.11 235.813 167.974 236.917C168.85 238.009 169.288 239.557 169.288 241.561C169.288 242.989 169.066 244.207 168.622 245.215C168.19 246.223 167.56 246.991 166.732 247.519C165.904 248.047 164.914 248.311 163.762 248.311ZM164.41 241.741C164.854 241.741 165.244 241.645 165.58 241.453C165.916 241.261 166.18 240.991 166.372 240.643C166.564 240.283 166.66 239.875 166.66 239.419C166.66 238.951 166.564 238.543 166.372 238.195C166.18 237.847 165.916 237.577 165.58 237.385C165.244 237.181 164.854 237.079 164.41 237.079C163.966 237.079 163.576 237.181 163.24 237.385C162.904 237.577 162.64 237.847 162.448 238.195C162.268 238.543 162.178 238.951 162.178 239.419C162.178 239.875 162.268 240.283 162.448 240.643C162.64 240.991 162.904 241.261 163.24 241.453C163.576 241.645 163.966 241.741 164.41 241.741Z" fill="black"/>
<path d="M153.922 287.101V285.175H156.838V276.355H157.954L154.21 278.587V276.391L157.504 274.411H159.16V285.175H161.896V287.101H153.922ZM168.567 287.281C166.971 287.281 165.735 286.729 164.859 285.625C163.995 284.521 163.563 282.973 163.563 280.981C163.563 279.541 163.785 278.323 164.229 277.327C164.673 276.319 165.303 275.551 166.119 275.023C166.947 274.495 167.937 274.231 169.089 274.231C169.773 274.231 170.451 274.357 171.123 274.609C171.795 274.849 172.371 275.197 172.851 275.653L172.077 277.381C171.633 276.973 171.153 276.673 170.637 276.481C170.121 276.277 169.599 276.175 169.071 276.175C167.991 276.175 167.169 276.541 166.605 277.273C166.041 278.005 165.759 279.097 165.759 280.549V281.899H165.543C165.639 281.287 165.843 280.765 166.155 280.333C166.467 279.889 166.869 279.553 167.361 279.325C167.853 279.085 168.399 278.965 168.999 278.965C169.743 278.965 170.403 279.139 170.979 279.487C171.555 279.835 172.005 280.315 172.329 280.927C172.665 281.539 172.833 282.241 172.833 283.033C172.833 283.849 172.647 284.581 172.275 285.229C171.915 285.865 171.417 286.369 170.781 286.741C170.145 287.101 169.407 287.281 168.567 287.281ZM168.441 285.445C168.885 285.445 169.275 285.349 169.611 285.157C169.947 284.965 170.205 284.695 170.385 284.347C170.577 283.987 170.673 283.579 170.673 283.123C170.673 282.655 170.577 282.247 170.385 281.899C170.205 281.551 169.947 281.281 169.611 281.089C169.275 280.885 168.885 280.783 168.441 280.783C167.997 280.783 167.607 280.885 167.271 281.089C166.935 281.281 166.671 281.551 166.479 281.899C166.287 282.247 166.191 282.655 166.191 283.123C166.191 283.579 166.287 283.987 166.479 284.347C166.671 284.695 166.935 284.965 167.271 285.157C167.607 285.349 167.997 285.445 168.441 285.445Z" fill="black"/>
<path d="M153.328 326.07V324.36L157.54 319.968C158.068 319.416 158.458 318.906 158.71 318.438C158.962 317.97 159.088 317.49 159.088 316.998C159.088 316.386 158.896 315.924 158.512 315.612C158.128 315.3 157.57 315.144 156.838 315.144C156.25 315.144 155.686 315.252 155.146 315.468C154.606 315.672 154.078 315.996 153.562 316.44L152.806 314.712C153.322 314.256 153.958 313.89 154.714 313.614C155.482 313.338 156.286 313.2 157.126 313.2C158.494 313.2 159.544 313.506 160.276 314.118C161.008 314.73 161.374 315.606 161.374 316.746C161.374 317.538 161.188 318.294 160.816 319.014C160.444 319.722 159.868 320.466 159.088 321.246L155.578 324.756V324.144H161.878V326.07H153.328ZM167.919 326.25C167.043 326.25 166.203 326.124 165.399 325.872C164.595 325.608 163.935 325.248 163.419 324.792L164.175 323.046C164.739 323.478 165.321 323.796 165.921 324C166.533 324.204 167.175 324.306 167.847 324.306C168.663 324.306 169.281 324.144 169.701 323.82C170.121 323.496 170.331 323.022 170.331 322.398C170.331 321.798 170.121 321.348 169.701 321.048C169.293 320.736 168.693 320.58 167.901 320.58H165.849V318.726H167.703C168.387 318.726 168.933 318.558 169.341 318.222C169.749 317.886 169.953 317.424 169.953 316.836C169.953 316.284 169.761 315.864 169.377 315.576C169.005 315.288 168.465 315.144 167.757 315.144C166.485 315.144 165.363 315.576 164.391 316.44L163.635 314.712C164.151 314.232 164.787 313.86 165.543 313.596C166.311 313.332 167.115 313.2 167.955 313.2C169.275 313.2 170.307 313.5 171.051 314.1C171.807 314.688 172.185 315.51 172.185 316.566C172.185 317.322 171.969 317.976 171.537 318.528C171.117 319.068 170.535 319.428 169.791 319.608V319.392C170.667 319.536 171.345 319.896 171.825 320.472C172.317 321.036 172.563 321.744 172.563 322.596C172.563 323.724 172.149 324.618 171.321 325.278C170.493 325.926 169.359 326.25 167.919 326.25Z" fill="black"/>
<path d="M152.422 174.811V162.121H154.456L159.118 172.615H158.56L163.222 162.121H165.238V174.811H163.132V165.397H163.78L159.514 174.811H158.128L153.862 165.397H154.528V174.811H152.422ZM171.99 174.991C171.054 174.991 170.244 174.799 169.56 174.415C168.876 174.031 168.342 173.485 167.958 172.777C167.586 172.069 167.4 171.229 167.4 170.257C167.4 169.285 167.586 168.451 167.958 167.755C168.342 167.047 168.876 166.501 169.56 166.117C170.244 165.733 171.054 165.541 171.99 165.541C172.926 165.541 173.736 165.733 174.42 166.117C175.116 166.501 175.65 167.047 176.022 167.755C176.406 168.451 176.598 169.285 176.598 170.257C176.598 171.229 176.406 172.069 176.022 172.777C175.65 173.485 175.116 174.031 174.42 174.415C173.736 174.799 172.926 174.991 171.99 174.991ZM171.99 173.263C172.698 173.263 173.262 173.017 173.682 172.525C174.102 172.021 174.312 171.265 174.312 170.257C174.312 169.249 174.102 168.499 173.682 168.007C173.262 167.515 172.698 167.269 171.99 167.269C171.282 167.269 170.718 167.515 170.298 168.007C169.878 168.499 169.668 169.249 169.668 170.257C169.668 171.265 169.878 172.021 170.298 172.525C170.718 173.017 171.282 173.263 171.99 173.263Z" fill="#0247FF"/>
<path d="M242.202 365.221C241.326 365.221 240.486 365.095 239.682 364.843C238.878 364.579 238.218 364.219 237.702 363.763L238.458 362.017C239.022 362.449 239.604 362.767 240.204 362.971C240.816 363.175 241.458 363.277 242.13 363.277C242.946 363.277 243.564 363.115 243.984 362.791C244.404 362.467 244.614 361.993 244.614 361.369C244.614 360.769 244.404 360.319 243.984 360.019C243.576 359.707 242.976 359.551 242.184 359.551H240.132V357.697H241.986C242.67 357.697 243.216 357.529 243.624 357.193C244.032 356.857 244.236 356.395 244.236 355.807C244.236 355.255 244.044 354.835 243.66 354.547C243.288 354.259 242.748 354.115 242.04 354.115C240.768 354.115 239.646 354.547 238.674 355.411L237.918 353.683C238.434 353.203 239.07 352.831 239.826 352.567C240.594 352.303 241.398 352.171 242.238 352.171C243.558 352.171 244.59 352.471 245.334 353.071C246.09 353.659 246.468 354.481 246.468 355.537C246.468 356.293 246.252 356.947 245.82 357.499C245.4 358.039 244.818 358.399 244.074 358.579V358.363C244.95 358.507 245.628 358.867 246.108 359.443C246.6 360.007 246.846 360.715 246.846 361.567C246.846 362.695 246.432 363.589 245.604 364.249C244.776 364.897 243.642 365.221 242.202 365.221ZM249.791 365.041V363.115H252.707V354.295H253.823L250.079 356.527V354.331L253.373 352.351H255.029V363.115H257.765V365.041H249.791Z" fill="black"/>
<path d="M249.593 209.341C248.717 209.341 247.877 209.215 247.073 208.963C246.269 208.699 245.609 208.339 245.093 207.883L245.849 206.137C246.413 206.569 246.995 206.887 247.595 207.091C248.207 207.295 248.849 207.397 249.521 207.397C250.337 207.397 250.955 207.235 251.375 206.911C251.795 206.587 252.005 206.113 252.005 205.489C252.005 204.889 251.795 204.439 251.375 204.139C250.967 203.827 250.367 203.671 249.575 203.671H247.523V201.817H249.377C250.061 201.817 250.607 201.649 251.015 201.313C251.423 200.977 251.627 200.515 251.627 199.927C251.627 199.375 251.435 198.955 251.051 198.667C250.679 198.379 250.139 198.235 249.431 198.235C248.159 198.235 247.037 198.667 246.065 199.531L245.309 197.803C245.825 197.323 246.461 196.951 247.217 196.687C247.985 196.423 248.789 196.291 249.629 196.291C250.949 196.291 251.981 196.591 252.725 197.191C253.481 197.779 253.859 198.601 253.859 199.657C253.859 200.413 253.643 201.067 253.211 201.619C252.791 202.159 252.209 202.519 251.465 202.699V202.483C252.341 202.627 253.019 202.987 253.499 203.563C253.991 204.127 254.237 204.835 254.237 205.687C254.237 206.815 253.823 207.709 252.995 208.369C252.167 209.017 251.033 209.341 249.593 209.341Z" fill="black"/>
<path d="M238.998 248.131V246.205H241.914V237.385H243.03L239.286 239.617V237.421L242.58 235.441H244.236V246.205H246.972V248.131H238.998ZM253.193 248.311C251.705 248.311 250.559 247.747 249.755 246.619C248.951 245.479 248.549 243.859 248.549 241.759C248.549 239.635 248.951 238.021 249.755 236.917C250.559 235.813 251.705 235.261 253.193 235.261C254.693 235.261 255.839 235.813 256.631 236.917C257.435 238.021 257.837 239.629 257.837 241.741C257.837 243.853 257.435 245.479 256.631 246.619C255.839 247.747 254.693 248.311 253.193 248.311ZM253.193 246.403C254.009 246.403 254.615 246.031 255.011 245.287C255.407 244.531 255.605 243.349 255.605 241.741C255.605 240.133 255.407 238.969 255.011 238.249C254.615 237.517 254.009 237.151 253.193 237.151C252.389 237.151 251.783 237.517 251.375 238.249C250.979 238.969 250.781 240.133 250.781 241.741C250.781 243.349 250.979 244.531 251.375 245.287C251.783 246.031 252.389 246.403 253.193 246.403Z" fill="black"/>
<path d="M238.998 287.101V285.175H241.914V276.355H243.03L239.286 278.587V276.391L242.58 274.411H244.236V285.175H246.972V287.101H238.998ZM249.341 287.101L255.497 275.545V276.355H248.765V274.411H257.639V276.139L251.879 287.101H249.341Z" fill="black"/>
<path d="M238.404 326.07V324.36L242.616 319.968C243.144 319.416 243.534 318.906 243.786 318.438C244.038 317.97 244.164 317.49 244.164 316.998C244.164 316.386 243.972 315.924 243.588 315.612C243.204 315.3 242.646 315.144 241.914 315.144C241.326 315.144 240.762 315.252 240.222 315.468C239.682 315.672 239.154 315.996 238.638 316.44L237.882 314.712C238.398 314.256 239.034 313.89 239.79 313.614C240.558 313.338 241.362 313.2 242.202 313.2C243.57 313.2 244.62 313.506 245.352 314.118C246.084 314.73 246.45 315.606 246.45 316.746C246.45 317.538 246.264 318.294 245.892 319.014C245.52 319.722 244.944 320.466 244.164 321.246L240.654 324.756V324.144H246.954V326.07H238.404ZM254.201 326.07V323.586H248.531V321.966L254.561 313.38H256.433V321.822H258.251V323.586H256.433V326.07H254.201ZM254.201 321.822V316.116H254.633L250.259 322.362V321.822H254.201Z" fill="black"/>
<path d="M246.013 174.811V164.029H241.819V162.121H252.529V164.029H248.335V174.811H246.013ZM255.912 174.991C254.796 174.991 253.962 174.685 253.41 174.073C252.858 173.461 252.582 172.525 252.582 171.265V165.721H254.832V171.247C254.832 171.919 254.97 172.417 255.246 172.741C255.522 173.053 255.942 173.209 256.506 173.209C257.142 173.209 257.658 172.993 258.054 172.561C258.462 172.129 258.666 171.559 258.666 170.851V165.721H260.916V174.811H258.72V172.957H258.972C258.708 173.605 258.306 174.109 257.766 174.469C257.238 174.817 256.62 174.991 255.912 174.991Z" fill="#0247FF"/>
<path d="M69.404 365V363.29L73.616 358.898C74.144 358.346 74.534 357.836 74.786 357.368C75.038 356.9 75.164 356.42 75.164 355.928C75.164 355.316 74.972 354.854 74.588 354.542C74.204 354.23 73.646 354.074 72.914 354.074C72.326 354.074 71.762 354.182 71.222 354.398C70.682 354.602 70.154 354.926 69.638 355.37L68.882 353.642C69.398 353.186 70.034 352.82 70.79 352.544C71.558 352.268 72.362 352.13 73.202 352.13C74.57 352.13 75.62 352.436 76.352 353.048C77.084 353.66 77.45 354.536 77.45 355.676C77.45 356.468 77.264 357.224 76.892 357.944C76.52 358.652 75.944 359.396 75.164 360.176L71.654 363.686V363.074H77.954V365H69.404ZM83.239 365.18C82.555 365.18 81.877 365.054 81.205 364.802C80.533 364.538 79.957 364.184 79.477 363.74L80.251 362.012C80.695 362.42 81.175 362.726 81.691 362.93C82.207 363.134 82.729 363.236 83.257 363.236C84.325 363.236 85.141 362.87 85.705 362.138C86.281 361.406 86.569 360.314 86.569 358.862V357.512H86.785C86.701 358.112 86.497 358.634 86.173 359.078C85.849 359.522 85.441 359.864 84.949 360.104C84.469 360.332 83.929 360.446 83.329 360.446C82.597 360.446 81.937 360.272 81.349 359.924C80.773 359.576 80.317 359.096 79.981 358.484C79.657 357.86 79.495 357.158 79.495 356.378C79.495 355.55 79.675 354.818 80.035 354.182C80.407 353.546 80.911 353.048 81.547 352.688C82.183 352.316 82.915 352.13 83.743 352.13C85.351 352.13 86.587 352.682 87.451 353.786C88.327 354.878 88.765 356.426 88.765 358.43C88.765 359.858 88.543 361.076 88.099 362.084C87.667 363.092 87.037 363.86 86.209 364.388C85.381 364.916 84.391 365.18 83.239 365.18ZM83.887 358.61C84.331 358.61 84.721 358.514 85.057 358.322C85.393 358.13 85.657 357.86 85.849 357.512C86.041 357.152 86.137 356.744 86.137 356.288C86.137 355.82 86.041 355.412 85.849 355.064C85.657 354.716 85.393 354.446 85.057 354.254C84.721 354.05 84.331 353.948 83.887 353.948C83.443 353.948 83.053 354.05 82.717 354.254C82.381 354.446 82.117 354.716 81.925 355.064C81.745 355.412 81.655 355.82 81.655 356.288C81.655 356.744 81.745 357.152 81.925 357.512C82.117 357.86 82.381 358.13 82.717 358.322C83.053 358.514 83.443 358.61 83.887 358.61Z" fill="black"/>
<path d="M76.4668 209.161V207.235H79.3828V198.415H80.4988L76.7548 200.647V198.451L80.0488 196.471H81.7048V207.235H84.4408V209.161H76.4668Z" fill="black"/>
<path d="M79.8688 248.311C78.3808 248.311 77.2168 247.993 76.3768 247.357C75.5488 246.721 75.1348 245.839 75.1348 244.711C75.1348 243.823 75.4048 243.085 75.9448 242.497C76.4848 241.909 77.1868 241.561 78.0508 241.453V241.831C77.2708 241.663 76.6408 241.297 76.1608 240.733C75.6928 240.169 75.4588 239.485 75.4588 238.681C75.4588 237.613 75.8488 236.779 76.6288 236.179C77.4208 235.567 78.5008 235.261 79.8688 235.261C81.2488 235.261 82.3288 235.567 83.1088 236.179C83.9008 236.779 84.2968 237.613 84.2968 238.681C84.2968 239.485 84.0688 240.175 83.6128 240.751C83.1688 241.327 82.5628 241.681 81.7948 241.813V241.453C82.6468 241.573 83.3308 241.927 83.8468 242.515C84.3628 243.091 84.6208 243.823 84.6208 244.711C84.6208 245.839 84.2008 246.721 83.3608 247.357C82.5328 247.993 81.3688 248.311 79.8688 248.311ZM79.8688 246.511C80.7448 246.511 81.3988 246.349 81.8308 246.025C82.2628 245.689 82.4788 245.197 82.4788 244.549C82.4788 243.901 82.2628 243.415 81.8308 243.091C81.3988 242.767 80.7448 242.605 79.8688 242.605C79.0048 242.605 78.3508 242.767 77.9068 243.091C77.4748 243.415 77.2588 243.901 77.2588 244.549C77.2588 245.197 77.4748 245.689 77.9068 246.025C78.3508 246.349 79.0048 246.511 79.8688 246.511ZM79.8688 240.805C80.6128 240.805 81.1768 240.637 81.5608 240.301C81.9568 239.965 82.1548 239.503 82.1548 238.915C82.1548 238.339 81.9568 237.889 81.5608 237.565C81.1768 237.229 80.6128 237.061 79.8688 237.061C79.1368 237.061 78.5728 237.229 78.1768 237.565C77.7928 237.889 77.6008 238.339 77.6008 238.915C77.6008 239.503 77.7928 239.965 78.1768 240.301C78.5728 240.637 79.1368 240.805 79.8688 240.805Z" fill="black"/>
<path d="M69.998 287.101V285.175H72.914V276.355H74.03L70.286 278.587V276.391L73.58 274.411H75.236V285.175H77.972V287.101H69.998ZM84.283 287.281C83.731 287.281 83.179 287.221 82.627 287.101C82.087 286.981 81.577 286.813 81.097 286.597C80.629 286.381 80.227 286.123 79.891 285.823L80.647 284.077C81.211 284.497 81.787 284.815 82.375 285.031C82.975 285.235 83.599 285.337 84.247 285.337C85.027 285.337 85.633 285.145 86.065 284.761C86.509 284.365 86.731 283.837 86.731 283.177C86.731 282.505 86.521 281.965 86.101 281.557C85.681 281.137 85.105 280.927 84.373 280.927C83.857 280.927 83.383 281.029 82.951 281.233C82.531 281.425 82.153 281.725 81.817 282.133H80.287V274.411H88.171V276.319H82.483V280.351H81.925C82.237 279.931 82.651 279.607 83.167 279.379C83.695 279.151 84.283 279.037 84.931 279.037C85.747 279.037 86.455 279.205 87.055 279.541C87.655 279.877 88.123 280.351 88.459 280.963C88.795 281.563 88.963 282.271 88.963 283.087C88.963 283.915 88.771 284.647 88.387 285.283C88.015 285.907 87.475 286.399 86.767 286.759C86.071 287.107 85.243 287.281 84.283 287.281Z" fill="black"/>
<path d="M69.404 326.07V324.36L73.616 319.968C74.144 319.416 74.534 318.906 74.786 318.438C75.038 317.97 75.164 317.49 75.164 316.998C75.164 316.386 74.972 315.924 74.588 315.612C74.204 315.3 73.646 315.144 72.914 315.144C72.326 315.144 71.762 315.252 71.222 315.468C70.682 315.672 70.154 315.996 69.638 316.44L68.882 314.712C69.398 314.256 70.034 313.89 70.79 313.614C71.558 313.338 72.362 313.2 73.202 313.2C74.57 313.2 75.62 313.506 76.352 314.118C77.084 314.73 77.45 315.606 77.45 316.746C77.45 317.538 77.264 318.294 76.892 319.014C76.52 319.722 75.944 320.466 75.164 321.246L71.654 324.756V324.144H77.954V326.07H69.404ZM80.197 326.07V324.36L84.409 319.968C84.937 319.416 85.327 318.906 85.579 318.438C85.831 317.97 85.957 317.49 85.957 316.998C85.957 316.386 85.765 315.924 85.381 315.612C84.997 315.3 84.439 315.144 83.707 315.144C83.119 315.144 82.555 315.252 82.015 315.468C81.475 315.672 80.947 315.996 80.431 316.44L79.675 314.712C80.191 314.256 80.827 313.89 81.583 313.614C82.351 313.338 83.155 313.2 83.995 313.2C85.363 313.2 86.413 313.506 87.145 314.118C87.877 314.73 88.243 315.606 88.243 316.746C88.243 317.538 88.057 318.294 87.685 319.014C87.313 319.722 86.737 320.466 85.957 321.246L82.447 324.756V324.144H88.747V326.07H80.197Z" fill="black"/>
<path d="M75.6797 174.991C74.6597 174.991 73.7177 174.865 72.8537 174.613C72.0017 174.349 71.2697 173.989 70.6577 173.533L71.3777 171.715C71.7857 172.003 72.2117 172.249 72.6557 172.453C73.0997 172.645 73.5737 172.795 74.0777 172.903C74.5817 172.999 75.1157 173.047 75.6797 173.047C76.6277 173.047 77.3117 172.891 77.7317 172.579C78.1517 172.267 78.3617 171.859 78.3617 171.355C78.3617 170.911 78.2177 170.575 77.9297 170.347C77.6417 170.107 77.1257 169.909 76.3817 169.753L74.3477 169.339C73.1837 169.099 72.3137 168.697 71.7377 168.133C71.1617 167.569 70.8737 166.813 70.8737 165.865C70.8737 165.073 71.0837 164.383 71.5037 163.795C71.9237 163.207 72.5117 162.751 73.2677 162.427C74.0237 162.103 74.9057 161.941 75.9137 161.941C76.8137 161.941 77.6477 162.073 78.4157 162.337C79.1837 162.589 79.8257 162.955 80.3417 163.435L79.6217 165.163C79.1057 164.731 78.5417 164.413 77.9297 164.209C77.3177 163.993 76.6337 163.885 75.8777 163.885C75.0257 163.885 74.3597 164.053 73.8797 164.389C73.4117 164.713 73.1777 165.163 73.1777 165.739C73.1777 166.183 73.3217 166.537 73.6097 166.801C73.9097 167.065 74.4137 167.269 75.1217 167.413L77.1377 167.809C78.3377 168.049 79.2257 168.445 79.8017 168.997C80.3777 169.537 80.6657 170.269 80.6657 171.193C80.6657 171.949 80.4617 172.615 80.0537 173.191C79.6457 173.755 79.0697 174.199 78.3257 174.523C77.5817 174.835 76.6997 174.991 75.6797 174.991ZM85.9492 174.991C84.8332 174.991 83.9992 174.685 83.4472 174.073C82.8952 173.461 82.6192 172.525 82.6192 171.265V165.721H84.8692V171.247C84.8692 171.919 85.0072 172.417 85.2832 172.741C85.5592 173.053 85.9792 173.209 86.5432 173.209C87.1792 173.209 87.6952 172.993 88.0912 172.561C88.4992 172.129 88.7032 171.559 88.7032 170.851V165.721H90.9532V174.811H88.7572V172.957H89.0092C88.7452 173.605 88.3432 174.109 87.8032 174.469C87.2752 174.817 86.6572 174.991 85.9492 174.991Z" fill="#0247FF"/>
<path d="M521.241 209.341C519.645 209.341 518.409 208.789 517.533 207.685C516.669 206.581 516.237 205.033 516.237 203.041C516.237 201.601 516.459 200.383 516.903 199.387C517.347 198.379 517.977 197.611 518.793 197.083C519.621 196.555 520.611 196.291 521.763 196.291C522.447 196.291 523.125 196.417 523.797 196.669C524.469 196.909 525.045 197.257 525.525 197.713L524.751 199.441C524.307 199.033 523.827 198.733 523.311 198.541C522.795 198.337 522.273 198.235 521.745 198.235C520.665 198.235 519.843 198.601 519.279 199.333C518.715 200.065 518.433 201.157 518.433 202.609V203.959H518.217C518.313 203.347 518.517 202.825 518.829 202.393C519.141 201.949 519.543 201.613 520.035 201.385C520.527 201.145 521.073 201.025 521.673 201.025C522.417 201.025 523.077 201.199 523.653 201.547C524.229 201.895 524.679 202.375 525.003 202.987C525.339 203.599 525.507 204.301 525.507 205.093C525.507 205.909 525.321 206.641 524.949 207.289C524.589 207.925 524.091 208.429 523.455 208.801C522.819 209.161 522.081 209.341 521.241 209.341ZM521.115 207.505C521.559 207.505 521.949 207.409 522.285 207.217C522.621 207.025 522.879 206.755 523.059 206.407C523.251 206.047 523.347 205.639 523.347 205.183C523.347 204.715 523.251 204.307 523.059 203.959C522.879 203.611 522.621 203.341 522.285 203.149C521.949 202.945 521.559 202.843 521.115 202.843C520.671 202.843 520.281 202.945 519.945 203.149C519.609 203.341 519.345 203.611 519.153 203.959C518.961 204.307 518.865 204.715 518.865 205.183C518.865 205.639 518.961 206.047 519.153 206.407C519.345 206.755 519.609 207.025 519.945 207.217C520.281 207.409 520.671 207.505 521.115 207.505Z" fill="black"/>
<path d="M509.404 287.101V285.391L513.616 280.999C514.144 280.447 514.534 279.937 514.786 279.469C515.038 279.001 515.164 278.521 515.164 278.029C515.164 277.417 514.972 276.955 514.588 276.643C514.204 276.331 513.646 276.175 512.914 276.175C512.326 276.175 511.762 276.283 511.222 276.499C510.682 276.703 510.154 277.027 509.638 277.471L508.882 275.743C509.398 275.287 510.034 274.921 510.79 274.645C511.558 274.369 512.362 274.231 513.202 274.231C514.57 274.231 515.62 274.537 516.352 275.149C517.084 275.761 517.45 276.637 517.45 277.777C517.45 278.569 517.264 279.325 516.892 280.045C516.52 280.753 515.944 281.497 515.164 282.277L511.654 285.787V285.175H517.954V287.101H509.404ZM524.193 287.281C522.705 287.281 521.559 286.717 520.755 285.589C519.951 284.449 519.549 282.829 519.549 280.729C519.549 278.605 519.951 276.991 520.755 275.887C521.559 274.783 522.705 274.231 524.193 274.231C525.693 274.231 526.839 274.783 527.631 275.887C528.435 276.991 528.837 278.599 528.837 280.711C528.837 282.823 528.435 284.449 527.631 285.589C526.839 286.717 525.693 287.281 524.193 287.281ZM524.193 285.373C525.009 285.373 525.615 285.001 526.011 284.257C526.407 283.501 526.605 282.319 526.605 280.711C526.605 279.103 526.407 277.939 526.011 277.219C525.615 276.487 525.009 276.121 524.193 276.121C523.389 276.121 522.783 276.487 522.375 277.219C521.979 277.939 521.781 279.103 521.781 280.711C521.781 282.319 521.979 283.501 522.375 284.257C522.783 285.001 523.389 285.373 524.193 285.373Z" fill="black"/>
<path d="M509.404 326.07V324.36L513.616 319.968C514.144 319.416 514.534 318.906 514.786 318.438C515.038 317.97 515.164 317.49 515.164 316.998C515.164 316.386 514.972 315.924 514.588 315.612C514.204 315.3 513.646 315.144 512.914 315.144C512.326 315.144 511.762 315.252 511.222 315.468C510.682 315.672 510.154 315.996 509.638 316.44L508.882 314.712C509.398 314.256 510.034 313.89 510.79 313.614C511.558 313.338 512.362 313.2 513.202 313.2C514.57 313.2 515.62 313.506 516.352 314.118C517.084 314.73 517.45 315.606 517.45 316.746C517.45 317.538 517.264 318.294 516.892 319.014C516.52 319.722 515.944 320.466 515.164 321.246L511.654 324.756V324.144H517.954V326.07H509.404ZM520.341 326.07L526.497 314.514V315.324H519.765V313.38H528.639V315.108L522.879 326.07H520.341Z" fill="black"/>
<path d="M514.947 174.811V162.121H523.317V163.939H517.269V167.539H522.903V169.357H517.269V174.811H514.947ZM524.874 174.811V168.043C524.874 167.659 524.862 167.269 524.838 166.873C524.826 166.477 524.796 166.093 524.748 165.721H526.926L527.178 168.205H526.818C526.938 167.605 527.136 167.107 527.412 166.711C527.7 166.315 528.048 166.021 528.456 165.829C528.864 165.637 529.308 165.541 529.788 165.541C530.004 165.541 530.178 165.553 530.31 165.577C530.442 165.589 530.574 165.619 530.706 165.667L530.688 167.647C530.46 167.551 530.262 167.491 530.094 167.467C529.938 167.443 529.74 167.431 529.5 167.431C528.984 167.431 528.546 167.539 528.186 167.755C527.838 167.971 527.574 168.271 527.394 168.655C527.226 169.039 527.142 169.477 527.142 169.969V174.811H524.874Z" fill="#0247FF"/>
<circle cx="518" cy="243" r="25" fill="#3360E9" fill-opacity="0.5"/>
<circle cx="518" cy="242.999" r="18.3333" fill="#2C037E"/>
<path d="M509.998 248.131V246.205H512.914V237.385H514.03L510.286 239.617V237.421L513.58 235.441H515.236V246.205H517.972V248.131H509.998ZM523.995 248.311C523.119 248.311 522.279 248.185 521.475 247.933C520.671 247.669 520.011 247.309 519.495 246.853L520.251 245.107C520.815 245.539 521.397 245.857 521.997 246.061C522.609 246.265 523.251 246.367 523.923 246.367C524.739 246.367 525.357 246.205 525.777 245.881C526.197 245.557 526.407 245.083 526.407 244.459C526.407 243.859 526.197 243.409 525.777 243.109C525.369 242.797 524.769 242.641 523.977 242.641H521.925V240.787H523.779C524.463 240.787 525.009 240.619 525.417 240.283C525.825 239.947 526.029 239.485 526.029 238.897C526.029 238.345 525.837 237.925 525.453 237.637C525.081 237.349 524.541 237.205 523.833 237.205C522.561 237.205 521.439 237.637 520.467 238.501L519.711 236.773C520.227 236.293 520.863 235.921 521.619 235.657C522.387 235.393 523.191 235.261 524.031 235.261C525.351 235.261 526.383 235.561 527.127 236.161C527.883 236.749 528.261 237.571 528.261 238.627C528.261 239.383 528.045 240.037 527.613 240.589C527.193 241.129 526.611 241.489 525.867 241.669V241.453C526.743 241.597 527.421 241.957 527.901 242.533C528.393 243.097 528.639 243.805 528.639 244.657C528.639 245.785 528.225 246.679 527.397 247.339C526.569 247.987 525.435 248.311 523.995 248.311Z" fill="white"/>
<defs>
<filter id="filter0_d_1413_14128" x="653" y="95.4492" width="28" height="28" filterUnits="userSpaceOnUse" color-interpolation-filters="sRGB">
<feFlood flood-opacity="0" result="BackgroundImageFix"/>
<feColorMatrix in="SourceAlpha" type="matrix" values="0 0 0 0 0 0 0 0 0 0 0 0 0 0 0 0 0 0 127 0" result="hardAlpha"/>
<feOffset dy="2"/>
<feGaussianBlur stdDeviation="2"/>
<feComposite in2="hardAlpha" operator="out"/>
<feColorMatrix type="matrix" values="0 0 0 0 0 0 0 0 0 0 0 0 0 0 0 0 0 0 0.25 0"/>
<feBlend mode="normal" in2="BackgroundImageFix" result="effect1_dropShadow_1413_14128"/>
<feBlend mode="normal" in="SourceGraphic" in2="effect1_dropShadow_1413_14128" result="shape"/>
</filter>
<filter id="filter1_d_1413_14128" x="19" y="93.9287" width="28" height="28" filterUnits="userSpaceOnUse" color-interpolation-filters="sRGB">
<feFlood flood-opacity="0" result="BackgroundImageFix"/>
<feColorMatrix in="SourceAlpha" type="matrix" values="0 0 0 0 0 0 0 0 0 0 0 0 0 0 0 0 0 0 127 0" result="hardAlpha"/>
<feOffset dy="2"/>
<feGaussianBlur stdDeviation="2"/>
<feComposite in2="hardAlpha" operator="out"/>
<feColorMatrix type="matrix" values="0 0 0 0 0 0 0 0 0 0 0 0 0 0 0 0 0 0 0.25 0"/>
<feBlend mode="normal" in2="BackgroundImageFix" result="effect1_dropShadow_1413_14128"/>
<feBlend mode="normal" in="SourceGraphic" in2="effect1_dropShadow_1413_14128" result="shape"/>
</filter>
</defs>
</svg>
