<svg width="270" height="270" viewBox="0 0 270 270" fill="none" xmlns="http://www.w3.org/2000/svg">
<path d="M134.621 270C60.3924 270 0 209.443 0 135C0 60.5622 60.3924 0 134.621 0C208.851 0 269.243 60.5622 269.243 135C269.243 209.443 208.851 270 134.621 270Z" fill="#121695"/>
<path d="M135.544 44.3833C85.2093 44.3833 44.2593 85.0337 44.2593 135C44.2593 184.966 85.2093 225.616 135.544 225.616C185.878 225.616 226.828 184.966 226.828 135C226.828 85.0337 185.878 44.3833 135.544 44.3833Z" fill="white"/>
<mask id="mask0_1426_17" style="mask-type:luminance" maskUnits="userSpaceOnUse" x="135" y="0" width="135" height="216">
<path d="M243.595 215.349L208.222 189.054C219.827 173.349 225.967 154.677 225.967 135.052C225.967 84.9892 185.353 44.2601 135.43 44.2601V0.108627C209.631 0.108627 270 60.6428 270 135.052C270 164.219 260.867 191.983 243.595 215.349Z" fill="white"/>
</mask>
<g mask="url(#mask0_1426_17)">
<path d="M243.595 215.349L208.222 189.054C219.827 173.349 225.967 154.677 225.967 135.052C225.967 84.9892 185.353 44.2601 135.43 44.2601V0.108627C209.631 0.108627 270 60.6428 270 135.052C270 164.219 260.867 191.983 243.595 215.349Z" fill="url(#paint0_linear_1426_17)"/>
</g>
<path d="M233.772 135.037C233.772 190.19 189.596 234.9 135.109 234.9C80.6213 234.9 36.4502 190.19 36.4502 135.037C36.4502 79.8847 80.6213 35.1744 135.109 35.1744C189.596 35.1744 233.772 79.8847 233.772 135.037Z" fill="#03053A"/>
<path d="M233.699 135H231.349C231.345 161.781 220.625 186.008 203.284 203.558C185.943 221.107 162.004 231.956 135.541 231.956C109.079 231.956 85.1443 221.107 67.7986 203.558C50.4576 186.008 39.738 161.781 39.738 135C39.738 108.218 50.4576 83.9961 67.7986 66.4416C85.1443 48.8919 109.079 38.0433 135.541 38.0433C162.004 38.0433 185.943 48.8919 203.284 66.4416C220.625 83.9961 231.345 108.218 231.349 135H233.699H236.049C236.044 78.8262 191.047 33.2873 135.541 33.2873C80.036 33.2873 35.0386 78.8262 35.0386 135C35.0386 191.178 80.036 236.712 135.541 236.712C191.047 236.712 236.044 191.178 236.049 135H233.699Z" fill="white"/>
<path d="M116.1 161.023C113.14 161.023 110.28 160.603 107.52 159.763C104.8 158.923 102.6 157.763 100.92 156.283L103.86 149.323C105.66 150.643 107.56 151.643 109.56 152.323C111.56 152.963 113.62 153.283 115.74 153.283C118.22 153.283 120.08 152.823 121.32 151.903C122.56 150.983 123.18 149.623 123.18 147.823C123.18 146.143 122.58 144.883 121.38 144.043C120.22 143.163 118.48 142.723 116.16 142.723H109.08V135.343H115.32C117.32 135.343 118.92 134.883 120.12 133.963C121.32 133.003 121.92 131.703 121.92 130.063C121.92 128.463 121.36 127.243 120.24 126.403C119.12 125.563 117.5 125.143 115.38 125.143C111.34 125.143 107.74 126.483 104.58 129.163L101.58 122.323C103.38 120.763 105.56 119.563 108.12 118.723C110.72 117.843 113.44 117.403 116.28 117.403C120.84 117.403 124.4 118.423 126.96 120.463C129.56 122.463 130.86 125.263 130.86 128.863C130.86 131.343 130.16 133.483 128.76 135.283C127.36 137.043 125.44 138.223 123 138.823V138.043C125.88 138.523 128.12 139.703 129.72 141.583C131.32 143.463 132.12 145.823 132.12 148.663C132.12 152.503 130.68 155.523 127.8 157.723C124.96 159.923 121.06 161.023 116.1 161.023ZM152.977 161.023C147.897 161.023 143.977 159.123 141.217 155.323C138.497 151.483 137.137 146.083 137.137 139.123C137.137 132.043 138.497 126.663 141.217 122.983C143.977 119.263 147.897 117.403 152.977 117.403C158.097 117.403 162.017 119.263 164.737 122.983C167.457 126.663 168.817 132.023 168.817 139.063C168.817 146.063 167.457 151.483 164.737 155.323C162.017 159.123 158.097 161.023 152.977 161.023ZM152.977 153.463C155.297 153.463 157.017 152.323 158.137 150.043C159.297 147.723 159.877 144.063 159.877 139.063C159.877 134.063 159.297 130.463 158.137 128.263C157.017 126.063 155.297 124.963 152.977 124.963C150.657 124.963 148.917 126.063 147.757 128.263C146.637 130.463 146.077 134.043 146.077 139.003C146.077 144.043 146.657 147.723 147.817 150.043C148.977 152.323 150.697 153.463 152.977 153.463Z" fill="white"/>
<defs>
<linearGradient id="paint0_linear_1426_17" x1="135.43" y1="107.729" x2="269.997" y2="107.729" gradientUnits="userSpaceOnUse">
<stop stop-color="#3C52AC"/>
<stop offset="1e-07" stop-color="#3C52AC"/>
<stop offset="1" stop-color="#58C9F5"/>
</linearGradient>
</defs>
</svg>
