<svg width="222" height="64" viewBox="0 0 222 64" fill="none" xmlns="http://www.w3.org/2000/svg">
<rect width="221.301" height="64" rx="10" fill="#3360E9"/>
<g clip-path="url(#clip0_1739_59608)">
<path d="M35.3435 19.208C35.3435 19.208 29.8166 17.02 26.3874 21.5621C24.7444 23.7353 24.1649 26.569 24.8214 29.2146C25.2175 30.8085 26.0904 32.5353 27.9461 33.6533C29.0867 34.3396 30.165 35.1255 31.1075 36.0664C33.8251 38.7857 38.1271 44.1173 37.0599 49.7995C37.0599 49.7995 36.1503 45.3792 24.6637 37.6899C23.2041 36.7121 21.8984 35.5055 20.8679 34.0776C18.8801 31.3251 17.017 26.8384 20.2884 21.7281C20.2884 21.7281 26.3288 12.6699 35.3435 19.208Z" fill="white"/>
<path d="M38.1089 20.1821C38.1089 20.1821 44.8277 13.2381 50.8388 16.8651C53.0429 18.1971 54.3926 20.5769 54.6163 23.1561C54.8694 26.0562 54.4146 30.41 50.549 33.9632C50.549 33.9632 39.9536 43.955 40.5148 51.7957C40.5148 51.7957 42.7263 46.6743 47.0062 42.7927C47.2483 42.5751 47.4977 42.3684 47.7507 42.1618C49.6432 40.6269 59.263 32.5501 61.2948 25.6614C61.3535 25.4695 61.4048 25.274 61.4672 25.0821C61.9366 23.573 64.2875 14.393 53.3474 11.2862C50.3033 10.4228 47.0246 10.6774 44.2519 12.2087C41.9084 13.5001 39.4989 15.8652 38.1089 20.1821Z" fill="white"/>
<path d="M77.6001 46.8441C74.2663 56.7178 58.1403 51.1574 58.1403 51.1574C49.9031 47.8957 40.562 53.2089 40.562 53.2089C40.562 53.2089 42.6341 45.1764 58.0597 46.7814C59.9007 46.9733 61.7125 47.3459 63.4949 47.833C66.2455 48.5857 72.2932 49.6963 77.6001 46.8441Z" fill="white"/>
<path d="M39.5756 37.2691C34.9435 37.2691 31.1733 33.4761 31.1733 28.8159C31.1733 24.1558 34.9435 20.3628 39.5756 20.3628C44.2076 20.3628 47.9815 24.1521 47.9815 28.8123C47.9815 33.4724 44.2113 37.2691 39.5756 37.2691ZM39.5756 21.8534C35.7614 21.8534 32.6587 24.9749 32.6587 28.8123C32.6587 32.6496 35.7614 35.7711 39.5756 35.7711C43.3898 35.7711 46.4925 32.6496 46.4925 28.8123C46.4925 24.9749 43.3898 21.8534 39.5756 21.8534Z" fill="white"/>
<path d="M39.5756 33.6126C36.946 33.6126 34.8042 31.4615 34.8042 28.8123C34.8042 26.1668 36.9424 24.012 39.5756 24.012C42.2052 24.012 44.347 26.1631 44.347 28.8123C44.347 31.4615 42.2089 33.6126 39.5756 33.6126ZM39.5756 25.51C37.7639 25.51 36.2895 26.9933 36.2895 28.816C36.2895 30.6387 37.7639 32.122 39.5756 32.122C41.3874 32.122 42.8617 30.6387 42.8617 28.816C42.8617 26.9896 41.3874 25.51 39.5756 25.51Z" fill="white"/>
<path d="M39.8619 29.9708L38.1638 28.4322C37.8594 28.1555 37.8338 27.6832 38.1088 27.3769C38.3839 27.0707 38.8533 27.0449 39.1577 27.3216L40.181 28.2477C40.3423 28.3953 40.5844 28.4064 40.7604 28.2809L49.9328 21.6911C50.2666 21.4512 50.7287 21.5287 50.9671 21.8645C51.2055 22.2003 51.1284 22.6652 50.7947 22.905L40.8888 30.0262C40.577 30.2549 40.1479 30.2291 39.8619 29.9708Z" fill="white"/>
<path d="M39.5756 45.2022C39.1648 45.2022 38.8311 44.8664 38.8311 44.4532V32.8674H40.3164V44.4568C40.3201 44.8664 39.9863 45.2022 39.5756 45.2022Z" fill="white"/>
<path d="M67.5695 29.7053C67.4998 29.554 67.4668 29.399 67.4668 29.244C67.4668 29.0891 67.4998 28.9415 67.5658 28.805C67.6318 28.6685 67.7235 28.543 67.8409 28.4286C67.9582 28.3179 68.0976 28.2331 68.259 28.174C68.4203 28.115 68.5707 28.0855 68.7174 28.0855C68.9631 28.0855 69.1869 28.1482 69.3886 28.27C69.5903 28.3917 69.7443 28.5688 69.8543 28.8013L73.9546 37.8743L78.0439 28.8013C78.1429 28.5762 78.2969 28.4028 78.5023 28.2737C78.7077 28.1482 78.9351 28.0818 79.1771 28.0818C79.3238 28.0818 79.4742 28.1113 79.6356 28.1703C79.7969 28.2294 79.9326 28.3106 80.05 28.4212C80.1637 28.5282 80.2517 28.6537 80.314 28.7902C80.3764 28.9267 80.4057 29.0743 80.4131 29.2293C80.4167 29.3843 80.3837 29.5392 80.314 29.6905L75.0879 41.2504C74.9815 41.4829 74.8238 41.66 74.6111 41.7891C74.402 41.9145 74.1747 41.981 73.9289 41.981C73.8592 41.981 73.8079 41.9773 73.7676 41.9699C73.7602 41.9699 73.7529 41.9699 73.7456 41.9662C73.7382 41.9625 73.7272 41.9625 73.7125 41.9625L73.5989 41.9293C73.4228 41.885 73.2651 41.8075 73.1294 41.6969C72.9901 41.5862 72.88 41.4386 72.7957 41.2578L67.5695 29.7053Z" fill="white"/>
<path d="M89.1674 39.3207H82.6135L81.7554 41.2763C81.649 41.5087 81.495 41.6821 81.2896 41.8039C81.0879 41.922 80.8641 41.9847 80.6184 41.9847C80.4497 41.9847 80.27 41.9478 80.0793 41.8777C79.9106 41.8113 79.7749 41.7227 79.6685 41.612C79.5622 41.4976 79.4815 41.3759 79.4338 41.2357C79.3825 41.0991 79.3641 40.9479 79.3751 40.7892C79.3861 40.6306 79.4265 40.4756 79.4962 40.3206L84.7334 28.7939C84.8397 28.5615 84.9938 28.3844 85.1918 28.2626C85.3898 28.1409 85.6209 28.0781 85.8813 28.0781C86.127 28.0781 86.3471 28.1409 86.5451 28.2626C86.7432 28.3844 86.8972 28.5578 87.0035 28.7829L92.2737 40.3206C92.4131 40.6232 92.4314 40.9257 92.3361 41.2209C92.2407 41.5198 92.0317 41.7375 91.7126 41.874C91.5512 41.9478 91.3752 41.981 91.1845 41.981C90.9388 41.981 90.7151 41.9183 90.5097 41.7965C90.3043 41.6747 90.1466 41.4976 90.0402 41.2763L89.1674 39.3207ZM83.6111 36.963H88.1368L85.8923 31.8453L83.6111 36.963Z" fill="white"/>
<path d="M97.2798 40.8188C97.2798 40.9774 97.2468 41.1287 97.1808 41.2763C97.1147 41.4202 97.0267 41.5456 96.913 41.6453C96.7993 41.7486 96.6673 41.8297 96.5169 41.8888C96.3666 41.9515 96.2052 41.981 96.0292 41.981C95.8605 41.981 95.6991 41.9515 95.5487 41.8888C95.3984 41.826 95.2627 41.7449 95.1526 41.6453C95.0426 41.5456 94.9546 41.4202 94.8886 41.2763C94.8226 41.1324 94.7896 40.9811 94.7896 40.8188V29.2367C94.7896 29.0707 94.8226 28.9157 94.8886 28.7755C94.9546 28.6353 95.0426 28.5098 95.1526 28.4065C95.2627 28.3032 95.3947 28.2221 95.5487 28.163C95.7028 28.104 95.8605 28.0745 96.0292 28.0745C96.2052 28.0745 96.3666 28.104 96.5169 28.163C96.6673 28.2221 96.7993 28.3032 96.913 28.4065C97.0267 28.5135 97.1184 28.6353 97.1808 28.7755C97.2468 28.9157 97.2798 29.0707 97.2798 29.2367V40.8188Z" fill="white"/>
<path d="M101.784 28.543C101.784 28.4065 101.831 28.2921 101.927 28.2073C102.022 28.1187 102.139 28.0781 102.275 28.0781H106.504C107.223 28.0781 107.897 28.1999 108.532 28.4434C109.166 28.6869 109.716 29.0227 110.186 29.447C110.655 29.875 111.029 30.3805 111.305 30.9635C111.58 31.5465 111.715 32.1774 111.715 32.86C111.715 33.3876 111.631 33.8821 111.462 34.3359C111.294 34.7934 111.059 35.203 110.758 35.5683C110.457 35.9335 110.098 36.2509 109.68 36.5202C109.262 36.7896 108.807 36.9999 108.312 37.1511L111.499 41.1619C111.613 41.2689 111.664 41.3943 111.649 41.5382C111.635 41.6784 111.569 41.7891 111.455 41.8703C111.363 41.9367 111.264 41.9699 111.158 41.9699C111.018 41.9699 110.901 41.922 110.802 41.8297L107.237 37.3762C107.109 37.391 106.981 37.402 106.852 37.4094C106.724 37.4168 106.599 37.4205 106.467 37.4205H102.767V41.5272C102.767 41.6563 102.719 41.767 102.624 41.8592C102.528 41.9515 102.411 41.9957 102.275 41.9957C102.139 41.9957 102.022 41.9515 101.927 41.8592C101.831 41.767 101.784 41.66 101.784 41.5272V28.543ZM102.767 29.019V36.4722H106.478C107.098 36.4722 107.666 36.38 108.183 36.1955C108.701 36.011 109.148 35.7564 109.526 35.428C109.9 35.1034 110.193 34.7196 110.402 34.2769C110.611 33.8341 110.718 33.3618 110.718 32.8526C110.718 32.3398 110.615 31.8527 110.41 31.3915C110.204 30.9303 109.915 30.5244 109.544 30.1702C109.174 29.816 108.73 29.5356 108.216 29.3289C107.699 29.1223 107.138 29.019 106.526 29.019H102.767Z" fill="white"/>
<path d="M116.311 41.5124C116.311 41.6415 116.263 41.7522 116.167 41.8445C116.072 41.9367 115.955 41.981 115.819 41.981C115.683 41.981 115.566 41.9367 115.471 41.8445C115.375 41.7522 115.328 41.6452 115.328 41.5124V28.543C115.328 28.4065 115.375 28.2921 115.471 28.2073C115.566 28.1187 115.683 28.0781 115.819 28.0781C115.955 28.0781 116.072 28.1224 116.167 28.2073C116.263 28.2958 116.311 28.4065 116.311 28.543V41.5124Z" fill="white"/>
<path d="M129.635 28.0745C129.763 28.0745 129.88 28.1187 129.979 28.2036C130.078 28.2922 130.13 28.4028 130.13 28.5394C130.13 28.6833 130.082 28.8013 129.987 28.8862C129.891 28.9748 129.774 29.0153 129.638 29.0153H121.72V35.1661H127.896C128.05 35.1661 128.171 35.2141 128.263 35.3137C128.355 35.4096 128.402 35.524 128.402 35.6568C128.402 35.7786 128.355 35.8856 128.263 35.9778C128.171 36.0701 128.05 36.1144 127.896 36.1144H121.72V41.5124C121.72 41.6489 121.673 41.7633 121.577 41.8482C121.482 41.9367 121.364 41.9773 121.229 41.9773C121.082 41.9773 120.965 41.933 120.873 41.8408C120.781 41.7486 120.737 41.6416 120.737 41.5087V28.532C120.737 28.4287 120.774 28.3291 120.851 28.2257C120.928 28.1261 121.053 28.0745 121.229 28.0745H129.635Z" fill="white"/>
<path d="M138.55 34.6165L143.912 28.2406C144.011 28.1373 144.132 28.0894 144.279 28.0894C144.4 28.0894 144.495 28.1189 144.565 28.1779C144.671 28.2517 144.741 28.3513 144.771 28.4768C144.8 28.6022 144.76 28.7387 144.646 28.8826L139.053 35.443V41.5162C139.053 41.6454 139.002 41.7561 138.903 41.8483C138.803 41.9406 138.686 41.9848 138.547 41.9848C138.418 41.9848 138.301 41.9406 138.202 41.8483C138.103 41.7561 138.052 41.6491 138.052 41.5162V35.4393L132.404 28.879C132.312 28.7756 132.268 28.6613 132.279 28.5321C132.286 28.403 132.349 28.2886 132.462 28.1964C132.547 28.1226 132.649 28.0894 132.77 28.0894C132.84 28.0894 132.91 28.1041 132.976 28.1336C133.046 28.1632 133.101 28.2074 133.148 28.2628L138.55 34.6165Z" fill="white"/>
<path d="M147.693 39.959H148.746V41.9809H147.693V39.959Z" fill="white"/>
<path d="M152.861 28.543C152.861 28.4065 152.909 28.2921 153.004 28.2073C153.1 28.1187 153.217 28.0781 153.353 28.0781H157.636C158.315 28.0781 158.968 28.163 159.595 28.329C160.222 28.4951 160.809 28.7312 161.355 29.0338C161.902 29.3363 162.4 29.7053 162.852 30.1296C163.303 30.5539 163.688 31.0299 164.011 31.5465C164.333 32.063 164.579 32.6202 164.755 33.2142C164.931 33.8083 165.019 34.4244 165.019 35.0628C165.019 36.0184 164.825 36.9187 164.436 37.7563C164.047 38.5938 163.519 39.3281 162.848 39.9553C162.177 40.5826 161.399 41.077 160.504 41.4386C159.61 41.8002 158.656 41.981 157.64 41.981H153.356C153.217 41.981 153.103 41.9367 153.008 41.8445C152.913 41.7522 152.865 41.6452 152.865 41.5124V28.543H152.861ZM153.844 29.019V41.0364H157.625C158.564 41.0364 159.43 40.8667 160.215 40.5309C161.003 40.1952 161.678 39.745 162.243 39.1879C162.808 38.6307 163.248 37.9924 163.559 37.2766C163.871 36.5608 164.029 35.8228 164.029 35.0701C164.029 34.5647 163.959 34.0628 163.816 33.5721C163.677 33.0814 163.471 32.6091 163.204 32.159C162.936 31.7088 162.613 31.2956 162.235 30.9081C161.858 30.5244 161.432 30.1923 160.959 29.9156C160.486 29.6352 159.969 29.4175 159.411 29.2588C158.854 29.1002 158.264 29.019 157.636 29.019H153.844Z" fill="white"/>
<path d="M176.142 38.4943H168.132L166.687 41.7006C166.651 41.7966 166.588 41.8667 166.504 41.9109C166.419 41.9589 166.328 41.981 166.229 41.981C166.159 41.981 166.089 41.97 166.023 41.9478C165.895 41.8888 165.807 41.8002 165.759 41.6822C165.712 41.5641 165.723 41.4423 165.781 41.3169L171.671 28.3549C171.77 28.1667 171.928 28.0708 172.141 28.0708C172.353 28.0708 172.504 28.1667 172.588 28.3549L178.489 41.328C178.544 41.4497 178.552 41.5715 178.511 41.6859C178.475 41.8002 178.394 41.8888 178.269 41.9478C178.207 41.9774 178.137 41.9921 178.053 41.9921C177.84 41.9921 177.682 41.8999 177.583 41.708L176.142 38.4943ZM168.532 37.5497H175.728L172.141 29.5762L168.532 37.5497Z" fill="white"/>
<path d="M184.277 29.019V41.5014C184.277 41.6305 184.229 41.7449 184.134 41.8371C184.038 41.9294 183.917 41.9773 183.774 41.9773C183.631 41.9773 183.51 41.9294 183.418 41.8371C183.327 41.7449 183.283 41.6305 183.283 41.5014V29.019H178.607C178.471 29.019 178.35 28.9711 178.251 28.8788C178.152 28.7866 178.101 28.6722 178.101 28.5431C178.101 28.4139 178.148 28.3032 178.251 28.211C178.35 28.1187 178.467 28.0745 178.607 28.0745H188.953C189.107 28.0745 189.228 28.1224 189.319 28.2147C189.411 28.3106 189.455 28.4213 189.455 28.5504C189.455 28.687 189.411 28.8013 189.319 28.8862C189.228 28.9748 189.107 29.0153 188.953 29.0153H184.277V29.019Z" fill="white"/>
<path d="M192.514 41.981C192.367 41.9663 192.257 41.9109 192.177 41.8187C192.096 41.7264 192.056 41.612 192.056 41.4829V28.5431C192.056 28.3992 192.107 28.2848 192.21 28.1999C192.312 28.115 192.433 28.0745 192.569 28.0745H201.529C201.668 28.0745 201.782 28.1187 201.877 28.2036C201.973 28.2885 202.02 28.4028 202.02 28.5394C202.02 28.6685 201.973 28.7829 201.877 28.8751C201.782 28.9674 201.665 29.0153 201.529 29.0153H193.042V34.4097H199.446C199.592 34.4023 199.71 34.4466 199.801 34.5462C199.893 34.6422 199.941 34.7565 199.941 34.8894C199.941 35.0185 199.893 35.1292 199.801 35.2141C199.71 35.2989 199.592 35.3432 199.446 35.3432H193.042V41.0364H201.532C201.672 41.0364 201.786 41.0807 201.881 41.173C201.976 41.2652 202.024 41.3722 202.024 41.505C202.024 41.6416 201.976 41.7596 201.881 41.8519C201.786 41.9478 201.668 41.9884 201.532 41.981H192.514Z" fill="white"/>
<path d="M82.933 49.2975L82.3242 45.3606H82.8927L83.1494 47.139L83.3071 48.3935H83.3218L83.4575 47.139L83.6702 45.3606H84.2277L83.6702 49.2975H82.933Z" fill="white"/>
<path d="M84.895 49.2976V48.7478H85.3938V49.2976H84.895Z" fill="white"/>
<path d="M86.2666 49.2975L86.8241 45.3606H87.6126L88.2067 49.2975H87.6493L87.5576 48.5965H86.9268L86.8424 49.2975H86.2666ZM86.9818 48.1131H87.4916L87.2312 46.1354H87.2238L86.9818 48.1131Z" fill="white"/>
<path d="M89.0542 49.2976V48.7478H89.553V49.2976H89.0542Z" fill="white"/>
<path d="M90.668 49.2975V45.3606H91.2658V49.2975H90.668Z" fill="white"/>
<path d="M92.355 49.2976V48.7478H92.8538V49.2976H92.355Z" fill="white"/>
<path d="M95.4321 49.2976V45.8772H94.9736V45.3569H96.4663V45.8772H96.0262V49.2976H95.4321Z" fill="white"/>
<path d="M97.2544 49.2975V45.3606H98.5674V45.8772H97.8522V47.021H98.5344V47.5265H97.8522V48.781H98.5967V49.2975H97.2544Z" fill="white"/>
<path d="M100.291 49.3419C100.101 49.3419 99.9429 49.2976 99.8182 49.2091C99.6935 49.1205 99.5981 48.9914 99.5358 48.8217C99.4734 48.6519 99.4404 48.449 99.4404 48.2055V46.4898C99.4404 46.309 99.4551 46.1466 99.4844 46.0027C99.5138 45.8588 99.5615 45.7334 99.6275 45.6301C99.6935 45.5267 99.7815 45.4493 99.8952 45.3939C100.005 45.3386 100.145 45.3127 100.306 45.3127C100.453 45.3127 100.581 45.3386 100.684 45.3865C100.79 45.4345 100.874 45.5046 100.94 45.5969C101.006 45.6891 101.054 45.7961 101.083 45.9252C101.113 46.0544 101.127 46.1983 101.127 46.3606V46.903H100.552V46.4012C100.552 46.2057 100.537 46.0654 100.504 45.9732C100.471 45.881 100.405 45.8367 100.31 45.8367C100.203 45.8367 100.13 45.8847 100.093 45.9843C100.057 46.0839 100.038 46.2204 100.038 46.4012V48.2387C100.038 48.3752 100.046 48.4896 100.06 48.5745C100.075 48.663 100.101 48.7257 100.137 48.7663C100.174 48.8069 100.225 48.829 100.291 48.829C100.39 48.829 100.46 48.7811 100.497 48.6851C100.533 48.5892 100.552 48.4379 100.552 48.2313V47.6668H101.135V48.2239C101.135 48.4711 101.105 48.6815 101.047 48.8475C100.988 49.0135 100.896 49.139 100.772 49.2202C100.654 49.3013 100.493 49.3419 100.291 49.3419Z" fill="white"/>
<path d="M102.1 49.2975V45.3606H102.697V46.9546H103.233V45.3606H103.831V49.2975H103.233V47.4674H102.697V49.2975H102.1Z" fill="white"/>
<path d="M104.868 49.2975V45.3606H105.334L106.163 47.722L106.119 46.6483V45.3606H106.654V49.2975H106.232L105.382 46.8512L105.415 47.8844V49.2975H104.868Z" fill="white"/>
<path d="M108.521 49.3419C108.32 49.3419 108.151 49.2976 108.023 49.2128C107.894 49.1279 107.799 48.9988 107.74 48.829C107.678 48.6593 107.648 48.449 107.648 48.1981V46.3975C107.648 46.1688 107.678 45.9769 107.736 45.8145C107.795 45.6522 107.89 45.5304 108.019 45.4419C108.147 45.3533 108.316 45.3127 108.525 45.3127C108.683 45.3127 108.815 45.3386 108.921 45.3865C109.027 45.4345 109.115 45.5083 109.185 45.6005C109.251 45.6928 109.299 45.8072 109.332 45.94C109.361 46.0728 109.379 46.2241 109.379 46.3938V48.1944C109.379 48.4453 109.35 48.6556 109.291 48.8254C109.233 48.9951 109.141 49.1242 109.013 49.2091C108.892 49.3013 108.727 49.3419 108.521 49.3419ZM108.521 48.8254C108.595 48.8254 108.65 48.8032 108.69 48.7589C108.727 48.7147 108.752 48.6446 108.763 48.556C108.774 48.4638 108.782 48.3494 108.782 48.2092V46.3754C108.782 46.2057 108.767 46.0728 108.734 45.9769C108.701 45.881 108.635 45.8367 108.529 45.8367C108.419 45.8367 108.345 45.881 108.309 45.9732C108.268 46.0618 108.25 46.1983 108.25 46.3717V48.2092C108.25 48.3531 108.257 48.4711 108.268 48.5634C108.279 48.6556 108.309 48.722 108.345 48.7663C108.386 48.8032 108.444 48.8254 108.521 48.8254Z" fill="white"/>
<path d="M110.377 49.2975V45.3606H110.975V48.7883H111.73V49.2975H110.377Z" fill="white"/>
<path d="M113.282 49.3419C113.08 49.3419 112.911 49.2976 112.783 49.2128C112.654 49.1279 112.559 48.9988 112.5 48.829C112.438 48.6593 112.409 48.449 112.409 48.1981V46.3975C112.409 46.1688 112.438 45.9769 112.497 45.8145C112.555 45.6522 112.651 45.5304 112.779 45.4419C112.907 45.3533 113.076 45.3127 113.285 45.3127C113.443 45.3127 113.575 45.3386 113.681 45.3865C113.788 45.4345 113.876 45.5083 113.945 45.6005C114.011 45.6928 114.059 45.8072 114.092 45.94C114.121 46.0728 114.14 46.2241 114.14 46.3938V48.1944C114.14 48.4453 114.11 48.6556 114.052 48.8254C113.993 48.9951 113.901 49.1242 113.773 49.2091C113.652 49.3013 113.487 49.3419 113.282 49.3419ZM113.282 48.8254C113.355 48.8254 113.41 48.8032 113.45 48.7589C113.487 48.7147 113.513 48.6446 113.524 48.556C113.535 48.4638 113.542 48.3494 113.542 48.2092V46.3754C113.542 46.2057 113.527 46.0728 113.494 45.9769C113.461 45.881 113.395 45.8367 113.289 45.8367C113.179 45.8367 113.106 45.881 113.069 45.9732C113.028 46.0618 113.01 46.1983 113.01 46.3717V48.2092C113.01 48.3531 113.017 48.4711 113.028 48.5634C113.04 48.6556 113.069 48.722 113.106 48.7663C113.146 48.8032 113.205 48.8254 113.282 48.8254Z" fill="white"/>
<path d="M115.875 49.3382C115.64 49.3382 115.449 49.246 115.306 49.0578C115.163 48.8696 115.09 48.5671 115.09 48.1464V46.4344C115.09 46.2573 115.108 46.1023 115.141 45.9621C115.174 45.8219 115.226 45.7075 115.295 45.6079C115.365 45.512 115.457 45.4382 115.57 45.3902C115.684 45.3385 115.82 45.3164 115.977 45.3164C116.15 45.3164 116.289 45.3422 116.399 45.3939C116.509 45.4455 116.59 45.5193 116.649 45.619C116.707 45.7149 116.748 45.8367 116.77 45.9769C116.792 46.1171 116.803 46.2794 116.803 46.4565V46.737H116.245V46.3237C116.245 46.1466 116.227 46.0211 116.19 45.9473C116.153 45.8736 116.084 45.8367 115.985 45.8367C115.875 45.8367 115.798 45.8809 115.754 45.9658C115.71 46.0544 115.688 46.2093 115.688 46.4307V48.139C115.688 48.3863 115.706 48.5634 115.743 48.6704C115.779 48.7774 115.856 48.829 115.97 48.829C116.084 48.829 116.161 48.7737 116.208 48.663C116.256 48.5523 116.278 48.3715 116.278 48.1132V47.5819H115.977V47.1465H116.799V49.2976H116.531L116.439 48.9102C116.406 49.0467 116.337 49.15 116.23 49.2238C116.124 49.2976 116.007 49.3382 115.875 49.3382Z" fill="white"/>
<path d="M118.218 49.2975V47.7257L117.562 45.3606H118.13L118.519 46.8328H118.526L118.871 45.3606H119.439L118.816 47.7257V49.2975H118.218Z" fill="white"/>
<path d="M121.497 49.2975V45.3606H122.839V45.8808H122.091V46.9287H122.784V47.4527H122.091V49.2975H121.497Z" fill="white"/>
<path d="M124.534 49.3419C124.332 49.3419 124.163 49.2976 124.035 49.2128C123.906 49.1279 123.811 48.9988 123.752 48.829C123.69 48.6593 123.661 48.449 123.661 48.1981V46.3975C123.661 46.1688 123.69 45.9769 123.749 45.8145C123.807 45.6522 123.903 45.5304 124.031 45.4419C124.159 45.3533 124.328 45.3127 124.537 45.3127C124.695 45.3127 124.827 45.3386 124.933 45.3865C125.04 45.4345 125.128 45.5083 125.197 45.6005C125.263 45.6928 125.311 45.8072 125.344 45.94C125.373 46.0728 125.392 46.2241 125.392 46.3938V48.1944C125.392 48.4453 125.362 48.6556 125.304 48.8254C125.245 48.9951 125.153 49.1242 125.025 49.2091C124.9 49.3013 124.735 49.3419 124.534 49.3419ZM124.534 48.8254C124.607 48.8254 124.662 48.8032 124.702 48.7589C124.739 48.7147 124.765 48.6446 124.776 48.556C124.787 48.4638 124.794 48.3494 124.794 48.2092V46.3754C124.794 46.2057 124.779 46.0728 124.746 45.9769C124.713 45.881 124.647 45.8367 124.541 45.8367C124.431 45.8367 124.357 45.881 124.321 45.9732C124.28 46.0618 124.262 46.1983 124.262 46.3717V48.2092C124.262 48.3531 124.269 48.4711 124.28 48.5634C124.291 48.6556 124.321 48.722 124.357 48.7663C124.398 48.8032 124.456 48.8254 124.534 48.8254Z" fill="white"/>
<path d="M126.389 49.2975V45.3606H127.376C127.581 45.3606 127.731 45.4012 127.834 45.4824C127.937 45.5635 128.003 45.6816 128.032 45.8366C128.065 45.9915 128.08 46.1797 128.08 46.4048C128.08 46.6372 128.058 46.818 128.01 46.9509C127.963 47.0837 127.867 47.1722 127.724 47.2165C127.794 47.2276 127.849 47.2571 127.896 47.3014C127.944 47.3457 127.981 47.4084 128.007 47.4933C128.036 47.5781 128.054 47.6851 128.069 47.8179C128.084 47.9508 128.087 48.1131 128.087 48.3013C128.087 48.3161 128.087 48.3566 128.087 48.4268C128.087 48.4969 128.087 48.578 128.087 48.6703C128.087 48.7625 128.087 48.8548 128.091 48.947C128.091 49.0392 128.095 49.1167 128.098 49.1831C128.102 49.2496 128.106 49.2865 128.109 49.3012H127.511C127.508 49.2938 127.504 49.2569 127.5 49.1868C127.497 49.1167 127.497 49.0282 127.493 48.9212C127.489 48.8142 127.489 48.6998 127.489 48.5743C127.489 48.4489 127.489 48.3271 127.489 48.2091C127.489 48.091 127.489 47.984 127.489 47.8917C127.489 47.7737 127.482 47.6851 127.464 47.6261C127.445 47.567 127.416 47.5228 127.372 47.5006C127.328 47.4785 127.262 47.4637 127.178 47.4564L126.987 47.4453V49.3049H126.389V49.2975ZM126.987 46.973H127.225C127.299 46.973 127.354 46.9582 127.39 46.925C127.427 46.8918 127.453 46.8328 127.467 46.7442C127.482 46.6557 127.489 46.5302 127.489 46.3642V46.3384C127.489 46.1982 127.482 46.0912 127.471 46.0174C127.456 45.9436 127.431 45.8919 127.387 45.8624C127.343 45.8329 127.28 45.8181 127.189 45.8181H126.987V46.973Z" fill="white"/>
<path d="M130.086 49.2975L130.643 45.3606H131.432L132.026 49.2975H131.469L131.377 48.5965H130.746L130.662 49.2975H130.086ZM130.805 48.1131H131.315L131.054 46.1354H131.047L130.805 48.1131Z" fill="white"/>
<path d="M134.821 49.3419C134.656 49.3419 134.52 49.3161 134.414 49.2644C134.304 49.2128 134.22 49.139 134.157 49.0393C134.095 48.9397 134.051 48.818 134.022 48.6777C133.996 48.5338 133.981 48.3715 133.981 48.1907V47.8402H134.546V48.235C134.546 48.4453 134.564 48.6003 134.601 48.6925C134.638 48.7847 134.707 48.8327 134.814 48.8327C134.883 48.8327 134.938 48.818 134.975 48.7811C135.012 48.7478 135.037 48.6925 135.048 48.6187C135.059 48.5449 135.067 48.449 135.067 48.3272C135.067 48.1796 135.037 48.0431 134.975 47.9214C134.913 47.7996 134.821 47.6704 134.696 47.5413L134.407 47.2424C134.326 47.1576 134.253 47.069 134.19 46.9768C134.128 46.8845 134.073 46.7775 134.036 46.6632C134 46.5488 133.978 46.4196 133.978 46.2757C133.978 46.0691 134.003 45.892 134.055 45.7518C134.106 45.6079 134.19 45.5009 134.311 45.4271C134.432 45.3533 134.597 45.3164 134.806 45.3164C134.964 45.3164 135.092 45.3422 135.195 45.3902C135.298 45.4382 135.375 45.5083 135.434 45.6042C135.492 45.6964 135.533 45.8108 135.555 45.9437C135.577 46.0765 135.591 46.2315 135.591 46.4012V46.6447H135.041V46.3643C135.041 46.2462 135.034 46.1466 135.023 46.0654C135.012 45.9879 134.986 45.9252 134.953 45.8883C134.92 45.8477 134.869 45.8293 134.803 45.8293C134.74 45.8293 134.689 45.844 134.652 45.8699C134.616 45.8994 134.586 45.94 134.568 45.999C134.55 46.058 134.542 46.1318 134.542 46.2204C134.542 46.3016 134.553 46.3717 134.572 46.4344C134.594 46.4934 134.623 46.5525 134.667 46.6078C134.711 46.6632 134.762 46.7259 134.828 46.7923L135.151 47.1428C135.305 47.3089 135.426 47.4823 135.511 47.6631C135.595 47.8439 135.639 48.0431 135.639 48.2682C135.639 48.5043 135.613 48.7036 135.562 48.8622C135.511 49.0209 135.426 49.1426 135.309 49.2275C135.188 49.3013 135.026 49.3419 134.821 49.3419Z" fill="white"/>
<path d="M136.277 49.2975L136.834 45.3606H137.623L138.217 49.2975H137.66L137.568 48.5965H136.937L136.853 49.2975H136.277ZM136.992 48.1131H137.502L137.241 46.1354H137.234L136.992 48.1131Z" fill="white"/>
<path d="M139.024 49.2975V45.3606H140.366V45.8808H139.618V46.9287H140.311V47.4527H139.618V49.2975H139.024Z" fill="white"/>
<path d="M141.239 49.2975V45.3606H142.552V45.8772H141.837V47.021H142.519V47.5265H141.837V48.781H142.581V49.2975H141.239Z" fill="white"/>
<path d="M143.476 49.2975V45.3606H144.463C144.668 45.3606 144.818 45.4012 144.921 45.4824C145.024 45.5635 145.09 45.6816 145.119 45.8366C145.152 45.9915 145.167 46.1797 145.167 46.4048C145.167 46.6372 145.145 46.818 145.097 46.9509C145.049 47.0837 144.954 47.1722 144.811 47.2165C144.881 47.2276 144.936 47.2571 144.983 47.3014C145.031 47.3457 145.068 47.4084 145.093 47.4933C145.123 47.5781 145.141 47.6851 145.156 47.8179C145.17 47.9508 145.174 48.1131 145.174 48.3013C145.174 48.3161 145.174 48.3566 145.174 48.4268C145.174 48.4969 145.174 48.578 145.174 48.6703C145.174 48.7625 145.174 48.8548 145.178 48.947C145.178 49.0392 145.181 49.1167 145.185 49.1831C145.189 49.2496 145.192 49.2865 145.196 49.3012H144.598C144.595 49.2938 144.591 49.2569 144.587 49.1868C144.584 49.1167 144.584 49.0282 144.58 48.9212C144.576 48.8142 144.576 48.6998 144.576 48.5743C144.576 48.4489 144.576 48.3271 144.576 48.2091C144.576 48.091 144.576 47.984 144.576 47.8917C144.576 47.7737 144.569 47.6851 144.551 47.6261C144.532 47.567 144.503 47.5228 144.459 47.5006C144.415 47.4785 144.349 47.4637 144.265 47.4564L144.074 47.4453V49.3049H143.476V49.2975ZM144.074 46.973H144.312C144.386 46.973 144.441 46.9582 144.477 46.925C144.514 46.8918 144.54 46.8328 144.554 46.7442C144.569 46.6557 144.576 46.5302 144.576 46.3642V46.3384C144.576 46.1982 144.569 46.0912 144.558 46.0174C144.543 45.9436 144.518 45.8919 144.474 45.8624C144.43 45.8329 144.367 45.8181 144.276 45.8181H144.074V46.973Z" fill="white"/>
<path d="M148.229 49.3419C148.028 49.3419 147.859 49.2976 147.731 49.2128C147.602 49.1279 147.507 48.9988 147.448 48.829C147.386 48.6593 147.356 48.449 147.356 48.1981V46.3975C147.356 46.1688 147.386 45.9769 147.444 45.8145C147.503 45.6522 147.599 45.5304 147.727 45.4419C147.855 45.3533 148.024 45.3127 148.233 45.3127C148.391 45.3127 148.523 45.3386 148.629 45.3865C148.735 45.4345 148.823 45.5083 148.893 45.6005C148.959 45.6928 149.007 45.8072 149.04 45.94C149.069 46.0728 149.088 46.2241 149.088 46.3938V48.1944C149.088 48.4453 149.058 48.6556 148.999 48.8254C148.941 48.9951 148.849 49.1242 148.721 49.2091C148.596 49.3013 148.431 49.3419 148.229 49.3419ZM148.229 48.8254C148.303 48.8254 148.358 48.8032 148.398 48.7589C148.435 48.7147 148.46 48.6446 148.471 48.556C148.482 48.4638 148.49 48.3494 148.49 48.2092V46.3754C148.49 46.2057 148.475 46.0728 148.442 45.9769C148.409 45.881 148.343 45.8367 148.237 45.8367C148.127 45.8367 148.053 45.881 148.017 45.9732C147.976 46.0618 147.958 46.1983 147.958 46.3717V48.2092C147.958 48.3531 147.965 48.4711 147.976 48.5634C147.987 48.6556 148.017 48.722 148.053 48.7663C148.094 48.8032 148.152 48.8254 148.229 48.8254Z" fill="white"/>
<path d="M150.081 49.2975V45.3606H150.547L151.376 47.722L151.332 46.6483V45.3606H151.867V49.2975H151.445L150.595 46.8512L150.628 47.8844V49.2975H150.081Z" fill="white"/>
<path d="M152.916 49.2975V45.3606H153.514V48.7883H154.269V49.2975H152.916Z" fill="white"/>
<path d="M155.058 49.2975V45.3606H155.655V49.2975H155.058Z" fill="white"/>
<path d="M156.705 49.2975V45.3606H157.171L158 47.722L157.956 46.6483V45.3606H158.491V49.2975H158.069L157.219 46.8512L157.252 47.8844V49.2975H156.705Z" fill="white"/>
<path d="M159.54 49.2975V45.3606H160.853V45.8772H160.138V47.021H160.82V47.5265H160.138V48.781H160.882V49.2975H159.54Z" fill="white"/>
<path d="M163.046 49.2975V45.3606H163.922C164.12 45.3606 164.282 45.4012 164.399 45.4787C164.52 45.5598 164.608 45.6742 164.66 45.8255C164.711 45.9768 164.74 46.1576 164.74 46.3716L164.744 48.1463C164.744 48.4046 164.715 48.6186 164.66 48.7883C164.605 48.9581 164.513 49.0872 164.392 49.1684C164.267 49.2532 164.106 49.2938 163.9 49.2938H163.046V49.2975ZM163.64 48.8326H163.834C163.904 48.8326 163.963 48.8179 164.01 48.792C164.058 48.7625 164.091 48.7146 164.113 48.6408C164.135 48.567 164.146 48.4673 164.146 48.3345L164.142 46.39C164.142 46.1871 164.117 46.0432 164.069 45.9546C164.021 45.8661 163.933 45.8218 163.812 45.8218H163.636V48.8326H163.64Z" fill="white"/>
<path d="M165.511 49.2975L166.068 45.3606H166.857L167.451 49.2975H166.893L166.802 48.5965H166.171L166.087 49.2975H165.511ZM166.226 48.1131H166.736L166.475 46.1354H166.468L166.226 48.1131Z" fill="white"/>
<path d="M168.353 49.2976V45.8772H167.895V45.3569H169.387V45.8772H168.947V49.2976H168.353Z" fill="white"/>
<path d="M170.19 49.2975V45.3606H170.788V49.2975H170.19Z" fill="white"/>
<path d="M171.837 49.2975V45.3606H172.303L173.132 47.722L173.088 46.6483V45.3606H173.623V49.2975H173.201L172.35 46.8512L172.383 47.8844V49.2975H171.837Z" fill="white"/>
<path d="M175.405 49.3382C175.17 49.3382 174.98 49.246 174.836 49.0578C174.693 48.8696 174.62 48.5671 174.62 48.1464V46.4344C174.62 46.2573 174.638 46.1023 174.671 45.9621C174.704 45.8219 174.756 45.7075 174.825 45.6079C174.895 45.512 174.987 45.4382 175.101 45.3902C175.214 45.3385 175.35 45.3164 175.508 45.3164C175.68 45.3164 175.819 45.3422 175.929 45.3939C176.039 45.4455 176.12 45.5193 176.179 45.619C176.237 45.7149 176.278 45.8367 176.3 45.9769C176.322 46.1171 176.333 46.2794 176.333 46.4565V46.737H175.775V46.3237C175.775 46.1466 175.757 46.0211 175.72 45.9473C175.684 45.8736 175.614 45.8367 175.515 45.8367C175.405 45.8367 175.328 45.8809 175.284 45.9658C175.24 46.0544 175.218 46.2093 175.218 46.4307V48.139C175.218 48.3863 175.236 48.5634 175.273 48.6704C175.31 48.7774 175.387 48.829 175.5 48.829C175.614 48.829 175.691 48.7737 175.739 48.663C175.786 48.5523 175.808 48.3715 175.808 48.1132V47.5819H175.508V47.1465H176.329V49.2976H176.061L175.97 48.9102C175.937 49.0467 175.867 49.15 175.761 49.2238C175.654 49.2976 175.541 49.3382 175.405 49.3382Z" fill="white"/>
<path d="M178.622 49.2975V45.3606H179.935V45.8772H179.22V47.021H179.902V47.5265H179.22V48.781H179.964V49.2975H178.622Z" fill="white"/>
<path d="M180.653 49.2975L181.255 47.187L180.653 45.3606H181.156L181.545 46.5302L181.856 45.3606H182.414L181.823 47.3752L182.461 49.2975H181.944L181.545 48.0873L181.222 49.2975H180.653Z" fill="white"/>
<path d="M183.309 49.2975V45.3606H184.207C184.361 45.3606 184.493 45.3827 184.596 45.4307C184.699 45.4787 184.779 45.5488 184.838 45.6447C184.897 45.7369 184.941 45.855 184.963 45.9915C184.988 46.1281 184.999 46.2904 184.999 46.4675V46.5487C184.999 46.8033 184.977 47.0173 184.933 47.1981C184.889 47.3789 184.812 47.5117 184.699 47.6039C184.585 47.6962 184.427 47.7442 184.222 47.7442H183.899V49.2975H183.309ZM183.903 47.2497H184.108C184.196 47.2497 184.262 47.2276 184.302 47.1833C184.343 47.139 184.376 47.0652 184.387 46.9619C184.402 46.8586 184.409 46.7184 184.409 46.5487V46.4712C184.409 46.2572 184.391 46.0948 184.354 45.9878C184.317 45.8772 184.236 45.8218 184.112 45.8218H183.903V47.2497Z" fill="white"/>
<path d="M185.857 49.2975V45.3606H187.17V45.8772H186.455V47.021H187.137V47.5265H186.455V48.781H187.2V49.2975H185.857Z" fill="white"/>
<path d="M188.095 49.2975V45.3606H189.081C189.287 45.3606 189.437 45.4012 189.54 45.4824C189.642 45.5635 189.708 45.6816 189.738 45.8366C189.771 45.9915 189.785 46.1797 189.785 46.4048C189.785 46.6372 189.763 46.818 189.716 46.9509C189.668 47.0837 189.573 47.1722 189.43 47.2165C189.499 47.2276 189.554 47.2571 189.602 47.3014C189.65 47.3457 189.686 47.4084 189.712 47.4933C189.741 47.5781 189.76 47.6851 189.774 47.8179C189.789 47.9508 189.793 48.1131 189.793 48.3013C189.793 48.3161 189.793 48.3566 189.793 48.4268C189.793 48.4969 189.793 48.578 189.793 48.6703C189.793 48.7625 189.793 48.8548 189.796 48.947C189.796 49.0392 189.8 49.1167 189.804 49.1831C189.807 49.2496 189.811 49.2865 189.815 49.3012H189.217C189.213 49.2938 189.21 49.2569 189.206 49.1868C189.202 49.1167 189.202 49.0282 189.199 48.9212C189.195 48.8142 189.195 48.6998 189.195 48.5743C189.195 48.4489 189.195 48.3271 189.195 48.2091C189.195 48.091 189.195 47.984 189.195 47.8917C189.195 47.7737 189.188 47.6851 189.169 47.6261C189.151 47.567 189.122 47.5228 189.078 47.5006C189.034 47.4785 188.968 47.4637 188.883 47.4564L188.693 47.4453V49.3049H188.095V49.2975ZM188.693 46.973H188.931C189.004 46.973 189.059 46.9582 189.096 46.925C189.133 46.8918 189.158 46.8328 189.173 46.7442C189.188 46.6557 189.195 46.5302 189.195 46.3642V46.3384C189.195 46.1982 189.188 46.0912 189.177 46.0174C189.162 45.9436 189.136 45.8919 189.092 45.8624C189.048 45.8329 188.986 45.8181 188.894 45.8181H188.693V46.973Z" fill="white"/>
<path d="M190.765 49.2975V45.3606H191.362V49.2975H190.765Z" fill="white"/>
<path d="M192.415 49.2975V45.3606H193.728V45.8772H193.013V47.021H193.695V47.5265H193.013V48.781H193.757V49.2975H192.415Z" fill="white"/>
<path d="M194.652 49.2975V45.3606H195.118L195.947 47.722L195.903 46.6483V45.3606H196.438V49.2975H196.017L195.166 46.8512L195.199 47.8844V49.2975H194.652Z" fill="white"/>
<path d="M198.287 49.3419C198.097 49.3419 197.939 49.2976 197.814 49.2091C197.69 49.1205 197.594 48.9914 197.532 48.8217C197.47 48.6519 197.437 48.449 197.437 48.2055V46.4898C197.437 46.309 197.451 46.1466 197.481 46.0027C197.51 45.8588 197.558 45.7334 197.624 45.6301C197.69 45.5267 197.778 45.4493 197.891 45.3939C198.001 45.3386 198.141 45.3127 198.302 45.3127C198.449 45.3127 198.577 45.3386 198.68 45.3865C198.786 45.4345 198.871 45.5046 198.937 45.5969C199.003 45.6891 199.05 45.7961 199.08 45.9252C199.109 46.0544 199.124 46.1983 199.124 46.3606V46.903H198.548V46.4012C198.548 46.2057 198.533 46.0654 198.5 45.9732C198.467 45.881 198.401 45.8367 198.306 45.8367C198.199 45.8367 198.126 45.8847 198.089 45.9843C198.053 46.0839 198.034 46.2204 198.034 46.4012V48.2387C198.034 48.3752 198.042 48.4896 198.056 48.5745C198.071 48.663 198.097 48.7257 198.133 48.7663C198.17 48.8069 198.221 48.829 198.287 48.829C198.386 48.829 198.456 48.7811 198.493 48.6851C198.529 48.5892 198.548 48.4379 198.548 48.2313V47.6668H199.131V48.2239C199.131 48.4711 199.102 48.6815 199.043 48.8475C198.984 49.0135 198.893 49.139 198.768 49.2202C198.65 49.3013 198.485 49.3419 198.287 49.3419Z" fill="white"/>
<path d="M200.095 49.2975V45.3606H201.408V45.8772H200.693V47.021H201.375V47.5265H200.693V48.781H201.437V49.2975H200.095Z" fill="white"/>
</g>
<defs>
<clipPath id="clip0_1739_59608">
<rect width="183.518" height="42.4096" fill="white" transform="translate(18.5059 10.7954)"/>
</clipPath>
</defs>
</svg>
