<svg width="270" height="270" viewBox="0 0 270 270" fill="none" xmlns="http://www.w3.org/2000/svg">
<path d="M134.998 270C60.5597 270 0 209.443 0 134.995C0 60.5622 60.5597 0 134.998 0C209.438 0 270 60.5622 270 134.995C270 209.443 209.438 270 134.998 270ZM134.998 44.1732C84.9173 44.1732 44.1711 84.918 44.1711 134.995C44.1711 185.082 84.9173 225.831 134.998 225.831C185.084 225.831 225.828 185.082 225.828 134.995C225.828 84.918 185.084 44.1732 134.998 44.1732Z" fill="#121695"/>
<mask id="mask0_1426_16" style="mask-type:luminance" maskUnits="userSpaceOnUse" x="134" y="0" width="136" height="136">
<path d="M269.456 135.051H225.303C225.303 84.988 184.571 44.259 134.51 44.259V0.102707C208.918 0.102707 269.456 60.6416 269.456 135.051Z" fill="white"/>
</mask>
<g mask="url(#mask0_1426_16)">
<path d="M269.456 135.051H225.303C225.303 84.988 184.571 44.259 134.51 44.259V0.102707C208.918 0.102707 269.456 60.6416 269.456 135.051Z" fill="url(#paint0_linear_1426_16)"/>
</g>
<path d="M232.977 135.037C232.977 190.19 188.679 234.9 134.037 234.9C79.3956 234.9 35.1001 190.19 35.1001 135.037C35.1001 79.8847 79.3956 35.1744 134.037 35.1744C188.679 35.1744 232.977 79.8847 232.977 135.037Z" fill="#03053A"/>
<path d="M234.334 135H231.956C231.954 161.781 221.107 186.008 203.557 203.558C186.005 221.107 161.78 231.956 134.998 231.956C108.217 231.956 83.9936 221.107 66.4405 203.558C48.8917 186.008 38.0436 161.781 38.0436 135C38.0436 108.218 48.8917 83.9961 66.4405 66.4416C83.9936 48.8919 108.217 38.0433 134.998 38.0433C161.78 38.0433 186.005 48.8919 203.557 66.4416C221.107 83.9961 231.954 108.218 231.956 135H234.334H236.712C236.71 78.8262 191.173 33.2873 134.998 33.2873C78.8247 33.2873 33.2876 78.8262 33.2876 135C33.2876 191.178 78.8247 236.712 134.998 236.712C191.173 236.712 236.71 191.178 236.712 135H234.334Z" fill="white"/>
<path d="M107.88 160.8V153.9L121.32 139.92C123 138.16 124.22 136.6 124.98 135.24C125.74 133.88 126.12 132.48 126.12 131.04C126.12 129.24 125.54 127.88 124.38 126.96C123.22 126.04 121.56 125.58 119.4 125.58C117.6 125.58 115.82 125.92 114.06 126.6C112.34 127.24 110.64 128.24 108.96 129.6L106.02 122.76C107.78 121.24 109.96 120.04 112.56 119.16C115.16 118.28 117.86 117.84 120.66 117.84C125.38 117.84 129 118.9 131.52 121.02C134.04 123.1 135.3 126.08 135.3 129.96C135.3 132.56 134.7 135.04 133.5 137.4C132.3 139.76 130.36 142.26 127.68 144.9L116.88 155.52V153.12H136.92V160.8H107.88ZM157.477 161.46C152.397 161.46 148.477 159.56 145.717 155.76C142.997 151.92 141.637 146.52 141.637 139.56C141.637 132.48 142.997 127.1 145.717 123.42C148.477 119.7 152.397 117.84 157.477 117.84C162.597 117.84 166.517 119.7 169.237 123.42C171.957 127.1 173.317 132.46 173.317 139.5C173.317 146.5 171.957 151.92 169.237 155.76C166.517 159.56 162.597 161.46 157.477 161.46ZM157.477 153.9C159.797 153.9 161.517 152.76 162.637 150.48C163.797 148.16 164.377 144.5 164.377 139.5C164.377 134.5 163.797 130.9 162.637 128.7C161.517 126.5 159.797 125.4 157.477 125.4C155.157 125.4 153.417 126.5 152.257 128.7C151.137 130.9 150.577 134.48 150.577 139.44C150.577 144.48 151.157 148.16 152.317 150.48C153.477 152.76 155.197 153.9 157.477 153.9Z" fill="white"/>
<defs>
<linearGradient id="paint0_linear_1426_16" x1="134.51" y1="67.5768" x2="269.456" y2="67.5768" gradientUnits="userSpaceOnUse">
<stop stop-color="#3C52AC"/>
<stop offset="1e-07" stop-color="#3C52AC"/>
<stop offset="1" stop-color="#58C9F5"/>
</linearGradient>
</defs>
</svg>
