<svg width="270" height="270" viewBox="0 0 270 270" fill="none" xmlns="http://www.w3.org/2000/svg">
<path d="M134.998 269.598C60.5643 269.598 0 209.186 0 134.929C0 60.6722 60.5643 0.260254 134.998 0.260254C209.436 0.260254 270 60.6722 270 134.929C270 209.186 209.436 269.598 134.998 269.598ZM134.998 40.9217C83.0395 40.9217 40.7655 83.0927 40.7655 134.929C40.7655 186.765 83.0395 228.931 134.998 228.931C186.961 228.931 229.234 186.765 229.234 134.929C229.234 83.0927 186.961 40.9217 134.998 40.9217Z" fill="#121695"/>
<mask id="mask0_1438_102" style="mask-type:luminance" maskUnits="userSpaceOnUse" x="0" y="0" width="270" height="270">
<path d="M134.892 270C60.7771 270 0.480469 209.439 0.480469 135.005H41.0642C41.0642 186.964 83.1594 229.234 134.892 229.234C186.625 229.234 228.715 186.964 228.715 135.005C228.715 83.0362 186.625 40.7615 134.892 40.7615V0C209.002 0 269.299 60.5606 269.299 135.005C269.299 209.439 209.002 270 134.892 270Z" fill="white"/>
</mask>
<g mask="url(#mask0_1438_102)">
<path d="M134.892 270C60.7771 270 0.480469 209.439 0.480469 135.005H41.0642C41.0642 186.964 83.1594 229.234 134.892 229.234C186.625 229.234 228.715 186.964 228.715 135.005C228.715 83.0362 186.625 40.7615 134.892 40.7615V0C209.002 0 269.299 60.5606 269.299 135.005C269.299 209.439 209.002 270 134.892 270Z" fill="url(#paint0_linear_1438_102)"/>
</g>
<path d="M235.304 137.06C235.304 192.589 190.485 237.601 135.204 237.601C79.9191 237.601 35.0999 192.589 35.0999 137.06C35.0999 81.5318 79.9191 36.5199 135.204 36.5199C190.485 36.5199 235.304 81.5318 235.304 137.06Z" fill="#03053A"/>
<path d="M234.597 134.926H232.254C232.25 162.151 221.373 186.774 203.77 204.619C186.162 222.459 161.866 233.486 135.002 233.486C108.139 233.486 83.8371 222.459 66.2341 204.619C48.6264 186.774 37.7499 162.151 37.7452 134.926C37.7499 107.701 48.6264 83.0774 66.2341 65.2329C83.8371 47.3931 108.139 36.3655 135.002 36.3655C161.866 36.3655 186.162 47.3931 203.77 65.2329C221.373 83.0774 232.25 107.701 232.254 134.926H234.597H236.939C236.934 77.8698 191.301 31.6184 135.002 31.6184C78.7033 31.6184 33.0657 77.8698 33.061 134.926C33.0657 191.982 78.7033 238.233 135.002 238.233C191.301 238.233 236.934 191.982 236.939 134.926H234.597Z" fill="white"/>
<path d="M99 158.66C97.12 158.66 95.26 158.46 93.42 158.06C91.58 157.66 89.86 157.12 88.26 156.44C86.66 155.72 85.32 154.88 84.24 153.92L87.18 146.96C88.98 148.24 90.86 149.22 92.82 149.9C94.78 150.58 96.78 150.92 98.82 150.92C101.14 150.92 102.94 150.38 104.22 149.3C105.54 148.18 106.2 146.66 106.2 144.74C106.2 142.82 105.58 141.28 104.34 140.12C103.1 138.96 101.4 138.38 99.24 138.38C97.72 138.38 96.3 138.66 94.98 139.22C93.7 139.78 92.54 140.64 91.5 141.8H85.5V115.7H112.5V123.32H94.32V134.78H92.16C93.16 133.54 94.48 132.58 96.12 131.9C97.76 131.22 99.6 130.88 101.64 130.88C104.36 130.88 106.72 131.46 108.72 132.62C110.76 133.74 112.34 135.32 113.46 137.36C114.58 139.36 115.14 141.72 115.14 144.44C115.14 147.24 114.48 149.72 113.16 151.88C111.88 154 110.02 155.66 107.58 156.86C105.18 158.06 102.32 158.66 99 158.66ZM134.977 158.66C129.897 158.66 125.977 156.76 123.217 152.96C120.497 149.12 119.137 143.72 119.137 136.76C119.137 129.68 120.497 124.3 123.217 120.62C125.977 116.9 129.897 115.04 134.977 115.04C140.097 115.04 144.017 116.9 146.737 120.62C149.457 124.3 150.817 129.66 150.817 136.7C150.817 143.7 149.457 149.12 146.737 152.96C144.017 156.76 140.097 158.66 134.977 158.66ZM134.977 151.1C137.297 151.1 139.017 149.96 140.137 147.68C141.297 145.36 141.877 141.7 141.877 136.7C141.877 131.7 141.297 128.1 140.137 125.9C139.017 123.7 137.297 122.6 134.977 122.6C132.657 122.6 130.917 123.7 129.757 125.9C128.637 128.1 128.077 131.68 128.077 136.64C128.077 141.68 128.657 145.36 129.817 147.68C130.977 149.96 132.697 151.1 134.977 151.1ZM170.953 158.66C165.873 158.66 161.953 156.76 159.193 152.96C156.473 149.12 155.113 143.72 155.113 136.76C155.113 129.68 156.473 124.3 159.193 120.62C161.953 116.9 165.873 115.04 170.953 115.04C176.073 115.04 179.993 116.9 182.713 120.62C185.433 124.3 186.793 129.66 186.793 136.7C186.793 143.7 185.433 149.12 182.713 152.96C179.993 156.76 176.073 158.66 170.953 158.66ZM170.953 151.1C173.273 151.1 174.993 149.96 176.113 147.68C177.273 145.36 177.853 141.7 177.853 136.7C177.853 131.7 177.273 128.1 176.113 125.9C174.993 123.7 173.273 122.6 170.953 122.6C168.633 122.6 166.893 123.7 165.733 125.9C164.613 128.1 164.053 131.68 164.053 136.64C164.053 141.68 164.633 145.36 165.793 147.68C166.953 149.96 168.673 151.1 170.953 151.1Z" fill="white"/>
<defs>
<linearGradient id="paint0_linear_1438_102" x1="0.480469" y1="135" x2="269.3" y2="135" gradientUnits="userSpaceOnUse">
<stop stop-color="#3C52AC"/>
<stop offset="1e-07" stop-color="#3C52AC"/>
<stop offset="1" stop-color="#58C9F5"/>
</linearGradient>
</defs>
</svg>
